<svg width="121" height="120" viewBox="0 0 121 120" fill="none" xmlns="http://www.w3.org/2000/svg">
<g id="Frame" clipPath="url(#clip0_688_10916)">
<g id="Group">
<path id="Vector" d="M96.9759 58.1502H24.0239C22.0948 58.1502 20.5251 56.5806 20.5251 54.6515V50.1885C20.5251 49.1891 21.3351 48.3789 22.3348 48.3789C23.3344 48.3789 24.1444 49.1891 24.1444 50.1885V54.5308H96.8552V50.309C96.8552 49.3096 97.6652 48.4994 98.6648 48.4994C99.6644 48.4994 100.474 49.3096 100.474 50.309V54.6512C100.475 56.5809 98.9051 58.1502 96.9759 58.1502ZM22.335 71.5408C22.0973 71.5408 21.862 71.494 21.6424 71.4031C21.4229 71.3122 21.2234 71.1789 21.0553 71.0108C20.8873 70.8428 20.754 70.6433 20.6631 70.4237C20.5721 70.2041 20.5253 69.9688 20.5254 69.7312V65.2682C20.5254 63.3391 22.095 61.7695 24.0241 61.7695H96.9762C98.9053 61.7695 100.475 63.3391 100.475 65.2682V69.6105C100.475 70.6098 99.6649 71.4201 98.6653 71.4201C97.6657 71.4201 96.8557 70.6098 96.8557 69.6105V65.3887H24.1446V69.7309C24.1447 69.9686 24.0979 70.204 24.007 70.4236C23.9161 70.6432 23.7828 70.8427 23.6147 71.0107C23.4467 71.1788 23.2472 71.3121 23.0276 71.4031C22.808 71.494 22.5727 71.5408 22.335 71.5408Z" fill="#F4EBFF"/>
<path id="Vector_2" d="M98.6651 43.5895C110.702 43.5895 120.46 33.8317 120.46 21.7948C120.46 9.75785 110.702 0 98.6651 0C86.6282 0 76.8704 9.75785 76.8704 21.7948C76.8704 33.8317 86.6282 43.5895 98.6651 43.5895Z" fill="#F4EBFF"/>
<path id="Vector_3" d="M98.6649 0C97.4316 0 96.2229 0.104063 95.0457 0.300938C105.36 2.025 113.221 10.9912 113.221 21.7948C113.221 32.5983 105.36 41.5645 95.0457 43.2886C96.2417 43.4888 97.4522 43.5895 98.6649 43.5895C110.702 43.5895 120.46 33.8318 120.46 21.7948C120.46 9.75773 110.702 0 98.6649 0Z" fill="#EAD9FF"/>
<path id="Vector_4" d="M98.6651 25.3848C91.2331 25.3848 85.1309 31.0674 84.4601 38.3241C88.275 41.6059 93.2381 43.5898 98.6651 43.5898C104.092 43.5898 109.055 41.6059 112.87 38.3241C112.199 31.0672 106.097 25.3848 98.6651 25.3848Z" fill="#F26173"/>
<path id="Vector_5" d="M95.056 43.2872C96.2486 43.4875 97.4557 43.5888 98.6649 43.59C104.092 43.59 109.055 41.606 112.87 38.3243C112.662 36.0679 111.916 33.8943 110.695 31.9854C107.578 37.8649 101.851 42.1479 95.056 43.2872Z" fill="black" fill-opacity="0.1"/>
<path id="Vector_6" d="M98.6651 28.3888C94.5078 28.3888 91.1377 25.0188 91.1377 20.8614V17.9903C91.1377 13.833 94.5078 10.4629 98.6651 10.4629C102.822 10.4629 106.193 13.833 106.193 17.9903V20.8614C106.192 25.0188 102.822 28.3888 98.6651 28.3888Z" fill="#FFCEBF"/>
<path id="Vector_7" d="M98.6649 10.4629C97.3996 10.4611 96.1545 10.7799 95.0457 11.3894C97.3749 12.6691 98.9536 15.145 98.9536 17.9901V20.8612C98.9536 23.7063 97.3746 26.1822 95.0457 27.4619C96.1545 28.0714 97.3996 28.3901 98.6649 28.3884C102.822 28.3884 106.192 25.0183 106.192 20.8609V17.9899C106.192 13.833 102.822 10.4629 98.6649 10.4629Z" fill="#FFB09E"/>
<path id="Vector_8" d="M98.6651 120C110.702 120 120.46 110.242 120.46 98.2049C120.46 86.168 110.702 76.4102 98.6651 76.4102C86.6282 76.4102 76.8704 86.168 76.8704 98.2049C76.8704 110.242 86.6282 120 98.6651 120Z" fill="#F4EBFF"/>
<path id="Vector_9" d="M98.6649 76.4102C97.4316 76.4102 96.2229 76.5142 95.0457 76.7111C105.36 78.4352 113.221 87.4014 113.221 98.2049C113.221 109.008 105.36 117.975 95.0457 119.699C96.2417 119.899 97.4522 120 98.6649 120C110.702 120 120.46 110.242 120.46 98.2049C120.46 86.1679 110.702 76.4102 98.6649 76.4102Z" fill="#EAD9FF"/>
<path id="Vector_10" d="M98.6651 101.795C91.2331 101.795 85.1309 107.478 84.4601 114.734C88.2748 118.016 93.2381 120 98.6651 120C104.092 120 109.055 118.016 112.87 114.734C112.199 107.478 106.097 101.795 98.6651 101.795Z" fill="#66B5FE"/>
<path id="Vector_11" d="M95.056 119.697C96.2486 119.898 97.4557 119.999 98.6649 120C104.092 120 109.055 118.016 112.87 114.734C112.662 112.478 111.916 110.304 110.695 108.396C107.578 114.275 101.851 118.558 95.056 119.697Z" fill="black" fill-opacity="0.1"/>
<path id="Vector_12" d="M98.6651 104.799C94.5078 104.799 91.1377 101.429 91.1377 97.2716V94.4005C91.1377 90.2431 94.5078 86.873 98.6651 86.873C102.822 86.873 106.193 90.2431 106.193 94.4005V97.2716C106.192 101.429 102.822 104.799 98.6651 104.799Z" fill="#FFCEBF"/>
<path id="Vector_13" d="M98.6649 86.8731C97.3996 86.8713 96.1545 87.19 95.0457 87.7995C97.3749 89.0792 98.9536 91.5552 98.9536 94.4002V97.2713C98.9536 100.116 97.3746 102.592 95.0457 103.872C96.1545 104.482 97.3996 104.8 98.6649 104.799C102.822 104.799 106.192 101.428 106.192 97.2711V94.4C106.192 90.2431 102.822 86.8731 98.6649 86.8731Z" fill="#FFB09E"/>
<path id="Vector_14" d="M22.3348 43.5895C34.3717 43.5895 44.1296 33.8317 44.1296 21.7948C44.1296 9.75785 34.3717 0 22.3348 0C10.2979 0 0.540039 9.75785 0.540039 21.7948C0.540039 33.8317 10.2979 43.5895 22.3348 43.5895Z" fill="#F4EBFF"/>
<path id="Vector_15" d="M22.3348 0C21.1017 0 19.8928 0.104063 18.7156 0.300938C29.0297 2.025 36.8911 10.9912 36.8911 21.7948C36.8911 32.5983 29.0297 41.5645 18.7156 43.2886C19.9116 43.4888 21.1221 43.5895 22.3348 43.5895C34.3716 43.5895 44.1296 33.8318 44.1296 21.7948C44.1296 9.75773 34.3718 0 22.3348 0Z" fill="#EAD9FF"/>
<path id="Vector_16" d="M22.335 25.3848C14.903 25.3848 8.80079 31.0674 8.13 38.3241C11.9449 41.6059 16.9081 43.5898 22.335 43.5898C27.762 43.5898 32.7251 41.6059 36.54 38.3241C35.869 31.0672 29.7668 25.3848 22.335 25.3848Z" fill="#FFD44D"/>
<path id="Vector_17" d="M18.726 43.2872C19.9185 43.4875 21.1256 43.5888 22.3349 43.59C27.7618 43.59 32.7249 41.606 36.5399 38.3243C36.3315 36.0679 35.5856 33.8943 34.3646 31.9854C31.2484 37.8649 25.5207 42.1479 18.726 43.2872Z" fill="black" fill-opacity="0.1"/>
<path id="Vector_18" d="M22.3348 28.3888C18.1775 28.3888 14.8074 25.0188 14.8074 20.8614V17.9903C14.8074 13.833 18.1775 10.4629 22.3348 10.4629C26.4921 10.4629 29.8622 13.833 29.8622 17.9903V20.8614C29.8622 25.0188 26.4921 28.3888 22.3348 28.3888Z" fill="#FFCEBF"/>
<path id="Vector_19" d="M22.3348 10.4629C21.0695 10.4611 19.8244 10.7799 18.7156 11.3894C21.0448 12.6691 22.6235 15.145 22.6235 17.9901V20.8612C22.6235 23.7063 21.0446 26.1822 18.7156 27.4619C19.8244 28.0714 21.0695 28.3901 22.3348 28.3884C26.4921 28.3884 29.8622 25.0183 29.8622 20.8609V17.9899C29.8622 13.833 26.4921 10.4629 22.3348 10.4629Z" fill="#FFB09E"/>
<path id="Vector_20" d="M22.3348 120C34.3717 120 44.1296 110.242 44.1296 98.2049C44.1296 86.168 34.3717 76.4102 22.3348 76.4102C10.2979 76.4102 0.540039 86.168 0.540039 98.2049C0.540039 110.242 10.2979 120 22.3348 120Z" fill="#F4EBFF"/>
<path id="Vector_21" d="M22.3348 76.4102C21.1015 76.4102 19.8928 76.5142 18.7156 76.7111C29.0297 78.4352 36.8911 87.4014 36.8911 98.2049C36.8911 109.008 29.0297 117.975 18.7156 119.699C19.9116 119.899 21.1221 120 22.3348 120C34.3716 120 44.1296 110.242 44.1296 98.2049C44.1296 86.1679 34.3718 76.4102 22.3348 76.4102Z" fill="#EAD9FF"/>
<path id="Vector_22" d="M22.335 101.795C14.903 101.795 8.80079 107.478 8.13 114.734C11.9447 118.016 16.9081 120 22.3348 120C27.7615 120 32.7248 118.016 36.5398 114.734C35.869 107.478 29.7668 101.795 22.335 101.795Z" fill="#7DD962"/>
<g id="Mask group">
<mask id="mask0_688_10916" style="mask-type:alpha" maskUnits="userSpaceOnUse" x="18" y="76" width="27" height="44">
<path id="Vector_23" d="M22.3348 76.4102C21.1015 76.4102 19.8928 76.5142 18.7156 76.7111C29.0297 78.4352 36.8911 87.4014 36.8911 98.2049C36.8911 109.008 29.0297 117.975 18.7156 119.699C19.9116 119.899 21.1221 120 22.3348 120C34.3716 120 44.1296 110.242 44.1296 98.2049C44.1296 86.1679 34.3718 76.4102 22.3348 76.4102Z" fill="#EAD9FF"/>
</mask>
<g mask="url(#mask0_688_10916)">
<path id="Vector_24" d="M22.3351 101.795C14.9031 101.795 8.80091 107.478 8.13013 114.734C11.9448 118.016 16.9082 120 22.3349 120C27.7616 120 32.725 118.016 36.5399 114.734C35.8691 107.478 29.7669 101.795 22.3351 101.795Z" fill="#7DD962"/>
</g>
</g>
<path id="Vector_25" d="M18.726 119.697C19.9185 119.898 21.1256 119.999 22.3349 120C27.7618 120 32.7249 118.016 36.5399 114.734C36.3315 112.478 35.5856 110.304 34.3646 108.396C31.2484 114.275 25.5207 118.558 18.726 119.697Z" fill="black" fill-opacity="0.1"/>
<path id="Vector_26" d="M22.3348 104.799C18.1775 104.799 14.8074 101.429 14.8074 97.2716V94.4005C14.8074 90.2431 18.1775 86.873 22.3348 86.873C26.4921 86.873 29.8622 90.2431 29.8622 94.4005V97.2716C29.8622 101.429 26.4921 104.799 22.3348 104.799Z" fill="#FFCEBF"/>
<path id="Vector_27" d="M22.3348 86.8731C21.0695 86.8713 19.8244 87.19 18.7156 87.7995C21.0448 89.0792 22.6235 91.5552 22.6235 94.4002V97.2713C22.6235 100.116 21.0446 102.592 18.7156 103.872C19.8244 104.482 21.0695 104.8 22.3348 104.799C26.4921 104.799 29.8622 101.428 29.8622 97.2711V94.4C29.8622 90.2431 26.4921 86.8731 22.3348 86.8731Z" fill="#FFB09E"/>
<path id="Vector_28" d="M60.5 78.6595C70.8277 78.6595 79.1999 70.2872 79.1999 59.9596C79.1999 49.632 70.8277 41.2598 60.5 41.2598C50.1724 41.2598 41.8002 49.632 41.8002 59.9596C41.8002 70.2872 50.1724 78.6595 60.5 78.6595Z" fill="#DCBFFF"/>
<path id="Vector_29" opacity="0.05" d="M60.5 41.2598C59.2613 41.2598 58.0519 41.3833 56.8807 41.613C65.4757 43.2991 71.9611 50.8705 71.9611 59.9594C71.9611 69.0482 65.4757 76.6197 56.8807 78.3058C58.0729 78.5403 59.285 78.6586 60.5 78.659C70.8275 78.659 79.1998 70.2869 79.1998 59.9591C79.1998 49.6314 70.8275 41.2598 60.5 41.2598Z" fill="black"/>
<path id="Vector_30" d="M67.3718 58.1502H62.3096V53.0879C62.3096 52.0886 61.4996 51.2783 60.5 51.2783C59.5004 51.2783 58.6904 52.0886 58.6904 53.0879V58.1502H53.6281C52.6285 58.1502 51.8185 58.9604 51.8185 59.9598C51.8185 60.9592 52.6285 61.7694 53.6281 61.7694H58.6904V66.8317C58.6904 67.8311 59.5004 68.6413 60.5 68.6413C61.4996 68.6413 62.3096 67.8311 62.3096 66.8317V61.7696H67.3718C67.6095 61.7697 67.8448 61.7229 68.0644 61.632C68.2839 61.541 68.4835 61.4077 68.6515 61.2397C68.8195 61.0717 68.9528 60.8721 69.0438 60.6526C69.1347 60.433 69.1815 60.1977 69.1814 59.96C69.1815 59.7224 69.1347 59.487 69.0438 59.2674C68.9529 59.0478 68.8196 58.8483 68.6516 58.6802C68.4835 58.5122 68.284 58.3788 68.0644 58.2879C67.8449 58.197 67.6095 58.1502 67.3718 58.1502Z" fill="#9506E6"/>
</g>
</g>
<defs>
<clipPath id="clip0_688_10916">
<rect width="120" height="120" fill="white" transform="translate(0.5)"/>
</clipPath>
</defs>
</svg>
