<svg width="24" height="24" viewBox="0 0 24 24" fill="none" xmlns="http://www.w3.org/2000/svg">
<path d="M9.07668 1.16572C9.69918 1.67757 10.6316 1.51316 11.0415 0.81927C11.4723 0.0898656 12.5277 0.0898656 12.9585 0.81927C13.3684 1.51316 14.3008 1.67757 14.9233 1.16572C15.5777 0.627667 16.5693 0.988602 16.7247 1.82138C16.8726 2.61362 17.6925 3.08702 18.4526 2.81894C19.2515 2.53714 20.0599 3.21548 19.9211 4.05119C19.7891 4.84622 20.3977 5.5715 21.2035 5.57953C22.0507 5.58797 22.5783 6.50189 22.1621 7.23974C21.7661 7.94166 22.0899 8.83136 22.8444 9.11453C23.6376 9.41219 23.8208 10.4515 23.1773 11.0024C22.5651 11.5266 22.5651 12.4734 23.1773 12.9976C23.8208 13.5485 23.6376 14.5878 22.8444 14.8855C22.0899 15.1686 21.7661 16.0583 22.1621 16.7603C22.5783 17.4981 22.0507 18.412 21.2035 18.4205C20.3977 18.4285 19.7891 19.1538 19.9211 19.9488C20.0599 20.7845 19.2515 21.4629 18.4526 21.1811C17.6925 20.913 16.8726 21.3864 16.7247 22.1786C16.5693 23.0114 15.5777 23.3723 14.9233 22.8343C14.3008 22.3224 13.3684 22.4868 12.9585 23.1807C12.5277 23.9101 11.4723 23.9101 11.0415 23.1807C10.6316 22.4868 9.69918 22.3224 9.07668 22.8343C8.42232 23.3723 7.43066 23.0114 7.27525 22.1786C7.12741 21.3864 6.30746 20.913 5.54743 21.1811C4.74852 21.4629 3.94011 20.7845 4.0789 19.9488C4.21093 19.1538 3.60234 18.4285 2.79646 18.4205C1.94935 18.412 1.42169 17.4981 1.83794 16.7603C2.23393 16.0583 1.91011 15.1686 1.15558 14.8855C0.362433 14.5878 0.179181 13.5485 0.822685 12.9976C1.43486 12.4734 1.43486 11.5266 0.822685 11.0024C0.179181 10.4515 0.362433 9.41219 1.15558 9.11453C1.91011 8.83136 2.23393 7.94166 1.83794 7.23974C1.42169 6.50189 1.94935 5.58797 2.79646 5.57953C3.60234 5.5715 4.21093 4.84622 4.0789 4.05119C3.94011 3.21548 4.74852 2.53714 5.54743 2.81894C6.30746 3.08702 7.12741 2.61362 7.27525 1.82138C7.43066 0.988602 8.42232 0.627667 9.07668 1.16572Z" fill="white" stroke="url(#paint0_linear_1057_15201)" stroke-width="0.2"/>
<defs>
<linearGradient id="paint0_linear_1057_15201" x1="11.9621" y1="6.25" x2="11.9621" y2="25" gradientUnits="userSpaceOnUse">
<stop stopColor="#9506E6"/>
<stop offset="1" stopColor="#3B1ADE"/>
</linearGradient>
</defs>
</svg>
