<svg width="56" height="56" viewBox="0 0 56 56" fill="none" xmlns="http://www.w3.org/2000/svg">
<path d="M7.0415 6.4971V55.3241C7.04148 55.4128 7.05894 55.5007 7.0929 55.5828C7.12686 55.6648 7.17665 55.7393 7.23942 55.8021C7.30219 55.8649 7.37672 55.9146 7.45874 55.9486C7.54076 55.9826 7.62867 56 7.71744 56H48.8454C48.9342 56 49.0221 55.9826 49.1041 55.9486C49.1861 55.9146 49.2606 55.8649 49.3234 55.8021C49.3862 55.7393 49.436 55.6648 49.4699 55.5828C49.5039 55.5007 49.5214 55.4128 49.5213 55.3241V6.4971C49.5214 6.40833 49.5039 6.32042 49.4699 6.2384C49.436 6.15638 49.3862 6.08185 49.3234 6.01908C49.2606 5.95631 49.1861 5.90652 49.1041 5.87256C49.0221 5.8386 48.9342 5.82114 48.8454 5.82117H7.71744C7.53817 5.82117 7.36624 5.89238 7.23948 6.01914C7.11272 6.14591 7.0415 6.31783 7.0415 6.4971Z" fill="#CCA4FF"/>
<path d="M48.8453 5.82128H46.4694C46.5581 5.82125 46.6461 5.83871 46.7281 5.87266C46.8102 5.90662 46.8847 5.9564 46.9475 6.01916C47.0103 6.08193 47.0602 6.15645 47.0942 6.23848C47.1282 6.3205 47.1457 6.40842 47.1457 6.49721V55.3241C47.1457 55.6975 46.8428 56 46.4694 56H48.8453C48.9341 56 49.022 55.9826 49.104 55.9486C49.186 55.9146 49.2606 55.8649 49.3233 55.8021C49.3861 55.7393 49.4359 55.6648 49.4698 55.5828C49.5038 55.5007 49.5213 55.4128 49.5212 55.3241V6.4971C49.5213 6.40833 49.5038 6.32042 49.4698 6.2384C49.4359 6.15638 49.3861 6.08185 49.3233 6.01908C49.2606 5.95631 49.186 5.90652 49.104 5.87256C49.022 5.8386 48.9341 5.82125 48.8453 5.82128ZM31.3987 5.82128H36.4312V56H31.3987V5.82128Z" fill="#A472E4"/>
<path d="M22.8359 0.450734V56H33.7273V0.450734C33.7273 0.33122 33.6798 0.216607 33.5953 0.132088C33.5108 0.047568 33.3962 5.7985e-05 33.2767 0L23.2867 0C23.2275 -1.74339e-09 23.1689 0.0116594 23.1142 0.0343122C23.0595 0.0569651 23.0098 0.0901677 22.968 0.132024C22.9261 0.17388 22.893 0.223569 22.8703 0.278254C22.8477 0.332939 22.8359 0.391548 22.8359 0.450734Z" fill="#914DE8"/>
<path d="M26.4038 9.26355H30.1593V16.0239H26.4038V9.26355ZM26.4038 24.7867H30.1593V31.5471H26.4038V24.7867ZM26.4038 40.3099H30.1593V47.0701H26.4038V40.3099Z" fill="#5E20AD"/>
<path d="M37.8041 16.9088V19.9128C37.8041 20.0024 37.8398 20.0884 37.9032 20.1518C37.9667 20.2152 38.0527 20.2508 38.1424 20.2507H51.3029C51.3926 20.2508 51.4786 20.2152 51.542 20.1518C51.6055 20.0884 51.6411 20.0024 51.6412 19.9128V16.9088C51.6411 16.8191 51.6055 16.7331 51.542 16.6697C51.4786 16.6064 51.3926 16.5708 51.3029 16.5708H38.142C38.0524 16.5709 37.9665 16.6065 37.9031 16.6699C37.8397 16.7332 37.8041 16.8192 37.8041 16.9088ZM37.8041 31.7013V34.7053C37.8041 34.795 37.8398 34.8809 37.9032 34.9443C37.9667 35.0077 38.0527 35.0433 38.1424 35.0432H51.3029C51.3926 35.0433 51.4786 35.0077 51.542 34.9443C51.6055 34.8809 51.6411 34.795 51.6412 34.7053V31.7013C51.6411 31.6116 51.6055 31.5256 51.542 31.4623C51.4786 31.3989 51.3926 31.3633 51.3029 31.3633H38.142C38.0524 31.3634 37.9665 31.3991 37.9032 31.4624C37.8398 31.5258 37.8042 31.6117 37.8041 31.7013ZM37.8041 46.4943V49.4982C37.8041 49.5879 37.8398 49.6739 37.9032 49.7373C37.9667 49.8007 38.0527 49.8362 38.1424 49.8362H51.3029C51.3926 49.8362 51.4786 49.8007 51.542 49.7373C51.6055 49.6739 51.6411 49.5879 51.6412 49.4982V46.4943C51.6411 46.4046 51.6055 46.3186 51.542 46.2552C51.4786 46.1919 51.3926 46.1563 51.3029 46.1563H38.142C38.0524 46.1564 37.9665 46.192 37.9031 46.2554C37.8397 46.3187 37.8041 46.4046 37.8041 46.4943ZM18.7587 16.9088V19.9128C18.7587 20.0024 18.7231 20.0884 18.6597 20.1517C18.5963 20.2151 18.5104 20.2507 18.4207 20.2507H5.25984C5.17021 20.2507 5.08425 20.2151 5.02086 20.1517C4.95748 20.0884 4.92188 20.0024 4.92188 19.9128V16.9088C4.92188 16.8191 4.95748 16.7332 5.02086 16.6698C5.08425 16.6064 5.17021 16.5708 5.25984 16.5708H18.4207C18.5104 16.5708 18.5963 16.6064 18.6597 16.6698C18.7231 16.7332 18.7587 16.8191 18.7587 16.9088ZM18.7587 31.7013V34.7053C18.7587 34.7949 18.7231 34.8809 18.6597 34.9443C18.5963 35.0076 18.5104 35.0432 18.4207 35.0432H5.25984C5.17021 35.0432 5.08425 35.0076 5.02086 34.9443C4.95748 34.8809 4.92188 34.7949 4.92188 34.7053V31.7013C4.92188 31.6117 4.95748 31.5257 5.02086 31.4623C5.08425 31.3989 5.17021 31.3633 5.25984 31.3633H18.4207C18.5103 31.3634 18.5963 31.399 18.6596 31.4624C18.723 31.5258 18.7586 31.6117 18.7587 31.7013ZM18.7587 46.4943V49.4982C18.7587 49.5879 18.7231 49.6738 18.6597 49.7372C18.5963 49.8006 18.5104 49.8362 18.4207 49.8362H5.25984C5.17021 49.8362 5.08425 49.8006 5.02086 49.7372C4.95748 49.6738 4.92188 49.5879 4.92188 49.4982V46.4943C4.92188 46.4046 4.95748 46.3187 5.02086 46.2553C5.08425 46.1919 5.17021 46.1563 5.25984 46.1563H18.4207C18.5104 46.1563 18.5963 46.1919 18.6597 46.2553C18.7231 46.3187 18.7587 46.4046 18.7587 46.4943Z" fill="#5E20AD"/>
<path d="M40.0953 16.5708V12.2479C40.0953 12.1887 40.1069 12.1301 40.1296 12.0754C40.1522 12.0207 40.1854 11.971 40.2273 11.9292C40.2691 11.8873 40.3188 11.8542 40.3735 11.8315C40.4282 11.8089 40.4868 11.7972 40.546 11.7972H45.9323C45.9915 11.7972 46.0501 11.8089 46.1048 11.8315C46.1594 11.8542 46.2091 11.8873 46.251 11.9292C46.2928 11.971 46.326 12.0207 46.3487 12.0754C46.3713 12.1301 46.383 12.1887 46.383 12.2479V16.5708M40.0953 31.3633V27.0408C40.0953 26.9816 40.1069 26.923 40.1296 26.8684C40.1522 26.8137 40.1854 26.764 40.2273 26.7222C40.2691 26.6803 40.3188 26.6471 40.3735 26.6245C40.4282 26.6018 40.4868 26.5902 40.546 26.5902H45.9323C45.9915 26.5902 46.0501 26.6018 46.1048 26.6245C46.1594 26.6471 46.2091 26.6803 46.251 26.7222C46.2928 26.764 46.326 26.8137 46.3487 26.8684C46.3713 26.923 46.383 26.9816 46.383 27.0408V31.3633M40.0953 46.1563V41.8338C40.0953 41.7746 40.1069 41.716 40.1296 41.6613C40.1522 41.6066 40.1854 41.557 40.2273 41.5151C40.2691 41.4733 40.3188 41.4401 40.3735 41.4174C40.4282 41.3948 40.4868 41.3832 40.546 41.3832H45.9323C45.9915 41.3832 46.0501 41.3948 46.1048 41.4174C46.1594 41.4401 46.2091 41.4733 46.251 41.5151C46.2928 41.557 46.326 41.6066 46.3487 41.6613C46.3713 41.716 46.383 41.7746 46.383 41.8338V46.1563M16.4673 16.5708V12.2479C16.4673 12.1887 16.4556 12.1301 16.433 12.0754C16.4103 12.0207 16.3771 11.971 16.3353 11.9292C16.2934 11.8873 16.2437 11.8542 16.189 11.8315C16.1344 11.8089 16.0758 11.7972 16.0166 11.7972H10.6301C10.5106 11.7972 10.3959 11.8447 10.3114 11.9292C10.2269 12.0137 10.1794 12.1284 10.1794 12.2479V16.5708M16.4673 31.3633V27.0408C16.4673 26.9816 16.4556 26.923 16.433 26.8684C16.4103 26.8137 16.3771 26.764 16.3353 26.7222C16.2934 26.6803 16.2437 26.6471 16.189 26.6245C16.1344 26.6018 16.0758 26.5902 16.0166 26.5902H10.6301C10.5106 26.5902 10.3959 26.6377 10.3114 26.7222C10.2269 26.8067 10.1794 26.9213 10.1794 27.0408V31.3633M16.4673 46.1563V41.8338C16.4673 41.7746 16.4556 41.716 16.433 41.6613C16.4103 41.6066 16.3771 41.557 16.3353 41.5151C16.2934 41.4733 16.2437 41.4401 16.189 41.4174C16.1344 41.3948 16.0758 41.3832 16.0166 41.3832H10.6301C10.5106 41.3832 10.3959 41.4307 10.3114 41.5152C10.2269 41.5997 10.1794 41.7143 10.1794 41.8338V46.1563" fill="#AC72F5"/>
</svg>
