<svg width="32" height="32" viewBox="0 0 32 32" fill="none" xmlns="http://www.w3.org/2000/svg">
<path d="M7.15972 14.2664C7.12008 14.3244 7.07503 14.3785 7.02515 14.428L6.53472 14.9187C6.07422 15.3789 5.3274 15.3789 4.86622 14.9187L3.48465 13.5368L2.67065 12.7231C2.20972 12.2619 2.20972 11.5151 2.67065 11.0549L3.1614 10.5642C3.25552 10.4702 3.3648 10.3927 3.48465 10.3349C3.92359 10.1237 4.4659 10.1997 4.82965 10.5642L7.02515 12.7598C7.43534 13.1699 7.48047 13.8067 7.15972 14.2664Z" fill="#A669F4"/>
<path d="M3.1614 10.5642C3.25552 10.4702 3.3648 10.3927 3.48465 10.335V13.5368L2.67065 12.7231C2.20972 12.262 2.20972 11.5151 2.67065 11.055L3.1614 10.5642ZM7.15972 14.2664C7.12008 14.3244 7.07503 14.3785 7.02515 14.428L6.53472 14.9187C6.07422 15.379 5.3274 15.379 4.86622 14.9187L4.21415 14.2664H7.15972Z" fill="#A669F4"/>
<path d="M30.655 16.0981V17.7581H2.03857V16.0981C2.03857 15.5137 2.51295 15.0391 3.09839 15.0391H29.5959C30.1811 15.0391 30.655 15.5134 30.655 16.0981Z" fill="#A669F4"/>
<path d="M2.03857 16.7434H30.6421V17.758H2.03857V16.7434Z" fill="#A669F4"/>
<path d="M31.4128 15.1409V17.7581H14.7239V15.1409C14.7239 14.5555 15.1985 14.0815 15.7829 14.0815H30.353C30.9383 14.0815 31.4128 14.5555 31.4128 15.1409Z" fill="#4D2A79"/>
<path d="M14.7239 16.7434H31.4128V17.758H14.7239V16.7434Z" fill="#BF8EFD"/>
<path d="M20.4362 14.0816L18.2341 16.7435L17.595 17.5159H15.5608L16.2002 16.7434L18.4024 14.0815L20.4362 14.0816Z" fill="#A669F4"/>
<path d="M16.2002 16.7434H18.2341L17.595 17.5158H15.5608L16.2002 16.7434Z" fill="#A669F4"/>
<path d="M25.1185 14.0816L22.9163 16.7435L22.2772 17.5159H20.2437L20.883 16.7434L23.0845 14.0815L25.1185 14.0816Z" fill="#A669F4"/>
<path d="M20.8831 16.7434H22.9163L22.2772 17.5158H20.2437L20.8831 16.7434Z" fill="#A669F4"/>
<path d="M29.8005 14.0816L27.5991 16.7435L26.9597 17.5159H24.9258L25.5652 16.7434L27.7666 14.0815L29.8005 14.0816Z" fill="#A669F4"/>
<path d="M27.5992 16.7435L26.9598 17.5159H24.9258L25.5652 16.7434L27.5992 16.7435Z" fill="#A669F4"/>
<path d="M29.8008 14.0815L26.9597 17.5161L29.8008 14.0815Z" fill="#A669F4"/>
<path d="M2.03857 17.5159H29.8694V22.8157H2.03857V17.5159Z" fill="#7F37DB"/>
<path d="M5.38089 21.5588C4.61276 21.5588 3.98776 20.9338 3.98776 20.1657C3.98776 19.3977 4.61276 18.7729 5.38089 18.7729C6.14901 18.7729 6.7737 19.3977 6.7737 20.1657C6.7737 20.9339 6.1487 21.5589 5.38089 21.5589V21.5588ZM5.38089 19.7388C5.14526 19.7388 4.95364 19.9304 4.95364 20.1657C4.95375 20.279 4.9988 20.3876 5.0789 20.4677C5.159 20.5478 5.26761 20.5929 5.38089 20.593C5.6162 20.593 5.80789 20.4014 5.80789 20.1657C5.80789 19.9304 5.6162 19.7388 5.38089 19.7388ZM26.6902 21.5588C25.9224 21.5588 25.2974 20.9338 25.2974 20.1657C25.2974 19.3977 25.9221 18.7729 26.6902 18.7729C27.4583 18.7729 28.083 19.3977 28.083 20.1657C28.083 20.9339 27.4583 21.5589 26.6902 21.5589V21.5588ZM26.6902 19.7388C26.4548 19.7388 26.2632 19.9304 26.2632 20.1657C26.2632 20.4014 26.4548 20.593 26.6902 20.593C26.8035 20.5929 26.9121 20.5478 26.9922 20.4677C27.0723 20.3876 27.1173 20.279 27.1174 20.1657C27.1174 19.9304 26.9258 19.7388 26.6902 19.7388ZM2.03857 17.5159H3.48464V22.8157H2.03857V17.5159ZM28.5154 17.5159H29.8694V22.8157H28.5154V17.5159Z" fill="#430F86"/>
<path d="M2.06619 25.8723H0.64575C0.289062 25.8723 0 25.5833 0 25.2268V7.64575C0 7.28906 0.289062 7 0.64575 7H2.06619C2.42287 7 2.71187 7.28906 2.71187 7.64575V25.2266C2.71187 25.5833 2.42287 25.8723 2.06619 25.8723ZM31.3542 25.8723H29.9338C29.5771 25.8723 29.2881 25.5833 29.2881 25.2268V16.8696C29.2881 16.5132 29.5771 16.2241 29.9338 16.2241H31.3542C31.7109 16.2241 32 16.5132 32 16.8696V25.2269C32 25.5833 31.7109 25.8724 31.3542 25.8724V25.8723Z" fill="#7F37DB"/>
<path d="M27.6001 20.1657C27.6001 20.6684 27.1929 21.0759 26.6902 21.0759C26.1877 21.0759 25.7803 20.6684 25.7803 20.1657C25.7803 19.6633 26.1878 19.2559 26.6902 19.2559C27.1929 19.2559 27.6001 19.6634 27.6001 20.1657ZM6.29052 20.1657C6.29052 20.6684 5.88333 21.0759 5.38064 21.0759C4.87814 21.0759 4.4707 20.6684 4.4707 20.1657C4.4707 19.6633 4.8782 19.2559 5.38064 19.2559C5.88333 19.2559 6.29052 19.6634 6.29052 20.1657Z" fill="#6F28CA"/>
</svg>
