<svg width="73" height="72" viewBox="0 0 73 72" fill="none" xmlns="http://www.w3.org/2000/svg">
<path d="M36.4999 71.9999C56.382 71.9999 72.4997 55.8822 72.4997 35.9998C72.4999 16.1177 56.3822 0 36.4999 0C16.6177 0 0.5 16.1177 0.5 36.0001C0.5 55.8824 16.6177 71.9999 36.4999 71.9999Z" fill="#FF6465"/>
<path opacity="0.1" d="M10.1851 36.0001C10.1851 17.7602 23.7506 2.69085 41.3425 0.325265C39.7374 0.108964 38.1196 0.000299763 36.4999 0C16.6177 0 0.5 16.1177 0.5 36.0001C0.5 55.8824 16.6177 72 36.4998 72C38.1423 72 39.7582 71.8878 41.3423 71.6747C23.7506 69.309 10.1851 54.2397 10.1851 36.0001Z" fill="black"/>
<path d="M44.5705 36.0001L54.0484 26.5222C54.7373 25.8333 54.7373 24.7163 54.0484 24.0276L48.4726 18.4518C47.7837 17.7629 46.6667 17.7629 45.9779 18.4518L36.5001 27.9296L27.0222 18.4518C26.3333 17.7629 25.2163 17.7629 24.5275 18.4518L18.9518 24.0276C18.2628 24.7165 18.2628 25.8335 18.9518 26.5222L28.4296 36.0001L18.9518 45.4779C18.2628 46.1669 18.2628 47.2838 18.9518 47.9728L24.5275 53.5485C25.2165 54.2375 26.3334 54.2375 27.0222 53.5485L36.5001 44.0707L45.978 53.5485C46.667 54.2375 47.784 54.2375 48.4727 53.5485L54.0485 47.9728C54.7374 47.2838 54.7374 46.1669 54.0485 45.4779L44.5705 36.0001Z" fill="white"/>
</svg>
