<svg width="32" height="32" viewBox="0 0 32 32" fill="none" xmlns="http://www.w3.org/2000/svg">
<g clipPath="url(#clip0_734_9634)">
<path d="M24.2264 23.8071H7.77368C7.23149 23.8071 6.79199 24.2466 6.79199 24.7888V25.3934C6.79199 25.9356 7.23149 26.3751 7.77368 26.3751H24.2264C24.7686 26.3751 25.2081 25.9356 25.2081 25.3934V24.7888C25.2081 24.2466 24.7686 23.8071 24.2264 23.8071Z" fill="#5B1FA8"/>
<path d="M24.5662 25.0913H7.43399C7.07943 25.0913 6.79199 25.3787 6.79199 25.7333C6.79199 26.0879 7.07943 26.3753 7.43399 26.3753H24.5662C24.9207 26.3753 25.2082 26.0879 25.2082 25.7333C25.2082 25.3787 24.9208 25.0913 24.5662 25.0913Z" fill="#8652CA"/>
<path d="M8.63184 9.77759H11.6541V18.8451H8.63184V9.77759Z" fill="#713EB4"/>
<path d="M8.63159 9.77759H9.83822V18.8452H8.63159V9.77759Z" fill="#8652CA"/>
<path d="M8.63184 9.77759H11.6541V12.8527C10.6464 12.8285 9.63897 12.7957 8.63184 12.7542V9.77759Z" fill="#69429A"/>
<path d="M20.3462 9.77759H23.3685V18.8451H20.3462V9.77759Z" fill="#713EB4"/>
<path d="M23.3685 9.77765V12.7542C22.3614 12.7957 21.3539 12.8286 20.3462 12.8527V9.77759L23.3685 9.77765Z" fill="#69429A"/>
<path d="M20.3459 9.77759H21.5526V18.8452H20.3459V9.77759Z" fill="#8652CA"/>
<path d="M11.0561 18.8453C10.6704 19.8729 10.3073 20.9958 9.97313 22.1387C8.57982 26.8987 7.6797 32 7.6797 32H4.85376C4.85376 28.8741 5.41201 25.2266 6.03201 22.1386C6.25407 21.0366 6.49557 19.9387 6.75638 18.8452L11.0561 18.8453Z" fill="#A06AE5"/>
<path d="M6.75629 18.8452H11.056C10.6704 19.8728 10.3072 20.9957 9.97304 22.1386H6.03198C6.25405 21.0366 6.49552 19.9387 6.75629 18.8452Z" fill="#7A4FB1"/>
<path d="M27.1462 32H24.3203C24.3203 32 23.4202 26.8987 22.0268 22.1386C21.6927 20.9957 21.3295 19.8728 20.9438 18.8452H25.2435C25.5043 19.9387 25.7458 21.0366 25.9679 22.1386C26.588 25.2266 27.1462 28.8741 27.1462 32Z" fill="#A06AE5"/>
<path d="M8.15101 18.8452C7.32688 22.3028 6.24838 27.6552 6.24838 32H4.85376C4.85376 27.6552 5.93157 22.3028 6.75576 18.8452H8.15101ZM25.7149 32H24.3203C24.3203 32 22.9366 24.1552 20.9439 18.8452H22.3385C24.3319 24.1552 25.7149 32 25.7149 32Z" fill="#8652CA"/>
<path d="M25.9679 22.1386H22.0268C21.6927 20.9957 21.3295 19.8728 20.9438 18.8452H25.2435C25.5043 19.9387 25.7458 21.0366 25.9679 22.1386Z" fill="#7A4FB1"/>
<path d="M25.982 15.6443H6.0181C5.07678 15.6443 4.31372 16.4073 4.31372 17.3487V19.0459C4.31372 19.9872 5.07678 20.7503 6.0181 20.7503H25.982C26.9233 20.7503 27.6864 19.9872 27.6864 19.0459V17.3487C27.6863 16.4073 26.9233 15.6443 25.982 15.6443Z" fill="#5B1FA8"/>
<path d="M10.5238 20.75H6.01803C5.07735 20.75 4.31372 19.987 4.31372 19.0457V17.3485C4.31372 16.4072 5.07735 15.6436 6.01803 15.6436H10.5238C9.58247 15.6436 8.81947 16.4072 8.81947 17.3485V19.0457C8.81947 19.9871 9.58247 20.75 10.5238 20.75Z" fill="#A06AE6"/>
<path d="M24.2422 0.189984C18.7503 -0.0633281 13.2496 -0.0633281 7.7576 0.189984C6.43797 0.250797 5.35347 1.25505 5.19266 2.5663C4.92504 4.74089 4.92504 6.94008 5.19266 9.11467C5.35341 10.4259 6.43797 11.4301 7.7576 11.491C13.2496 11.7443 18.7503 11.7443 24.2422 11.491C25.5619 11.4302 26.6463 10.4259 26.8072 9.11467C27.0748 6.94008 27.0748 4.74089 26.8072 2.5663C26.6463 1.25505 25.5619 0.250797 24.2422 0.189984Z" fill="#8652CA"/>
<path d="M8.62308 11.5284C8.33458 11.5169 8.04612 11.5045 7.7577 11.491C6.43777 11.4298 5.35352 10.4261 5.19258 9.11453C4.92539 6.93999 4.92539 4.74093 5.19258 2.5664C5.35352 1.25484 6.43783 0.251088 7.7577 0.1899C8.04614 0.1764 8.33458 0.16415 8.62308 0.152588C7.77702 0.568525 7.16283 1.38946 7.04239 2.37521C6.75908 4.67671 6.75908 7.00427 7.04239 9.30578C7.16277 10.2915 7.77702 11.1125 8.62308 11.5284Z" fill="#A971F3"/>
</g>
<defs>
<clipPath id="clip0_734_9634">
<rect width="32" height="32" fill="white"/>
</clipPath>
</defs>
</svg>
