<svg width="33" height="32" viewBox="0 0 33 32" fill="none" xmlns="http://www.w3.org/2000/svg">
<g clipPath="url(#clip0_734_9468)">
<path d="M30.0666 22.9536L30.3423 24.8843C30.3914 25.2273 30.125 25.5345 29.7785 25.5345C29.667 25.5345 29.558 25.5017 29.465 25.4404C29.372 25.379 29.299 25.2917 29.2551 25.1892L28.2969 22.9539L28.9749 22.4443L30.0666 22.9536Z" fill="#914DE8"/>
<path d="M30.0666 22.9536H28.2969L27.8545 21.9214H29.9192L30.0666 22.9536Z" fill="#914DE8"/>
<path d="M16.4998 16.7603H3.09351V7.98588L3.59644 6.52563C3.76222 6.4671 3.93677 6.4373 4.11257 6.4375H14.9514C15.8064 6.4375 16.4998 7.13088 16.4998 7.98581V16.7603ZM30.4353 16.7603H16.9998V7.98588L17.532 6.52563C17.6978 6.46709 17.8723 6.43729 18.0481 6.4375H28.8867C29.7419 6.4375 30.4353 7.13088 30.4353 7.98581V16.7603Z" fill="#BE8AFF"/>
<path d="M16.4998 7.98582V16.7603H17.5321V6.52563C16.932 6.73901 16.4998 7.31276 16.4998 7.98582ZM2.56427 7.98582V16.7603H3.59652V6.52563C2.99665 6.73901 2.56427 7.31276 2.56427 7.98582Z" fill="#914DE8"/>
<path d="M31.9836 11.0828H31.2966C30.7979 11.0828 30.3704 11.4395 30.281 11.9302L29.4031 16.76H3.59646L2.71833 11.9302C2.67513 11.6924 2.54981 11.4773 2.36423 11.3224C2.17866 11.1675 1.9446 11.0827 1.70289 11.0828H1.57889L1.16333 11.6478L2.05271 20.5484C2.10333 21.0784 2.54833 21.483 3.08033 21.483H30.5803L31.6172 20.8887L32.4973 11.648C32.526 11.3448 32.2878 11.0828 31.9836 11.0828H31.9836Z" fill="#914DE8"/>
<path d="M2.93309 22.9536L2.65747 24.8843C2.60834 25.2273 2.87447 25.5345 3.22122 25.5345C3.33267 25.5345 3.44168 25.5017 3.53472 25.4404C3.62775 25.379 3.70073 25.2917 3.74459 25.1892L4.70259 22.9539L3.91822 22.4941L2.93309 22.9536Z" fill="#914DE8"/>
<path d="M4.62894 14.6956H15.4676C16.0376 14.6956 16.4998 15.1577 16.4998 15.7278V17.2764C16.4998 17.8464 16.0376 18.3086 15.4676 18.3086H4.62894C4.05862 18.3086 3.59644 17.8464 3.59644 17.2764V15.7278C3.59644 15.1577 4.05862 14.6956 4.62894 14.6956Z" fill="#914DE8"/>
<path d="M4.62894 15.7278V14.6956C4.05894 14.6956 3.59644 15.1577 3.59644 15.7278V17.2764C3.59644 17.8464 4.05894 18.3086 4.62894 18.3086H15.4676C16.0376 18.3086 16.4998 17.8464 16.4998 17.2764H6.17731C5.32206 17.2764 4.62894 16.583 4.62894 15.7278Z" fill="#5311A8"/>
<path d="M17.532 14.6956H28.3706C28.9409 14.6956 29.4028 15.1577 29.4028 15.7278V17.2764C29.4028 17.8464 28.9407 18.3086 28.3706 18.3086H17.532C16.9619 18.3086 16.4998 17.8464 16.4998 17.2764V15.7278C16.4998 15.1577 16.9619 14.6956 17.532 14.6956Z" fill="#914DE8"/>
<path d="M17.532 15.7278V14.6956C16.9619 14.6956 16.4998 15.1577 16.4998 15.7278V17.2764C16.4998 17.8464 16.9619 18.3086 17.532 18.3086H28.3706C28.9406 18.3086 29.4028 17.8464 29.4028 17.2764H19.0804C18.2254 17.2764 17.5321 16.583 17.5321 15.7278H17.532Z" fill="#5311A8"/>
<path d="M31.6127 20.8892H3.45155C2.9193 20.8892 2.47449 20.4846 2.42393 19.9548L1.57893 11.0828H1.01605C0.711863 11.0828 0.473551 11.3448 0.502363 11.6478L1.39174 20.9871C1.44205 21.5169 1.88711 21.9215 2.41936 21.9215H30.5805C31.1127 21.9215 31.5575 21.5169 31.608 20.9871L31.6174 20.8887C31.6159 20.8887 31.6144 20.8892 31.6127 20.8892H31.6127Z" fill="#5311A8"/>
<path d="M2.93311 22.9536H4.70261L5.14523 21.9214H3.08061L2.93311 22.9536Z" fill="#914DE8"/>
</g>
<defs>
<clipPath id="clip0_734_9468">
<rect width="32" height="32" fill="white" transform="translate(0.5)"/>
</clipPath>
</defs>
</svg>
