<svg width="64" height="64" viewBox="0 0 64 64" fill="none" xmlns="http://www.w3.org/2000/svg">
<path d="M37.3932 0C34.1239 0.0035 32.7879 2.63788 32.6878 2.7535C32.3094 3.18712 31.8063 3.27612 31.2958 2.74362C29.5398 -0.346 25.3165 -0.934 22.79 1.59613C21.7708 2.61675 21.2103 3.97137 21.2117 5.4105C21.2179 11.4445 26.5387 16.2085 31.7658 18.6758C31.8432 18.7123 31.9277 18.7312 32.0132 18.7311C32.0988 18.731 32.1833 18.7119 32.2605 18.6752C37.5335 16.1731 42.7942 11.3943 42.788 5.3885C42.7849 2.41725 40.3649 0 37.3932 0Z" fill="#B77FFD"/>
<path d="M23.7873 5.41067C23.7859 3.97155 24.3464 2.6168 25.3657 1.5963C26.0978 0.863171 26.9725 0.393545 27.8882 0.169045C24.4588 -0.667955 21.2083 1.94117 21.2117 5.41067C21.2179 11.4445 26.5387 16.2087 31.7658 18.6759C31.8432 18.7125 31.9277 18.7314 32.0133 18.7313C32.0989 18.7312 32.1834 18.7121 32.2607 18.6754C32.6089 18.5093 32.9526 18.3338 33.2914 18.1492C28.4254 15.5644 23.7932 11.0404 23.7873 5.41067Z" fill="#5D14BA"/>
<path d="M39.0649 36.0053C39.3414 36.5485 39.857 36.8838 40.4155 36.8838H56.147V61.921C56.147 63.0691 55.3155 63.9998 54.2899 63.9998H31.9377V22.9127L39.0649 36.0053Z" fill="#B77FFD"/>
<path d="M31.9377 22.9127V64H34.426V27.4837L31.9377 22.9127Z" fill="#5D14BA"/>
<path d="M24.9352 36.0053C24.6587 36.5485 24.143 36.8838 23.5845 36.8838H7.85303V61.921C7.85303 63.0691 8.68453 63.9998 9.71015 63.9998H32.0623V22.9127L24.9352 36.0053Z" fill="#B77FFD"/>
<path d="M10.3413 61.9212V36.884H7.85303V61.9212C7.85303 63.0693 8.68453 64 9.71015 64H12.1984C11.1728 64 10.3413 63.0693 10.3413 61.9212Z" fill="#5D14BA"/>
<path d="M61.989 37.3017H40.1667C39.6082 37.3017 39.0926 36.9663 38.8161 36.4232L31.9377 22.9128H54.9256C55.6807 22.9128 56.3777 23.3662 56.7516 24.1006L62.7379 35.8588C63.0655 36.5022 62.6505 37.3017 61.989 37.3017Z" fill="#914DE8"/>
<path d="M41.6309 36.4231L34.7526 22.9127H31.938L38.8164 36.4231C39.0929 36.9662 39.6085 37.3016 40.167 37.3016H42.9816C42.423 37.3017 41.9075 36.9663 41.6309 36.4231Z" fill="#5D14BA"/>
<path d="M2.011 37.3017H23.8333C24.3918 37.3017 24.9074 36.9663 25.1839 36.4232L32.0623 22.9128H9.07438C8.31925 22.9128 7.62225 23.3662 7.24838 24.1006L1.26213 35.8588C0.934503 36.5022 1.3495 37.3017 2.011 37.3017Z" fill="#914DE8"/>
<path d="M3.75018 35.8588L9.73643 24.1006C10.1103 23.3662 10.8073 22.9128 11.5624 22.9128H9.07431C8.31918 22.9128 7.62218 23.3662 7.24831 24.1006L1.26206 35.8588C0.934558 36.5022 1.34956 37.3017 2.01106 37.3017H4.49931C3.83768 37.3017 3.42268 36.5022 3.75018 35.8588Z" fill="#5D14BA"/>
</svg>
