<svg width="31" height="30" viewBox="0 0 31 30" fill="none" xmlns="http://www.w3.org/2000/svg">
<path d="M27.3696 25.054H4.13013V2.47495L16.7881 1.71143L27.3696 2.47495V25.054Z" fill="#B58AEE"/>
<path d="M5.33737 2.47484V25.1034L4.13013 25.0539V2.47484L4.85749 2.10181L5.33737 2.47484Z" fill="#8652CA"/>
<path d="M24.6154 9.78696L6.69946 10.0012V1.90649H24.8004V8.79412L24.6154 9.78696Z" fill="#8652CA"/>
<path d="M24.1018 17.6778L6.69946 17.9626V9.56616H24.8004V16.3201L24.1018 17.6778Z" fill="#8652CA"/>
<path d="M6.69946 8.79419H24.8004V10.0014H6.69946V8.79419ZM6.69946 16.3201H24.8004V17.5274H6.69946V16.3201Z" fill="#B58AEE"/>
<path d="M24.8004 25.5481L6.69946 25.7587V17.5278H24.8004V25.5481Z" fill="#8652CA"/>
<path d="M16.8063 6.23798C16.8063 5.65458 16.3334 5.18164 15.75 5.18164C15.684 5.18164 15.6194 5.18768 15.5568 5.19927C15.0656 5.29005 14.8831 5.72937 14.8831 6.24679C14.8831 6.83019 15.1575 7.11812 15.7409 7.11812C16.2584 7.11812 16.698 6.92218 16.7888 6.43096C16.8003 6.36842 16.8063 6.30389 16.8063 6.23798ZM16.8063 13.6973C16.8063 13.1139 16.3334 12.641 15.75 12.641C15.684 12.641 15.6194 12.647 15.5568 12.6586C15.0657 12.7494 14.8523 13.2468 14.8523 13.7642C14.8523 14.3476 15.1011 14.4926 15.6845 14.4926C16.2019 14.4926 16.6979 14.3816 16.7887 13.8905C16.8003 13.8279 16.8063 13.7633 16.8063 13.6973ZM16.8063 21.2909C16.8063 20.7075 16.3334 20.2345 15.75 20.2345C15.684 20.2345 15.6194 20.2406 15.5568 20.2521C15.0657 20.3429 14.9448 20.7825 14.9448 21.2999C14.9448 21.8833 15.1666 22.1445 15.75 22.1445C16.2674 22.1445 16.6979 21.9752 16.7887 21.4841C16.8003 21.4214 16.8063 21.3568 16.8063 21.2909Z" fill="#DCE6EB"/>
<path d="M16.7882 6.4311C16.6976 6.92244 16.2672 7.29427 15.7499 7.29427C15.1668 7.29427 14.6936 6.82164 14.6936 6.23794C14.6936 5.72063 15.066 5.29025 15.5568 5.19971C15.5447 5.26248 15.5387 5.32707 15.5387 5.39287C15.5387 5.97657 16.0119 6.4492 16.595 6.4492C16.6608 6.4492 16.7254 6.44317 16.7882 6.4311ZM16.7882 13.8907C16.6976 14.382 16.2672 14.7538 15.7499 14.7538C15.1668 14.7538 14.6936 14.2812 14.6936 13.6975C14.6936 13.1802 15.066 12.7498 15.5568 12.6593C15.5447 12.722 15.5387 12.7866 15.5387 12.8524C15.5387 13.4361 16.0119 13.9088 16.595 13.9088C16.6608 13.9088 16.7254 13.9027 16.7882 13.8907ZM16.7882 21.4842C16.6976 21.975 16.2672 22.3474 15.7499 22.3474C15.1668 22.3474 14.6936 21.8742 14.6936 21.2911C14.6936 20.7731 15.066 20.3434 15.5568 20.2528C15.5447 20.3156 15.5387 20.3802 15.5387 20.446C15.5387 21.0291 16.0119 21.5023 16.595 21.5023C16.6608 21.5023 16.7254 21.4963 16.7882 21.4842Z" fill="#C8D2DC"/>
<path d="M26.3436 30H25.1364C24.8032 30 24.5327 29.7296 24.5327 29.3964V29.0379C24.5327 28.2043 23.8573 27.5288 23.0237 27.5288H24.2309C25.0645 27.5288 25.74 28.2043 25.74 29.0379V29.3964C25.74 29.7296 26.0104 30 26.3436 30Z" fill="#9F6E50"/>
<path d="M27.5335 2.2867L3.95369 2.25586C3.42027 2.25586 2.96738 2.04948 2.96738 1.51612L2.92627 1.14332C2.92627 0.60996 3.23472 0 3.76814 0H27.7319C28.2653 0 28.6977 0.432374 28.6977 0.965795V1.26761L28.4376 1.60859C28.4376 2.14195 28.0669 2.2867 27.5335 2.2867Z" fill="#733FB8"/>
<path d="M28.6976 1.26761V1.50905C28.6976 2.04266 28.2654 2.47485 27.7318 2.47485H3.76804C3.23444 2.47485 2.80225 2.04266 2.80225 1.50905V0.965795C2.80225 0.432193 3.23444 0 3.76804 0H4.00949V0.301811C4.00949 0.835412 4.44168 1.26761 4.97528 1.26761H28.6976Z" fill="#591BAB"/>
<path d="M27.3695 25.054H4.13011C3.73009 25.054 3.40576 25.3783 3.40576 25.7783V26.8045C3.40576 27.2045 3.73009 27.5288 4.13011 27.5288V29.3965C4.13011 29.7299 4.40035 30.0001 4.73373 30.0001H6.36351C6.69689 30.0001 6.96713 29.7299 6.96713 29.3965V29.0379C6.96713 28.2044 7.64276 27.5288 8.47618 27.5288H23.0235C23.8569 27.5288 24.5325 28.2044 24.5325 29.0379V29.3965C24.5325 29.7299 24.8028 30.0001 25.1361 30.0001H26.7659C27.0993 30.0001 27.3695 29.7299 27.3695 29.3965V27.6408C27.3695 27.582 27.4117 27.53 27.47 27.5219C27.8225 27.4729 28.0939 27.1704 28.0939 26.8045V25.7783C28.0939 25.3782 27.7696 25.054 27.3695 25.054Z" fill="#8B52D6"/>
<path d="M5.94097 30H4.73373C4.40053 30 4.13011 29.7296 4.13011 29.3964V27.5288C3.72991 27.5288 3.40576 27.2047 3.40576 26.8045V25.7783C3.40576 25.3781 3.72991 25.054 4.13011 25.054H5.33735C4.93715 25.054 4.61301 25.3781 4.61301 25.7783V26.8045C4.61301 27.2047 4.93715 27.5288 5.33735 27.5288V29.3964C5.33735 29.7296 5.60777 30 5.94097 30ZM26.3434 30H25.1361C24.8029 30 24.5325 29.7296 24.5325 29.3964V29.0379C24.5325 28.2043 23.8571 27.5288 23.0235 27.5288H24.2307C25.0643 27.5288 25.7398 28.2043 25.7398 29.0379V29.3964C25.7398 29.7296 26.0102 30 26.3434 30Z" fill="#B58AEE"/>
<path d="M6.69946 23.8467H24.8004V25.0539H6.69946V23.8467Z" fill="#B58AEE"/>
</svg>
