<svg width="73" height="72" viewBox="0 0 73 72" fill="none" xmlns="http://www.w3.org/2000/svg">
<g clipPath="url(#clip0_772_10641)">
<path d="M32.8838 50.9675V71.2757C32.8838 71.3709 32.9025 71.4651 32.9389 71.553C32.9753 71.6409 33.0286 71.7207 33.0959 71.788C33.1632 71.8553 33.243 71.9086 33.3309 71.945C33.4188 71.9814 33.513 72.0001 33.6081 72.0001H39.8274C39.9226 72.0001 40.0168 71.9814 40.1047 71.945C40.1925 71.9086 40.2724 71.8553 40.3397 71.788C40.4069 71.7207 40.4603 71.6409 40.4967 71.553C40.5331 71.4651 40.5518 71.3709 40.5518 71.2757V50.9675H32.8838Z" fill="#8C818F"/>
<path d="M32.8838 52.9363H40.5518V57.1273H32.8838V52.9363Z" fill="#766D78"/>
<path d="M8.12562 40.7765L29.7619 3.97944C32.8817 -1.32648 40.5545 -1.32648 43.6742 3.97944L65.3105 40.7765C68.4736 46.156 64.5947 52.9362 58.3543 52.9362H15.0818C8.8414 52.9362 4.96254 46.156 8.12562 40.7765Z" fill="#DF646E"/>
<path d="M58.3541 49.4091H15.0815C11.0372 49.4091 7.98559 46.5608 7.19922 43.092C6.09306 47.919 9.71331 52.9362 15.0815 52.9362H58.3541C63.7223 52.9362 67.3426 47.919 66.2364 43.092C65.45 46.5608 62.3985 49.4091 58.3541 49.4091Z" fill="#DC4955"/>
<path d="M33.4799 7.33051L12.8755 42.3727C11.4032 44.8767 13.2087 48.0326 16.1134 48.0326H57.3223C60.2271 48.0326 62.0324 44.8767 60.5602 42.3727L39.9557 7.33051C38.5034 4.86086 34.9321 4.86086 33.4799 7.33051Z" fill="#DDEBFD"/>
<path d="M36.8818 41.5076C38.1189 41.4195 39.0503 40.3454 38.9623 39.1083C38.8743 37.8713 37.8001 36.9399 36.5631 37.0279C35.3261 37.1159 34.3946 38.1901 34.4826 39.4271C34.5706 40.6641 35.6448 41.5956 36.8818 41.5076Z" fill="#8C818F"/>
<path d="M33.377 21.2448L34.258 30.4209C34.3797 31.6885 35.4446 32.6561 36.7181 32.6561C37.9915 32.6561 39.0564 31.6885 39.1782 30.4209L40.0592 21.2448C40.2485 19.2734 38.6985 17.5676 36.7181 17.5676C34.7377 17.5676 33.1877 19.2734 33.377 21.2448Z" fill="#8C818F"/>
</g>
<defs>
<clipPath id="clip0_772_10641">
<rect width="72" height="72" fill="white" transform="translate(0.5)"/>
</clipPath>
</defs>
</svg>
