<svg width="64" height="64" viewBox="0 0 64 64" fill="none" xmlns="http://www.w3.org/2000/svg">
<g clipPath="url(#clip0_424_9042)">
<path d="M32 64C49.6731 64 64 49.6731 64 32C64 14.3269 49.6731 0 32 0C14.3269 0 0 14.3269 0 32C0 49.6731 14.3269 64 32 64Z" fill="#BBEC6C"/>
<path d="M32 0C31.351 0 30.7071 0.0216338 30.0676 0.0597505C46.8407 1.05915 59.3138 14.9759 59.3138 32C59.3138 49.0241 46.8407 62.9408 30.0675 63.9403C30.7071 63.9784 31.351 64 32 64C49.6731 64 64 49.6731 64 32C64 14.3269 49.6731 0 32 0Z" fill="#A2E62E"/>
<path d="M32 59.3139C47.085 59.3139 59.3138 47.0851 59.3138 32.0001C59.3138 16.9151 47.085 4.68628 32 4.68628C16.915 4.68628 4.68616 16.9151 4.68616 32.0001C4.68616 47.0851 16.915 59.3139 32 59.3139Z" fill="#4FC123"/>
<path d="M32 4.68628C31.3502 4.68628 30.7061 4.71062 30.0676 4.75517C44.2508 5.74672 55.4491 17.565 55.4491 32.0001C55.4491 46.4354 44.2508 58.2535 30.0676 59.2451C30.7061 59.2897 31.3502 59.3139 32 59.3139C47.0851 59.3139 59.3138 47.0851 59.3138 32.0001C59.3138 16.9152 47.0851 4.68628 32 4.68628Z" fill="#47A920"/>
<path d="M48.5215 26.5077L31.087 43.9436C29.2378 45.7914 26.2426 45.7914 24.3947 43.9436L15.4785 35.0273C14.4535 34.0036 14.4535 32.3424 15.4785 31.3187L18.0771 28.7201V28.7188L18.9579 27.838C19.9817 26.8142 21.6428 26.8142 22.6666 27.838L27.1285 32.2999C27.6076 32.7803 28.3867 32.7803 28.8657 32.2999L41.5897 19.5759C42.6135 18.5522 44.2746 18.5522 45.2984 19.5759L48.5215 22.7991C49.5466 23.8241 49.5466 25.484 48.5215 26.5077Z" fill="#D1F19E"/>
<path d="M28.8657 32.3001L27.3887 33.7771C26.8066 34.3605 25.8627 34.3643 25.2743 33.7861L20.7582 29.3525C20.0332 28.6262 18.9889 28.4176 18.0771 28.7202V28.7189L18.958 27.8381C19.9817 26.8144 21.6429 26.8144 22.6666 27.8381L27.1286 32.3001C27.6076 32.7804 28.3867 32.7804 28.8657 32.3001ZM48.5221 22.7996L45.2987 19.5762C44.2745 18.5521 42.6141 18.5521 41.59 19.5762L40.7566 20.4096C41.5068 20.3397 42.2814 20.5916 42.8557 21.166L44.6572 22.7998C45.6814 23.8239 45.6814 25.4843 44.6572 26.5084L28.6678 42.7078C27.5262 43.8493 25.9464 44.2847 24.4699 44.0158C26.3231 45.7904 29.2632 45.7674 31.0865 43.9441L48.5222 26.5084C49.5462 25.4843 49.5462 23.8238 48.5221 22.7996Z" fill="#BBEC6C"/>
</g>
<defs>
<clipPath id="clip0_424_9042">
<rect width="64" height="64" fill="white"/>
</clipPath>
</defs>
</svg>
