<svg width="76" height="76" viewBox="0 0 76 76" fill="none" xmlns="http://www.w3.org/2000/svg">
<g clipPath="url(#clip0_949_7227)">
<path d="M67.8622 27.9172H37.0825V20.6572H63.5702C63.8443 20.6572 64.1134 20.731 64.3493 20.8707L67.1122 22.5069C67.3407 22.6422 67.53 22.8347 67.6615 23.0654C67.793 23.2961 67.8621 23.5571 67.8621 23.8227V27.9172H67.8622Z" fill="#B054E3"/>
<path d="M42.5433 27.9505C42.3927 27.9505 42.2436 27.9209 42.1044 27.8633C41.9653 27.8056 41.8388 27.7212 41.7323 27.6147C41.6258 27.5082 41.5414 27.3817 41.4837 27.2426C41.4261 27.1034 41.3965 26.9543 41.3965 26.8037V24.7455C41.3965 24.4413 41.5173 24.1496 41.7324 23.9345C41.9475 23.7195 42.2392 23.5986 42.5433 23.5986C42.8475 23.5986 43.1392 23.7195 43.3542 23.9345C43.5693 24.1496 43.6901 24.4413 43.6901 24.7455V26.8037C43.6901 27.1079 43.5693 27.3996 43.3542 27.6146C43.1392 27.8297 42.8475 27.9505 42.5433 27.9505ZM48.8581 27.9505C48.7075 27.9505 48.5584 27.9209 48.4192 27.8633C48.2801 27.8056 48.1537 27.7212 48.0472 27.6147C47.9407 27.5082 47.8562 27.3817 47.7986 27.2426C47.7409 27.1034 47.7113 26.9543 47.7113 26.8037V24.7455C47.7113 24.4413 47.8321 24.1496 48.0472 23.9345C48.2623 23.7195 48.554 23.5986 48.8581 23.5986C49.1623 23.5986 49.454 23.7195 49.6691 23.9345C49.8841 24.1496 50.005 24.4413 50.005 24.7455V26.8037C50.005 26.9543 49.9753 27.1034 49.9177 27.2426C49.8601 27.3817 49.7756 27.5082 49.6691 27.6147C49.5626 27.7212 49.4362 27.8056 49.297 27.8633C49.1579 27.9209 49.0088 27.9505 48.8581 27.9505ZM55.1728 27.9505C55.0222 27.9505 54.8731 27.9209 54.7339 27.8633C54.5948 27.8056 54.4683 27.7212 54.3618 27.6147C54.2554 27.5082 54.1709 27.3817 54.1132 27.2426C54.0556 27.1034 54.026 26.9543 54.026 26.8037V24.7455C54.026 24.4413 54.1468 24.1496 54.3619 23.9345C54.577 23.7195 54.8687 23.5986 55.1728 23.5986C55.477 23.5986 55.7687 23.7195 55.9838 23.9345C56.1988 24.1496 56.3196 24.4413 56.3196 24.7455V26.8037C56.3197 26.9543 56.29 27.1034 56.2324 27.2426C56.1748 27.3817 56.0903 27.5082 55.9838 27.6147C55.8773 27.7212 55.7509 27.8056 55.6117 27.8633C55.4726 27.9209 55.3234 27.9505 55.1728 27.9505ZM61.4876 27.9505C61.337 27.9505 61.1879 27.9209 61.0488 27.8633C60.9096 27.8056 60.7832 27.7212 60.6767 27.6147C60.5702 27.5082 60.4857 27.3817 60.4281 27.2426C60.3704 27.1034 60.3408 26.9543 60.3408 26.8037V24.7455C60.3408 24.4413 60.4616 24.1496 60.6767 23.9345C60.8918 23.7195 61.1835 23.5986 61.4876 23.5986C61.7918 23.5986 62.0835 23.7195 62.2986 23.9345C62.5137 24.1496 62.6345 24.4413 62.6345 24.7455V26.8037C62.6345 26.9543 62.6048 27.1034 62.5472 27.2426C62.4896 27.3817 62.4051 27.5082 62.2986 27.6147C62.1921 27.7212 62.0657 27.8056 61.9265 27.8633C61.7874 27.9209 61.6383 27.9505 61.4876 27.9505Z" fill="#8824C0"/>
<path d="M67.8617 23.8217V27.9168H63.0969V23.8217C63.0969 23.2818 62.8125 22.7819 62.3476 22.5065L59.5844 20.8703C59.3491 20.73 59.0801 20.656 58.8062 20.6563H63.5695C63.8447 20.6563 64.114 20.7296 64.3494 20.8703L67.1126 22.5065C67.3409 22.6418 67.53 22.8343 67.6614 23.0649C67.7927 23.2955 67.8618 23.5563 67.8617 23.8217Z" fill="#7219A5"/>
<path d="M37.9999 27.9167H8.1377V2.10733C8.1377 1.26272 8.82229 0.578125 9.6669 0.578125H36.4707C37.3153 0.578125 37.9999 1.26272 37.9999 2.10733V27.9167Z" fill="#9506E6"/>
<path d="M37.9999 2.10733V27.9167H33.752V5.43634C33.752 4.59217 33.0684 3.90713 32.2228 3.90713H8.13818V2.10733C8.13801 1.90646 8.17744 1.70753 8.25423 1.52192C8.33102 1.33631 8.44365 1.16766 8.58569 1.02563C8.72772 0.883592 8.89637 0.770959 9.08198 0.694171C9.26759 0.617384 9.46652 0.57795 9.66739 0.578126H36.4707C37.3149 0.578274 37.9999 1.26168 37.9999 2.10733Z" fill="#7219A5"/>
<path d="M12.0113 75.4227C10.4987 75.4227 9.27246 74.1964 9.27246 72.6838V66.7656H14.7501V72.6838C14.7501 74.1966 13.5239 75.4227 12.0113 75.4227Z" fill="#59038A"/>
<path d="M9.27246 66.7656H14.7501V72.3688H9.27246V66.7656Z" fill="#9506E6"/>
<path d="M63.9888 75.4227C62.4762 75.4227 61.25 74.1964 61.25 72.6838V66.7656H66.7276V72.6838C66.7276 74.1966 65.5014 75.4227 63.9888 75.4227Z" fill="#59038A"/>
<path d="M61.25 66.7656H66.7276V72.3688H61.25V66.7656Z" fill="#9506E6"/>
<path d="M1.94799 44.912C1.73576 44.9119 1.52773 44.8529 1.34704 44.7416C1.16635 44.6302 1.0201 44.471 0.924551 44.2814C0.829006 44.0919 0.78792 43.8796 0.805866 43.6682C0.823811 43.4567 0.900084 43.2544 1.0262 43.0837L6.22537 36.0446C6.31485 35.9235 6.42733 35.8211 6.55637 35.7434C6.68541 35.6657 6.82849 35.6142 6.97744 35.5918C7.12639 35.5695 7.2783 35.5766 7.42447 35.613C7.57065 35.6493 7.70824 35.7141 7.82938 35.8036C7.95054 35.893 8.05288 36.0055 8.13057 36.1345C8.20826 36.2635 8.25978 36.4066 8.28217 36.5555C8.30457 36.7045 8.29742 36.8564 8.26111 37.0025C8.22481 37.1487 8.16007 37.2863 8.07059 37.4074L2.87142 44.4465C2.76479 44.5911 2.62565 44.7085 2.46524 44.7894C2.30482 44.8702 2.12764 44.9122 1.94799 44.912ZM7.14895 62.1889C6.96931 62.1892 6.79212 62.1472 6.63171 62.0663C6.4713 61.9854 6.33216 61.868 6.22552 61.7234L1.0262 54.6844C0.936719 54.5632 0.87198 54.4256 0.835677 54.2795C0.799375 54.1333 0.792218 53.9814 0.814617 53.8325C0.837016 53.6835 0.888531 53.5405 0.966221 53.4114C1.04391 53.2824 1.14625 53.17 1.26741 53.0805C1.38855 52.991 1.52614 52.9262 1.67232 52.8899C1.8185 52.8536 1.9704 52.8464 2.11935 52.8688C2.2683 52.8912 2.41138 52.9427 2.54042 53.0204C2.66947 53.098 2.78194 53.2004 2.87142 53.3216L8.07059 60.3606C8.16007 60.4818 8.22481 60.6193 8.26111 60.7655C8.29742 60.9117 8.30457 61.0636 8.28217 61.2125C8.25978 61.3614 8.20826 61.5045 8.13057 61.6335C8.05288 61.7625 7.95054 61.875 7.82938 61.9645C7.63254 62.1104 7.39397 62.1891 7.14895 62.1889Z" fill="#9506E6"/>
<path d="M7.24464 54.0035H0.844906C0.620823 54.0035 0.405918 53.9145 0.247467 53.756C0.0890167 53.5976 0 53.3827 0 53.1586L0 44.6105C0 44.3864 0.0890167 44.1715 0.247467 44.0131C0.405918 43.8546 0.620823 43.7656 0.844906 43.7656H7.24464V54.0035Z" fill="#59038A"/>
<path d="M68.8508 62.1889C68.6386 62.1888 68.4306 62.1298 68.2499 62.0185C68.0692 61.9072 67.9229 61.7479 67.8274 61.5584C67.7318 61.3689 67.6908 61.1566 67.7087 60.9451C67.7266 60.7336 67.8029 60.5313 67.929 60.3606L73.1282 53.3216C73.2177 53.2004 73.3301 53.098 73.4592 53.0203C73.5882 52.9426 73.7313 52.8911 73.8803 52.8687C74.0292 52.8463 74.1811 52.8535 74.3273 52.8898C74.4735 52.9262 74.6111 52.991 74.7322 53.0805C74.8534 53.17 74.9557 53.2824 75.0334 53.4114C75.1111 53.5405 75.1626 53.6835 75.185 53.8325C75.2074 53.9814 75.2002 54.1333 75.1639 54.2795C75.1276 54.4256 75.0629 54.5632 74.9734 54.6844L69.7743 61.7234C69.6676 61.868 69.5285 61.9855 69.3681 62.0663C69.2077 62.1472 69.0305 62.1892 68.8508 62.1889ZM74.0518 44.912C73.8721 44.9122 73.695 44.8702 73.5345 44.7894C73.3741 44.7085 73.235 44.591 73.1283 44.4465L67.9292 37.4074C67.8397 37.2863 67.775 37.1487 67.7387 37.0025C67.7024 36.8564 67.6952 36.7045 67.7176 36.5555C67.74 36.4066 67.7915 36.2635 67.8692 36.1345C67.9469 36.0055 68.0492 35.893 68.1704 35.8036C68.2915 35.7141 68.4291 35.6493 68.5753 35.613C68.7215 35.5766 68.8734 35.5695 69.0223 35.5918C69.1713 35.6142 69.3144 35.6657 69.4434 35.7434C69.5724 35.8211 69.6849 35.9235 69.7744 36.0446L74.9736 43.0837C75.0997 43.2544 75.176 43.4567 75.1939 43.6682C75.2119 43.8796 75.1708 44.0919 75.0752 44.2814C74.9797 44.471 74.8334 44.6302 74.6527 44.7416C74.472 44.8529 74.264 44.9119 74.0518 44.912Z" fill="#9B55C3"/>
<path d="M68.7554 54.0035H75.1551C75.3792 54.0035 75.5941 53.9145 75.7525 53.756C75.911 53.5976 76 53.3827 76 53.1586V44.6105C76 44.3864 75.911 44.1715 75.7525 44.0131C75.5941 43.8546 75.3792 43.7656 75.1551 43.7656H68.7554V54.0035Z" fill="#59038A"/>
<path d="M6.23047 31.3291H69.7867V45.1776H6.23047V31.3291ZM6.23047 49.44H69.7867V56.544H6.23047V49.44ZM21.1017 60.6774H6.23047V67.566C6.23047 68.4106 6.91506 69.0952 7.75967 69.0952H21.1017V60.6774ZM29.7559 60.6774V69.0952H68.2576C69.1021 69.0952 69.7868 68.4106 69.7868 67.566V60.6774H29.7559Z" fill="#9506E6"/>
<path d="M64.9976 33.3877C64.847 33.3877 64.6979 33.4173 64.5587 33.475C64.4196 33.5326 64.2932 33.6171 64.1867 33.7236C64.0802 33.83 63.9957 33.9565 63.9381 34.0956C63.8804 34.2348 63.8508 34.3839 63.8508 34.5345V38.5083H12.1491V34.5345C12.1491 34.2304 12.0283 33.9387 11.8132 33.7236C11.5982 33.5085 11.3065 33.3877 11.0023 33.3877C10.6981 33.3877 10.4064 33.5085 10.1914 33.7236C9.9763 33.9387 9.85547 34.2304 9.85547 34.5345V41.0315C9.85547 41.3356 9.9763 41.6273 10.1914 41.8424C10.4064 42.0575 10.6981 42.1783 11.0023 42.1783C11.3065 42.1783 11.5982 42.0575 11.8132 41.8424C12.0283 41.6273 12.1491 41.3356 12.1491 41.0315V40.8021H63.8508V41.0315C63.8508 41.3356 63.9716 41.6273 64.1867 41.8424C64.4018 42.0575 64.6935 42.1783 64.9976 42.1783C65.3018 42.1783 65.5935 42.0575 65.8086 41.8424C66.0236 41.6273 66.1445 41.3356 66.1445 41.0315V34.5345C66.1445 34.3839 66.1148 34.2348 66.0572 34.0956C65.9996 33.9565 65.9151 33.83 65.8086 33.7236C65.7021 33.6171 65.5757 33.5326 65.4365 33.475C65.2974 33.4173 65.1482 33.3877 64.9976 33.3877Z" fill="#BB78E1"/>
<path d="M19.5947 61.7627H31.2885V69.0952H19.5947V61.7627Z" fill="#9435CA"/>
<path d="M27.3018 61.7627H31.2885V69.0952H27.3018V61.7627Z" fill="#A65CD0"/>
<path d="M64.9975 39.0679V45.1776H69.7868V31.3291L6.23047 31.3292V36.1259H62.0553C63.6802 36.1259 64.9975 37.4431 64.9975 39.0679ZM64.9975 49.4401H69.7868V56.5442H64.9975V49.4401ZM64.9975 60.6776V67.5659C64.9975 68.4101 64.3124 69.0952 63.4683 69.0952H68.2576C69.1022 69.0952 69.7868 68.4106 69.7868 67.5659V60.6776H64.9975Z" fill="#9506E6"/>
<path d="M64.9976 38.9304H11.0023C10.6981 38.9304 10.4064 38.8096 10.1914 38.5945C9.9763 38.3794 9.85547 38.0877 9.85547 37.7835C9.85547 37.4794 9.9763 37.1877 10.1914 36.9726C10.4064 36.7575 10.6981 36.6367 11.0023 36.6367H64.9978C65.1484 36.6367 65.2975 36.6664 65.4366 36.724C65.5758 36.7817 65.7022 36.8662 65.8087 36.9727C65.9152 37.0792 65.9996 37.2056 66.0573 37.3447C66.1149 37.4839 66.1445 37.633 66.1445 37.7836C66.1445 37.9342 66.1148 38.0834 66.0572 38.2225C65.9996 38.3616 65.9151 38.488 65.8086 38.5945C65.7021 38.701 65.5756 38.7855 65.4365 38.8431C65.2974 38.9007 65.1482 38.9304 64.9976 38.9304Z" fill="#9B55C3"/>
<path d="M66.1447 32.6634V39.1594C66.1446 39.4635 66.0237 39.7551 65.8087 39.9701C65.5936 40.1851 65.302 40.306 64.9979 40.3062C64.6938 40.3061 64.4021 40.1852 64.1871 39.9702C63.9721 39.7551 63.8512 39.4635 63.8511 39.1594V32.6634C63.851 32.5128 63.8806 32.3636 63.9382 32.2245C63.9958 32.0853 64.0803 31.9588 64.1868 31.8523C64.2933 31.7458 64.4198 31.6613 64.5589 31.6037C64.6981 31.5461 64.8473 31.5165 64.9979 31.5166C65.1485 31.5165 65.2977 31.5461 65.4369 31.6037C65.5761 31.6613 65.7025 31.7458 65.809 31.8523C65.9156 31.9588 66 32.0853 66.0576 32.2244C66.1152 32.3636 66.1448 32.5128 66.1447 32.6634Z" fill="#B054E3"/>
<path d="M66.1444 32.6634V36.1254H63.8506V32.6634C63.8505 32.5128 63.8801 32.3636 63.9377 32.2245C63.9953 32.0853 64.0798 31.9588 64.1863 31.8523C64.2928 31.7458 64.4193 31.6613 64.5585 31.6037C64.6976 31.5461 64.8468 31.5165 64.9974 31.5166C65.148 31.5165 65.2972 31.5461 65.4364 31.6037C65.5756 31.6613 65.7021 31.7458 65.8086 31.8523C65.9151 31.9588 65.9996 32.0852 66.0572 32.2244C66.1149 32.3636 66.1445 32.5128 66.1444 32.6634Z" fill="#9506E6"/>
<path d="M12.1491 32.6634V39.1594C12.1491 39.7924 11.6354 40.3062 11.0023 40.3062C10.3692 40.3062 9.85547 39.7924 9.85547 39.1594V32.6634C9.85541 32.5128 9.88503 32.3637 9.94265 32.2245C10.0003 32.0853 10.0847 31.9589 10.1912 31.8524C10.2977 31.7459 10.4242 31.6614 10.5634 31.6038C10.7025 31.5462 10.8517 31.5165 11.0023 31.5166C11.1529 31.5165 11.3021 31.5461 11.4413 31.6037C11.5805 31.6613 11.707 31.7457 11.8135 31.8522C11.92 31.9588 12.0045 32.0852 12.0621 32.2244C12.1197 32.3636 12.1492 32.5128 12.1491 32.6634Z" fill="#B054E3"/>
<path d="M12.1493 32.6634V36.1254H9.85547V32.6634C9.85541 32.5128 9.88504 32.3637 9.94265 32.2245C10.0003 32.0853 10.0847 31.9589 10.1912 31.8524C10.2977 31.7459 10.4242 31.6614 10.5634 31.6038C10.7025 31.5462 10.8517 31.5165 11.0023 31.5166C11.1529 31.5165 11.3021 31.5461 11.4413 31.6037C11.5805 31.6612 11.707 31.7457 11.8135 31.8522C11.9201 31.9587 12.0046 32.0852 12.0622 32.2244C12.1198 32.3636 12.1494 32.5128 12.1493 32.6634Z" fill="#9506E6"/>
<path d="M6.23145 44.1631H69.7686V50.3532H6.23145V44.1631Z" fill="#BA44FD"/>
<path d="M69.5968 44.0592H69.596V44.0586L6.05811 44.0592V47.5837H62.5313C63.7981 47.5837 64.8251 48.6106 64.8251 49.8775V50.2489H69.5962L69.5968 44.0592Z" fill="#9506E6"/>
<path d="M6.23145 55.5723H69.7686V61.7624H6.23145V55.5723Z" fill="#BA44FD"/>
<path d="M69.7691 55.5723H6.23047V59.0968H62.7037C63.9704 59.0968 64.9975 60.1237 64.9975 61.3906V61.7626H69.7686L69.7691 55.5723Z" fill="#9506E6"/>
<path d="M70.125 32.6628H5.892C5.04739 32.6628 4.36279 31.9782 4.36279 31.1336V28.3329C4.36279 27.4883 5.04739 26.8037 5.892 26.8037H70.125C70.9697 26.8037 71.6543 27.4883 71.6543 28.3329V31.1336C71.6543 31.9781 70.9695 32.6628 70.125 32.6628Z" fill="#59038A"/>
<path d="M71.6543 28.3329V31.1329C71.6545 31.3338 71.615 31.5327 71.5382 31.7183C71.4614 31.9039 71.3488 32.0726 71.2068 32.2146C71.0647 32.3566 70.8961 32.4693 70.7105 32.546C70.5249 32.6228 70.3259 32.6623 70.1251 32.6621H65.6997C65.9006 32.6623 66.0995 32.6228 66.2851 32.546C66.4707 32.4693 66.6394 32.3566 66.7814 32.2146C66.9234 32.0726 67.0361 31.9039 67.1129 31.7183C67.1897 31.5327 67.2291 31.3338 67.2289 31.1329V28.3329C67.2289 27.4888 66.5454 26.8037 65.6997 26.8037H70.1251C70.9707 26.8037 71.6543 27.4888 71.6543 28.3329Z" fill="#AD26FA"/>
<path d="M14.638 23.3275C14.4874 23.3275 14.3383 23.2978 14.1991 23.2402C14.06 23.1826 13.9336 23.0981 13.8271 22.9916C13.7206 22.8851 13.6361 22.7587 13.5785 22.6195C13.5208 22.4804 13.4912 22.3313 13.4912 22.1807V6.50327C13.4912 6.19912 13.612 5.90742 13.8271 5.69234C14.0422 5.47727 14.3339 5.35645 14.638 5.35645C14.9422 5.35645 15.2339 5.47727 15.449 5.69234C15.664 5.90742 15.7849 6.19912 15.7849 6.50327V22.1807C15.7849 22.4848 15.664 22.7765 15.449 22.9916C15.2339 23.2067 14.9422 23.3275 14.638 23.3275ZM20.1446 23.3275C19.994 23.3275 19.8449 23.2978 19.7057 23.2402C19.5666 23.1826 19.4401 23.0981 19.3337 22.9916C19.2272 22.8851 19.1427 22.7587 19.0851 22.6195C19.0274 22.4804 18.9978 22.3313 18.9978 22.1807V6.50327C18.9978 6.19912 19.1186 5.90742 19.3337 5.69234C19.5488 5.47727 19.8405 5.35645 20.1446 5.35645C20.4488 5.35645 20.7405 5.47727 20.9556 5.69234C21.1706 5.90742 21.2915 6.19912 21.2915 6.50327V22.1807C21.2915 22.3313 21.2618 22.4804 21.2042 22.6195C21.1466 22.7587 21.0621 22.8851 20.9556 22.9916C20.8491 23.0981 20.7227 23.1826 20.5835 23.2402C20.4444 23.2978 20.2952 23.3275 20.1446 23.3275ZM25.6515 23.3275C25.5009 23.3275 25.3518 23.2978 25.2126 23.2402C25.0735 23.1826 24.947 23.0981 24.8405 22.9916C24.734 22.8851 24.6496 22.7587 24.5919 22.6195C24.5343 22.4804 24.5047 22.3313 24.5047 22.1807V6.50327C24.5047 6.19912 24.6255 5.90742 24.8406 5.69234C25.0557 5.47727 25.3474 5.35645 25.6515 5.35645C25.9557 5.35645 26.2474 5.47727 26.4624 5.69234C26.6775 5.90742 26.7983 6.19912 26.7983 6.50327V22.1807C26.7983 22.4848 26.6775 22.7765 26.4624 22.9916C26.2474 23.2067 25.9557 23.3275 25.6515 23.3275ZM31.1582 23.3275C31.0076 23.3275 30.8585 23.2978 30.7194 23.2402C30.5802 23.1826 30.4538 23.0981 30.3473 22.9916C30.2408 22.8851 30.1563 22.7587 30.0987 22.6195C30.041 22.4804 30.0114 22.3313 30.0114 22.1807V6.50327C30.0114 6.19912 30.1322 5.90742 30.3473 5.69234C30.5624 5.47727 30.8541 5.35645 31.1582 5.35645C31.4624 5.35645 31.7541 5.47727 31.9692 5.69234C32.1842 5.90742 32.3051 6.19912 32.3051 6.50327V22.1807C32.3051 22.3313 32.2754 22.4804 32.2178 22.6195C32.1602 22.7587 32.0757 22.8851 31.9692 22.9916C31.8627 23.0981 31.7363 23.1826 31.5971 23.2402C31.458 23.2978 31.3089 23.3275 31.1582 23.3275Z" fill="#C684EB"/>
</g>
<defs>
<clipPath id="clip0_949_7227">
<rect width="76" height="76" fill="white"/>
</clipPath>
</defs>
</svg>
