<svg width="76" height="76" viewBox="0 0 76 76" fill="none" xmlns="http://www.w3.org/2000/svg">
<g clipPath="url(#clip0_949_7268)">
<path d="M46.5805 75.9998H29.4193L28.1934 55.1611H47.8064L46.5805 75.9998Z" fill="#7C12B8"/>
<path d="M28.6185 62.8119C31.1649 64.9231 34.4337 66.1933 37.9999 66.1933C41.5661 66.1933 44.8348 64.9231 47.3813 62.8119L47.8063 55.1611H28.1934L28.6185 62.8119Z" fill="#9506E6"/>
<path d="M26.9678 44.1289V50.2579C26.9678 56.3508 31.907 61.2902 38.0001 61.2902C44.0932 61.2902 49.0324 56.351 49.0324 50.2579V44.1289H26.9678Z" fill="#F4AA73"/>
<path d="M26.9678 50.258C26.9678 54.0825 28.915 57.4507 31.871 59.43V53.5992C31.871 52.0451 33.2903 50.9245 34.82 51.1994C35.8694 51.3885 36.9336 51.4837 37.9999 51.484C42.1452 51.484 45.9569 50.0958 49.0323 47.7815V44.1289H26.9678V50.258Z" fill="#E29A6C"/>
<path d="M50.2583 56.3867L62.0855 59.7663C65.2428 60.6685 67.4196 63.5545 67.4196 66.8381V72.3221C67.4196 74.353 65.7731 75.9995 63.7422 75.9995H51.4841L50.2583 56.3867Z" fill="#9506E6"/>
<path d="M59.0604 53.1177C60.2092 54.1707 60.0968 56.0141 58.8289 56.9199L54.4261 60.0648L56.3206 63.7085C56.7141 64.4655 56.9033 65.3119 56.8696 66.1644C56.8359 67.0168 56.5803 67.8457 56.1282 68.5691L51.4838 76.0004H46.5806V41.6777L59.0604 53.1177Z" fill="#BA44FD"/>
<path d="M13.9148 61.2439C10.7575 62.1461 9.49609 65.032 9.49609 68.3157V72.3227L11.0324 75.7909C11.4262 75.9298 11.8407 76.0006 12.2582 76.0001H24.5163L25.7421 57.8643L13.9148 61.2439Z" fill="#9506E6"/>
<path d="M8.58057 66.8382V72.3222C8.58057 73.921 9.60716 75.2841 11.0322 75.7906V66.8384C11.0322 64.6609 12.495 62.7222 14.5887 62.1237L25.5893 58.9799L25.7419 56.3867L13.9147 59.7663C10.7574 60.6685 8.58057 63.5545 8.58057 66.8382Z" fill="#7C12B8"/>
<path d="M16.9396 53.1177C15.7908 54.1707 15.9032 56.0141 17.1712 56.9199L21.574 60.0648L19.6795 63.7085C19.2859 64.4655 19.0967 65.3119 19.1304 66.1644C19.1642 67.0168 19.4197 67.8457 19.8718 68.5691L24.5163 76.0004H29.4195V41.6777L16.9396 53.1177Z" fill="#BA44FD"/>
<path d="M19.6128 19.6133H25.7418V29.4198H19.6128V19.6133Z" fill="#4E3D4D"/>
<path d="M50.2583 19.6133H56.3873V29.4198H50.2583V19.6133Z" fill="#615260"/>
<path d="M55.5994 28.1935H53.9354C52.5814 28.1935 51.4838 27.0958 51.4838 25.7419V23.2904L50.0535 21.9492L25.4868 22.6585V25.7419C25.4868 27.096 23.1655 34.3225 23.1655 34.3225C23.7934 42.5488 29.6128 48.9378 37.9999 48.9378C38.842 48.9378 39.6685 48.9669 40.475 48.841C47.7013 47.7129 53.3086 41.723 53.8734 34.3227H55.774C57.5708 34.3227 59.0063 32.7764 58.8226 30.942C58.6632 29.3469 57.2024 28.1935 55.5994 28.1935Z" fill="#FBBD80"/>
<path d="M26.9677 33.097V25.7423C26.9677 24.3882 28.0653 23.2907 29.4192 23.2907H51.4837V19.6133H24.5161V25.7423C24.5161 27.0963 23.4184 28.1939 22.0645 28.1939H20.4005C18.7975 28.1939 17.3367 29.3472 17.177 30.9422C16.9932 32.7766 18.4288 34.3228 20.2256 34.3228H22.1262C22.7541 42.5491 29.6127 49.0326 37.9998 49.0326C38.8383 49.0326 39.6717 48.9662 40.4749 48.8414C32.8375 47.6626 26.9677 41.0647 26.9677 33.097Z" fill="#F4AA73"/>
<path d="M30.6452 31.8717C30.4842 31.8718 30.3248 31.8401 30.1761 31.7785C30.0274 31.7169 29.8922 31.6266 29.7784 31.5128C29.6645 31.399 29.5743 31.2638 29.5127 31.1151C29.4511 30.9663 29.4194 30.8069 29.4194 30.6459V29.4201C29.4194 28.7433 29.9678 28.1943 30.6452 28.1943C31.3227 28.1943 31.871 28.7433 31.871 29.4201V30.6459C31.8711 30.8069 31.8394 30.9663 31.7778 31.1151C31.7162 31.2638 31.6259 31.399 31.5121 31.5128C31.3983 31.6266 31.2631 31.7169 31.1144 31.7785C30.9656 31.8401 30.8062 31.8718 30.6452 31.8717ZM45.3548 31.8717C45.1938 31.8718 45.0344 31.8401 44.8857 31.7785C44.7369 31.7169 44.6018 31.6266 44.4879 31.5128C44.3741 31.399 44.2838 31.2638 44.2222 31.1151C44.1606 30.9663 44.129 30.8069 44.129 30.6459V29.4201C44.129 29.2591 44.1606 29.0997 44.2222 28.951C44.2838 28.8023 44.3741 28.6671 44.4879 28.5533C44.6018 28.4394 44.7369 28.3492 44.8857 28.2876C45.0344 28.226 45.1938 28.1943 45.3548 28.1943C45.5158 28.1943 45.6752 28.226 45.8239 28.2876C45.9727 28.3492 46.1078 28.4394 46.2217 28.5533C46.3355 28.6671 46.4258 28.8023 46.4874 28.951C46.5489 29.0997 46.5806 29.2591 46.5806 29.4201V30.6459C46.5806 30.8069 46.5489 30.9663 46.4874 31.1151C46.4258 31.2638 46.3355 31.399 46.2217 31.5128C46.1078 31.6266 45.9727 31.7169 45.8239 31.7785C45.6752 31.8401 45.5158 31.8718 45.3548 31.8717Z" fill="#4E3D4D"/>
<path d="M38 40.4518C36.1613 40.4518 34.4638 39.8616 33.4618 38.8729C32.9794 38.3976 32.9746 37.6214 33.4498 37.1396C33.9251 36.6572 34.7032 36.6524 35.1831 37.1276C35.5913 37.5304 36.5741 38.0002 37.9998 38.0002C39.4256 38.0002 40.4084 37.5304 40.8166 37.1276C41.2966 36.6523 42.0747 36.6572 42.5499 37.1396C43.0252 37.6214 43.0203 38.3978 42.5379 38.8729C41.5362 39.8616 39.8387 40.4518 38 40.4518Z" fill="#E29A6C"/>
<path d="M31.8712 26.9682H29.4196C28.742 26.9682 28.1938 26.4193 28.1938 25.7424C28.1938 25.0655 28.7422 24.5166 29.4196 24.5166H31.8712C32.5489 24.5166 33.097 25.0655 33.097 25.7424C33.097 26.4193 32.5487 26.9682 31.8712 26.9682ZM46.5808 26.9682H44.1292C43.4516 26.9682 42.9034 26.4193 42.9034 25.7424C42.9034 25.0655 43.4517 24.5166 44.1292 24.5166H46.5808C47.2584 24.5166 47.8066 25.0655 47.8066 25.7424C47.8066 26.4193 47.2584 26.9682 46.5808 26.9682Z" fill="#615260"/>
<path d="M52.7099 7.45453V4.90274C52.7096 3.54884 51.6121 2.45159 50.2582 2.45159L47.8063 3.80178C45.9385 2.94337 43.8675 2.45159 41.6773 2.45159H40.4515V1.2258C40.4515 0.900695 40.3224 0.588909 40.0925 0.359028C39.8626 0.129146 39.5508 0 39.2257 0L37.9999 0L35.5483 2.45159H34.3225C33.5007 2.45145 32.6804 2.52107 31.8703 2.6597L28.1935 3.80178V3.67739C28.1935 3.35229 28.0644 3.0405 27.8345 2.81062C27.6046 2.58074 27.2928 2.45159 26.9677 2.45159H25.7417L22.8433 13.8247L28.3884 19.6129H56.387V17.1613C56.387 13.437 54.9919 10.046 52.7099 7.45453Z" fill="#59038A"/>
<path d="M28.1935 3.80178V6.12898C28.1935 6.45409 28.0644 6.76587 27.8345 6.99575C27.6046 7.22564 27.2928 7.35478 26.9677 7.35478C26.6426 7.35478 26.3308 7.22564 26.101 6.99575C25.8711 6.76587 25.7419 6.45409 25.7419 6.12898V2.45159H25.7416C24.3879 2.45159 23.2902 3.54899 23.29 4.90289L23.2899 7.45468C21.0081 10.0461 19.6128 13.437 19.6128 17.1613V19.6129H31.8709V2.6597C30.6007 2.87895 29.3645 3.26288 28.1935 3.80178ZM36.7743 6.12898C36.6133 6.12898 36.4539 6.09728 36.3052 6.03568C36.1564 5.97407 36.0213 5.88378 35.9075 5.76996C35.7937 5.65613 35.7034 5.521 35.6418 5.37228C35.5802 5.22356 35.5485 5.06416 35.5485 4.90319V1.2258C35.5485 1.06482 35.5802 0.905425 35.6418 0.756705C35.7034 0.607984 35.7937 0.472853 35.9075 0.359028C36.0213 0.245202 36.1564 0.15491 36.3052 0.0933082C36.4539 0.0317062 36.6133 0 36.7743 0L38 0V4.90319C38 5.22829 37.8709 5.54008 37.641 5.76996C37.4111 5.99984 37.0994 6.12898 36.7743 6.12898ZM49.0324 7.35478C48.7073 7.35478 48.3955 7.22564 48.1656 6.99575C47.9357 6.76587 47.8066 6.45409 47.8066 6.12898V3.67739C47.8066 3.35229 47.9357 3.0405 48.1656 2.81062C48.3955 2.58074 48.7073 2.45159 49.0324 2.45159H50.2582V6.12898C50.2582 6.45409 50.129 6.76587 49.8991 6.99575C49.6693 7.22564 49.3575 7.35478 49.0324 7.35478Z" fill="#9506E6"/>
<path d="M34.3225 13.4838H20.8386C20.161 13.4838 19.6128 12.9349 19.6128 12.258C19.6128 11.5811 20.1611 11.0322 20.8386 11.0322H34.3225C35.0001 11.0322 35.5483 11.5811 35.5483 12.258C35.5483 12.9349 35 13.4838 34.3225 13.4838Z" fill="#4E3D4D"/>
<path d="M55.1614 13.4838H41.6775C40.9998 13.4838 40.4517 12.9349 40.4517 12.258C40.4517 11.5811 41 11.0322 41.6775 11.0322H55.1614C55.839 11.0322 56.3872 11.5811 56.3872 12.258C56.3872 12.9349 55.8388 13.4838 55.1614 13.4838Z" fill="#615260"/>
<path d="M38.0018 15.9355C30.0385 15.9355 22.8308 17.2746 17.608 19.439C16.8758 19.7424 17.106 20.8387 17.8985 20.8387H58.1052C58.8978 20.8387 59.1279 19.7424 58.3957 19.439C53.1729 17.2746 45.9652 15.9355 38.0018 15.9355Z" fill="#59038A"/>
<path d="M37.9999 17.1609C40.7078 17.1609 42.9031 14.9656 42.9031 12.2577C42.9031 9.54972 40.7078 7.35449 37.9999 7.35449C35.2919 7.35449 33.0967 9.54972 33.0967 12.2577C33.0967 14.9656 35.2919 17.1609 37.9999 17.1609Z" fill="#615260"/>
<path d="M37.9999 14.7098C39.3539 14.7098 40.4515 13.6122 40.4515 12.2582C40.4515 10.9043 39.3539 9.80664 37.9999 9.80664C36.646 9.80664 35.5483 10.9043 35.5483 12.2582C35.5483 13.6122 36.646 14.7098 37.9999 14.7098Z" fill="white"/>
</g>
<defs>
<clipPath id="clip0_949_7268">
<rect width="76" height="76" fill="white"/>
</clipPath>
</defs>
</svg>
