<svg width="56" height="56" viewBox="0 0 56 56" fill="none" xmlns="http://www.w3.org/2000/svg">
<path d="M34.4116 44.0142L32.5162 45.1614V46.9678C32.5162 47.9654 31.7074 48.7743 30.7098 48.7743H25.2905C24.2929 48.7743 23.484 47.9654 23.484 46.9678V45.1614L20.5859 44.2517V52.3871H36.1292V45.1613L34.4116 44.0142Z" fill="#5D14BA"/>
<path d="M32.516 42.4517H36.1289V45.1613H32.516V42.4517ZM19.8708 42.4517V52.3872H21.6773V46.9679C21.6773 45.9701 22.4861 45.1614 23.4837 45.1614V42.4518H19.8708V42.4517Z" fill="#B77FFD"/>
<path d="M53.2904 2.70972H2.70969C2.39305 2.70972 2.0891 2.76408 1.80669 2.86383L0.81958 5.41937V39.7419C0.81958 41.2384 2.03277 42.4516 3.52924 42.4516H53.2904C54.7868 42.4516 56 41.2384 56 39.7419V5.41937C56 3.9229 54.7868 2.70972 53.2904 2.70972Z" fill="#914DE8"/>
<path d="M1.80644 2.86328C0.756438 3.23658 0 4.24141 0 5.41948V39.742C0 40.9201 0.756438 41.1228 1.80644 41.4961V2.86328Z" fill="#5D14BA"/>
<path d="M52.387 40.6453H3.61279V7.22597C3.61279 6.98642 3.70795 6.75669 3.87734 6.5873C4.04673 6.41791 4.27646 6.32275 4.51601 6.32275H51.4838C51.7234 6.32275 51.9531 6.41791 52.1225 6.5873C52.2919 6.75669 52.387 6.98642 52.387 7.22597V40.6453Z" fill="#CCA4FF"/>
<path d="M46.9677 37.9356H9.03231C7.03698 37.9356 5.41943 36.318 5.41943 34.3227V11.742C5.41943 9.7467 7.03698 8.12915 9.03231 8.12915H46.9678C48.9632 8.12915 50.5807 9.7467 50.5807 11.742V34.3227C50.5807 36.318 48.9632 37.9356 46.9677 37.9356Z" fill="#CCA4FF"/>
<path d="M39.7421 53.2903H16.2582C15.7589 53.2903 15.3549 52.8863 15.3549 52.3871C15.3549 51.8879 15.759 51.4839 16.2582 51.4839H39.7421C40.2414 51.4839 40.6453 51.8879 40.6453 52.3871C40.6453 52.8863 40.2413 53.2903 39.7421 53.2903ZM1.80655 39.7419H0.724609C0.724609 41.2384 1.9378 42.4516 3.43427 42.4516H53.2903L55.845 41.5484C55.9477 41.2583 56.0001 40.9529 56 40.6452V39.7419H1.80655Z" fill="#914DE8"/>
<path d="M1.80644 39.7419H0V40.6452C0 42.1416 1.21319 43.3548 2.70966 43.3548H53.2903C54.4684 43.3548 55.4717 42.5984 55.845 41.5484H3.61288C2.61527 41.5484 1.80644 40.7396 1.80644 39.7419Z" fill="#5D14BA"/>
<path d="M16.8049 11.742C16.9896 11.7425 17.1696 11.7994 17.3211 11.905C17.4726 12.0106 17.5882 12.1599 17.6526 12.3329L18.838 15.6671L20.8937 16.0004L19.3478 11.7081C18.9561 10.6478 17.9348 9.93555 16.8048 9.93555C16.3055 9.93555 15.9016 10.34 15.9016 10.8388C15.9016 11.3375 16.3058 11.742 16.8049 11.742Z" fill="#B77FFD"/>
<path d="M15.3549 9.93555C14.8556 9.93555 14.4517 10.34 14.4517 10.8388C14.4517 11.3375 14.8557 11.742 15.3549 11.742H16.805V9.93555H15.3549Z" fill="#5D14BA"/>
<path d="M37.8335 32.5161H21.2905L24.9795 25.753L23.4985 24.6956L18.976 32.9867C18.901 33.1243 18.8631 33.2789 18.8659 33.4356C18.8686 33.5922 18.9121 33.7454 18.9919 33.8802C19.072 34.0149 19.1858 34.1265 19.322 34.2041C19.4582 34.2816 19.6122 34.3224 19.769 34.3225H37.8335C38.3328 34.3225 38.7367 33.9181 38.7367 33.4193C38.7367 32.9206 38.3328 32.5161 37.8335 32.5161Z" fill="#B77FFD"/>
<path d="M37.8333 35.2259C38.831 35.2259 39.6397 34.4171 39.6397 33.4195C39.6397 32.4218 38.831 31.613 37.8333 31.613C36.8356 31.613 36.0269 32.4218 36.0269 33.4195C36.0269 34.4171 36.8356 35.2259 37.8333 35.2259Z" fill="#5D14BA"/>
<path d="M19.7688 35.2259C20.7665 35.2259 21.5753 34.4171 21.5753 33.4195C21.5753 32.4218 20.7665 31.613 19.7688 31.613C18.7712 31.613 17.9624 32.4218 17.9624 33.4195C17.9624 34.4171 18.7712 35.2259 19.7688 35.2259Z" fill="#5D14BA"/>
<path d="M38.7365 14.4517H20.3155L19.4814 15.6671L22.9912 25.1936C23.591 26.8218 24.6202 27.1767 26.3318 26.8914L37.3755 25.0508L39.6141 23.3678C39.6309 23.2456 39.6397 23.1212 39.6397 22.9948V15.3548C39.6397 15.2362 39.6163 15.1187 39.5709 15.0091C39.5255 14.8996 39.459 14.8 39.3751 14.7161C39.2913 14.6323 39.1917 14.5658 39.0821 14.5204C38.9725 14.475 38.8551 14.4516 38.7365 14.4517ZM26.0913 22.6398C26.0913 23.1386 25.6873 23.543 25.1881 23.543C24.6889 23.543 24.2849 23.1386 24.2849 22.6398V18.0645C24.2849 17.5658 24.6889 17.1613 25.1881 17.1613C25.6873 17.1613 26.0913 17.5658 26.0913 18.0645V22.6398ZM29.7043 23.1179C29.7043 23.6166 29.3003 24.0211 28.8011 24.0211C28.3019 24.0211 27.8979 23.6166 27.8979 23.1179V18.0645C27.8979 17.5658 28.3019 17.1613 28.8011 17.1613C29.3003 17.1613 29.7043 17.5658 29.7043 18.0645V23.1179ZM33.3172 22.4559C33.3172 22.9547 32.9131 23.3592 32.4139 23.3592C31.9148 23.3592 31.5107 22.9547 31.5107 22.4559V18.0646C31.5107 17.5659 31.9148 17.1614 32.4139 17.1614C32.9131 17.1614 33.3172 17.5659 33.3172 18.0646V22.4559ZM36.93 21.9408C36.9301 22.0594 36.9067 22.1769 36.8613 22.2865C36.816 22.3961 36.7494 22.4956 36.6656 22.5795C36.5817 22.6634 36.4821 22.7299 36.3725 22.7753C36.2629 22.8207 36.1454 22.844 36.0268 22.844C35.9082 22.844 35.7907 22.8207 35.6811 22.7753C35.5715 22.7299 35.472 22.6634 35.3881 22.5795C35.3042 22.4956 35.2377 22.3961 35.1923 22.2865C35.1469 22.1769 35.1236 22.0594 35.1236 21.9408V18.0645C35.1236 17.9459 35.1469 17.8285 35.1923 17.7189C35.2377 17.6093 35.3042 17.5097 35.3881 17.4258C35.472 17.3419 35.5715 17.2754 35.6811 17.23C35.7907 17.1846 35.9082 17.1613 36.0268 17.1613C36.1454 17.1613 36.2629 17.1846 36.3725 17.23C36.4821 17.2754 36.5817 17.3419 36.6656 17.4258C36.7494 17.5097 36.816 17.6093 36.8613 17.7189C36.9067 17.8285 36.9301 17.9459 36.93 18.0645V21.9408Z" fill="#B77FFD"/>
<path d="M26.0349 25.7266C25.1855 25.8677 24.3431 25.383 24.0432 24.5693L20.3155 14.4517H19.6855C19.0572 14.4517 18.6207 15.0774 18.838 15.6671L22.3477 25.1936C22.9475 26.8218 24.6202 27.7936 26.3318 27.5083L37.3755 25.6676C38.5559 25.4709 39.4521 24.5246 39.6141 23.3678L26.0349 25.7266Z" fill="#5D14BA"/>
</svg>
