<svg width="32" height="32" viewBox="0 0 32 32" fill="none" xmlns="http://www.w3.org/2000/svg">
<path d="M31.9987 24.6334H0.00146484V16.7837L31.9995 16.7838L31.9987 24.6334Z" fill="#430F86"/>
<path d="M31.9985 14.22H29.4231L29.4233 20.4806C29.4234 22.233 28.5015 23.7702 27.1162 24.6334H31.9985V14.22Z" fill="#6F28CA"/>
<path d="M31.9986 14.2201V16.7839L31.9994 16.784C32.0266 17.866 31.1558 18.8084 30.0199 18.8084H1.98012C0.844182 18.8084 -0.0265679 17.866 0.000619595 16.784L0.00136959 16.7839V14.2201L0.000619595 14.123C-0.0265679 15.205 32.0266 15.205 31.9994 14.123L31.9986 14.2201Z" fill="#6F28CA"/>
<path d="M30.0198 16.1474H1.98012C0.699995 16.1474 -0.24338 14.9505 0.0556826 13.7058L1.70068 6.85867C1.91443 5.96898 2.71012 5.3418 3.62512 5.3418H28.3748C29.2898 5.3418 30.0855 5.96898 30.2992 6.85867L31.9442 13.7058C32.2433 14.9505 31.2999 16.1474 30.0198 16.1474Z" fill="#914DE8"/>
<path d="M31.9443 13.7058L30.2993 6.85867C30.0855 5.96898 29.2898 5.3418 28.3748 5.3418H27.6539C27.6816 5.41598 27.7049 5.49242 27.7238 5.57092L28.8668 10.3284C29.4218 12.6384 27.6709 14.8596 25.2952 14.8596H0.124756C0.402068 15.5995 1.11401 16.1474 1.98007 16.1474H30.0198C31.2999 16.1474 32.2433 14.9505 31.9443 13.7058Z" fill="#9948FF"/>
<path d="M31.9993 16.7839L31.9985 16.881V16.9066C32 16.8659 32.0003 16.825 31.9993 16.7839Z" fill="#909BA5"/>
<path d="M31.9986 22.0697V24.6335L31.9994 24.6336C32.0266 25.7156 31.1558 26.658 30.0199 26.658H1.98012C0.844182 26.658 -0.0265679 25.7156 0.000619595 24.6336L0.00136959 24.6335V22.0697L0.000619595 21.9727C-0.0265679 23.0547 0.844182 23.9971 1.98012 23.9971H30.0199C31.1558 23.9971 32.0266 23.0547 31.9994 21.9727L31.9986 22.0697Z" fill="#6F28CA"/>
<path d="M31.9993 21.9727L31.9985 22.0697V22.0953C32.0001 22.0545 32.0003 22.0135 31.9993 21.9727Z" fill="#914DE8"/>
<path d="M31.9986 24.6335V22.0953C31.96 23.1249 31.1126 23.997 30.0198 23.997H27.9314C27.0517 24.8472 25.8539 25.3702 24.5339 25.3702H0.124756C0.402068 26.1101 1.11401 26.658 1.98007 26.658H30.0198C31.1558 26.658 32.0265 25.7155 31.9993 24.6335L31.9986 24.6335ZM31.9986 16.7838V14.2456C31.96 15.2752 31.1126 16.1474 30.0198 16.1474H29.4232L29.4233 18.8083H30.0198C31.1558 18.8083 32.0265 17.8659 31.9993 16.7839L31.9986 16.7838Z" fill="#6F28CA"/>
<path d="M28.1745 21.8857H27.2827C27.2193 21.8857 27.1565 21.8732 27.0979 21.8489C27.0393 21.8246 26.9861 21.7891 26.9412 21.7442C26.8964 21.6994 26.8608 21.6462 26.8366 21.5876C26.8123 21.529 26.7998 21.4662 26.7998 21.4028C26.7998 21.3394 26.8123 21.2766 26.8366 21.218C26.8608 21.1594 26.8964 21.1062 26.9412 21.0614C26.9861 21.0165 27.0393 20.9809 27.0979 20.9567C27.1565 20.9324 27.2193 20.9199 27.2827 20.9199H28.1745C28.2379 20.9199 28.3007 20.9324 28.3593 20.9567C28.4179 20.9809 28.4711 21.0165 28.5159 21.0614C28.5608 21.1062 28.5963 21.1594 28.6206 21.218C28.6449 21.2766 28.6574 21.3394 28.6574 21.4028C28.6574 21.4662 28.6449 21.529 28.6206 21.5876C28.5963 21.6462 28.5608 21.6994 28.5159 21.7442C28.4711 21.7891 28.4179 21.8246 28.3593 21.8489C28.3007 21.8732 28.2379 21.8857 28.1745 21.8857Z" fill="#914DE8"/>
<path d="M28.9408 22.3624C29.4708 22.3624 29.9005 21.9327 29.9005 21.4027C29.9005 20.8728 29.4708 20.4431 28.9408 20.4431C28.4108 20.4431 27.9812 20.8728 27.9812 21.4027C27.9812 21.9327 28.4108 22.3624 28.9408 22.3624Z" fill="#6F28CA"/>
<path d="M29.4225 20.5725C29.4118 21.1851 29.2857 21.7903 29.0508 22.3561C29.529 22.3016 29.9005 21.8956 29.9005 21.4027C29.9005 21.0483 29.7083 20.7387 29.4225 20.5725Z" fill="#430F86"/>
<path d="M20.6007 22.3624H11.3991C11.3468 22.3624 11.2967 22.3416 11.2597 22.3047C11.2227 22.2677 11.2019 22.2175 11.2019 22.1652V20.6403C11.2019 20.588 11.2227 20.5378 11.2597 20.5009C11.2966 20.4639 11.3468 20.4431 11.3991 20.4431H20.6007C20.6529 20.4431 20.7031 20.4639 20.7401 20.5009C20.777 20.5379 20.7978 20.588 20.7978 20.6403V22.1652C20.7978 22.2175 20.7771 22.2677 20.7401 22.3047C20.7031 22.3416 20.653 22.3624 20.6007 22.3624Z" fill="#6F28CA"/>
<path d="M16.2517 8.47527C15.5274 8.47527 14.9382 7.88602 14.9382 7.16183C14.9382 7.03376 14.9891 6.91094 15.0797 6.82039C15.1702 6.72983 15.293 6.67896 15.4211 6.67896C15.5492 6.67896 15.672 6.72983 15.7625 6.82039C15.8531 6.91094 15.904 7.03376 15.904 7.16183C15.904 7.35352 16.0599 7.50946 16.2516 7.50946C16.4433 7.50946 16.5992 7.35352 16.5992 7.16183C16.5992 7.03376 16.6501 6.91094 16.7407 6.82039C16.8312 6.72983 16.954 6.67896 17.0821 6.67896C17.2102 6.67896 17.333 6.72983 17.4235 6.82039C17.5141 6.91094 17.565 7.03376 17.565 7.16183C17.5651 7.88602 16.9759 8.47527 16.2517 8.47527ZM17.6267 10.1081C17.6267 9.98008 17.5759 9.85725 17.4853 9.7667C17.3947 9.67614 17.2719 9.62527 17.1439 9.62527C17.0158 9.62527 16.893 9.67614 16.8024 9.7667C16.7118 9.85725 16.661 9.98008 16.661 10.1081C16.6609 10.2003 16.6242 10.2887 16.559 10.3538C16.4939 10.419 16.4055 10.4557 16.3134 10.4558C16.2212 10.4557 16.1328 10.419 16.0677 10.3538C16.0025 10.2887 15.9658 10.2003 15.9657 10.1081C15.9657 9.98008 15.9149 9.85725 15.8243 9.7667C15.7337 9.67614 15.6109 9.62527 15.4829 9.62527C15.3548 9.62527 15.232 9.67614 15.1414 9.7667C15.0508 9.85725 15 9.98008 15 10.1081C15 10.8324 15.5892 11.4216 16.3134 11.4216C17.0375 11.4216 17.6267 10.8324 17.6267 10.1081ZM17.6884 13.0545C17.6884 12.9264 17.6375 12.8036 17.5469 12.713C17.4564 12.6225 17.3335 12.5716 17.2055 12.5716C17.0774 12.5716 16.9546 12.6225 16.864 12.713C16.7735 12.8036 16.7226 12.9264 16.7226 13.0545C16.7225 13.1466 16.6858 13.235 16.6207 13.3002C16.5555 13.3653 16.4671 13.402 16.375 13.4021C16.2828 13.402 16.1945 13.3653 16.1293 13.3001C16.0641 13.235 16.0275 13.1466 16.0273 13.0545C16.0273 12.991 16.0149 12.9283 15.9906 12.8697C15.9663 12.8111 15.9308 12.7579 15.8859 12.713C15.8411 12.6682 15.7878 12.6326 15.7293 12.6083C15.6707 12.5841 15.6079 12.5716 15.5445 12.5716C15.4811 12.5716 15.4183 12.5841 15.3597 12.6083C15.3011 12.6326 15.2479 12.6682 15.203 12.713C15.1582 12.7579 15.1226 12.8111 15.0984 12.8697C15.0741 12.9283 15.0616 12.991 15.0616 13.0545C15.0616 13.7787 15.6508 14.3679 16.375 14.3679C17.0993 14.3679 17.6884 13.7787 17.6884 13.0545ZM22.9419 7.16183C22.9419 7.03376 22.891 6.91094 22.8004 6.82039C22.7099 6.72983 22.587 6.67896 22.459 6.67896C22.3309 6.67896 22.2081 6.72983 22.1175 6.82039C22.027 6.91094 21.9761 7.03376 21.9761 7.16183C21.9761 7.35352 21.8202 7.50946 21.6285 7.50946C21.4368 7.50946 21.2808 7.35352 21.2808 7.16183C21.2808 7.03376 21.23 6.91094 21.1394 6.82039C21.0489 6.72983 20.926 6.67896 20.798 6.67896C20.6699 6.67896 20.5471 6.72983 20.4565 6.82039C20.366 6.91094 20.3151 7.03376 20.3151 7.16183C20.3151 7.88608 20.9044 8.47527 21.6285 8.47527C22.3527 8.47527 22.9419 7.88602 22.9419 7.16183ZM23.1967 10.1081C23.1967 9.98008 23.1458 9.85725 23.0552 9.7667C22.9647 9.67614 22.8419 9.62527 22.7138 9.62527C22.5857 9.62527 22.4629 9.67614 22.3723 9.7667C22.2818 9.85725 22.2309 9.98008 22.2309 10.1081C22.2309 10.2998 22.075 10.4558 21.8833 10.4558C21.6916 10.4558 21.5357 10.2998 21.5357 10.1081C21.5357 9.98008 21.4848 9.85725 21.3942 9.7667C21.3037 9.67614 21.1809 9.62527 21.0528 9.62527C20.9247 9.62527 20.8019 9.67614 20.7113 9.7667C20.6208 9.85725 20.5699 9.98008 20.5699 10.1081C20.5699 10.8324 21.1592 11.4216 21.8834 11.4216C22.6074 11.4216 23.1967 10.8324 23.1967 10.1081ZM23.4514 13.0545C23.4514 12.9264 23.4005 12.8036 23.31 12.713C23.2194 12.6225 23.0966 12.5716 22.9685 12.5716C22.8405 12.5716 22.7176 12.6225 22.6271 12.713C22.5365 12.8036 22.4857 12.9264 22.4857 13.0545C22.4857 13.2461 22.3297 13.4021 22.138 13.4021C21.9464 13.4021 21.7904 13.2461 21.7904 13.0545C21.7904 12.9264 21.7395 12.8036 21.649 12.713C21.5584 12.6225 21.4356 12.5716 21.3075 12.5716C21.1795 12.5716 21.0567 12.6225 20.9661 12.713C20.8755 12.8036 20.8247 12.9264 20.8247 13.0545C20.8247 13.7787 21.4139 14.3679 22.1381 14.3679C22.8623 14.3679 23.4514 13.7787 23.4514 13.0545ZM28.3186 7.16183C28.3186 7.03376 28.2677 6.91094 28.1772 6.82039C28.0866 6.72983 27.9638 6.67896 27.8357 6.67896C27.7077 6.67896 27.5848 6.72983 27.4943 6.82039C27.4037 6.91094 27.3528 7.03376 27.3528 7.16183C27.3528 7.254 27.3161 7.34236 27.2509 7.40753C27.1858 7.4727 27.0974 7.50936 27.0052 7.50946C26.9131 7.50934 26.8247 7.47268 26.7596 7.40751C26.6944 7.34234 26.6578 7.25398 26.6577 7.16183C26.6577 7.03376 26.6068 6.91094 26.5162 6.82039C26.4257 6.72983 26.3029 6.67896 26.1748 6.67896C26.0467 6.67896 25.9239 6.72983 25.8333 6.82039C25.7428 6.91094 25.6919 7.03376 25.6919 7.16183C25.6919 7.88608 26.2811 8.47527 27.0053 8.47527C27.7295 8.47527 28.3186 7.88602 28.3186 7.16183ZM28.7022 10.1081C28.7022 9.98008 28.6513 9.85725 28.5607 9.7667C28.4702 9.67614 28.3474 9.62527 28.2193 9.62527C28.0912 9.62527 27.9684 9.67614 27.8778 9.7667C27.7873 9.85725 27.7364 9.98008 27.7364 10.1081C27.7364 10.2998 27.5805 10.4558 27.3888 10.4558C27.1971 10.4558 27.0412 10.2998 27.0412 10.1081C27.0412 9.98008 26.9903 9.85725 26.8997 9.7667C26.8092 9.67614 26.6864 9.62527 26.5583 9.62527C26.4302 9.62527 26.3074 9.67614 26.2168 9.7667C26.1263 9.85725 26.0754 9.98008 26.0754 10.1081C26.0754 10.8324 26.6647 11.4216 27.3888 11.4216C28.113 11.4216 28.7022 10.8324 28.7022 10.1081ZM29.0857 13.0545C29.0857 12.9264 29.0349 12.8036 28.9443 12.713C28.8537 12.6225 28.7309 12.5716 28.6028 12.5716C28.4748 12.5716 28.352 12.6225 28.2614 12.713C28.1708 12.8036 28.12 12.9264 28.12 13.0545C28.12 13.2461 27.964 13.4021 27.7724 13.4021C27.5807 13.4021 27.4247 13.2461 27.4247 13.0545C27.4247 12.9264 27.3739 12.8036 27.2833 12.713C27.1927 12.6225 27.0699 12.5716 26.9419 12.5716C26.8138 12.5716 26.691 12.6225 26.6004 12.713C26.5098 12.8036 26.459 12.9264 26.459 13.0545C26.459 13.7787 27.0482 14.3679 27.7724 14.3679C28.4966 14.3679 29.0857 13.7787 29.0857 13.0545ZM12.1883 7.16183C12.1883 7.03376 12.1375 6.91094 12.0469 6.82039C11.9564 6.72983 11.8335 6.67896 11.7055 6.67896C11.5774 6.67896 11.4546 6.72983 11.364 6.82039C11.2735 6.91094 11.2226 7.03376 11.2226 7.16183C11.2226 7.35352 11.0667 7.50946 10.875 7.50946C10.6833 7.50946 10.5273 7.35352 10.5273 7.16183C10.5273 7.03376 10.4765 6.91094 10.3859 6.82039C10.2954 6.72983 10.1725 6.67896 10.0445 6.67896C9.91641 6.67896 9.79359 6.72983 9.70303 6.82039C9.61247 6.91094 9.5616 7.03376 9.5616 7.16183C9.5616 7.88608 10.1508 8.47527 10.875 8.47527C11.5993 8.47527 12.1883 7.88602 12.1883 7.16183ZM11.9336 10.1081C11.9336 9.98008 11.8827 9.85725 11.7922 9.7667C11.7016 9.67614 11.5788 9.62527 11.4507 9.62527C11.3227 9.62527 11.1998 9.67614 11.1093 9.7667C11.0187 9.85725 10.9678 9.98008 10.9678 10.1081C10.9678 10.2998 10.8119 10.4558 10.6202 10.4558C10.4285 10.4558 10.2726 10.2998 10.2726 10.1081C10.2726 10.0447 10.2601 9.98194 10.2358 9.92335C10.2116 9.86477 10.176 9.81154 10.1312 9.7667C10.0863 9.72186 10.0331 9.68629 9.97451 9.66202C9.91593 9.63776 9.85314 9.62527 9.78972 9.62527C9.72631 9.62527 9.66352 9.63776 9.60494 9.66202C9.54635 9.68629 9.49312 9.72186 9.44828 9.7667C9.40344 9.81154 9.36787 9.86477 9.34361 9.92335C9.31934 9.98194 9.30685 10.0447 9.30685 10.1081C9.30685 10.8324 9.8961 11.4216 10.6203 11.4216C11.3445 11.4216 11.9336 10.8324 11.9336 10.1081ZM11.6788 13.0545C11.6788 12.9264 11.6279 12.8036 11.5374 12.713C11.4468 12.6225 11.324 12.5716 11.1959 12.5716C11.0678 12.5716 10.945 12.6225 10.8545 12.713C10.7639 12.8036 10.713 12.9264 10.713 13.0545C10.713 13.2461 10.5571 13.4021 10.3654 13.4021C10.1737 13.4021 10.0178 13.2461 10.0178 13.0545C10.0178 12.9264 9.96691 12.8036 9.87636 12.713C9.7858 12.6225 9.66298 12.5716 9.53491 12.5716C9.40685 12.5716 9.28402 12.6225 9.19347 12.713C9.10291 12.8036 9.05204 12.9264 9.05204 13.0545C9.05204 13.7787 9.64122 14.3679 10.3655 14.3679C11.0897 14.3679 11.6788 13.7787 11.6788 13.0545ZM6.8116 7.16183C6.8116 7.09842 6.79911 7.03563 6.77484 6.97704C6.75058 6.91846 6.71501 6.86523 6.67017 6.82039C6.62533 6.77555 6.5721 6.73998 6.51351 6.71571C6.45493 6.69144 6.39214 6.67896 6.32872 6.67896C6.26531 6.67896 6.20252 6.69144 6.14394 6.71571C6.08535 6.73998 6.03212 6.77555 5.98728 6.82039C5.94244 6.86523 5.90687 6.91846 5.88261 6.97704C5.85834 7.03563 5.84585 7.09842 5.84585 7.16183C5.84585 7.35352 5.68991 7.50946 5.49822 7.50946C5.30654 7.50946 5.1506 7.35352 5.1506 7.16183C5.1506 7.03376 5.09973 6.91094 5.00917 6.82039C4.91861 6.72983 4.79579 6.67896 4.66772 6.67896C4.53966 6.67896 4.41684 6.72983 4.32628 6.82039C4.23572 6.91094 4.18485 7.03376 4.18485 7.16183C4.18485 7.88608 4.7741 8.47527 5.49829 8.47527C6.22247 8.47527 6.8116 7.88602 6.8116 7.16183ZM6.42804 10.1081C6.42804 9.98008 6.37716 9.85725 6.28661 9.7667C6.19605 9.67614 6.07323 9.62527 5.94516 9.62527C5.8171 9.62527 5.69427 9.67614 5.60372 9.7667C5.51316 9.85725 5.46229 9.98008 5.46229 10.1081C5.46229 10.2998 5.30635 10.4558 5.11466 10.4558C4.92297 10.4558 4.76704 10.2998 4.76704 10.1081C4.76704 10.0447 4.75455 9.98194 4.73028 9.92335C4.70601 9.86477 4.67045 9.81154 4.62561 9.7667C4.58077 9.72186 4.52754 9.68629 4.46895 9.66202C4.41037 9.63776 4.34757 9.62527 4.28416 9.62527C4.22075 9.62527 4.15796 9.63776 4.09937 9.66202C4.04079 9.68629 3.98756 9.72186 3.94272 9.7667C3.89788 9.81154 3.86231 9.86477 3.83804 9.92335C3.81378 9.98194 3.80129 10.0447 3.80129 10.1081C3.80129 10.8324 4.39047 11.4216 5.11472 11.4216C5.83885 11.4216 6.42804 10.8324 6.42804 10.1081ZM6.04447 13.0545C6.04447 12.9264 5.9936 12.8036 5.90304 12.713C5.81249 12.6225 5.68967 12.5716 5.5616 12.5716C5.43353 12.5716 5.31071 12.6225 5.22016 12.713C5.1296 12.8036 5.07872 12.9264 5.07872 13.0545C5.07872 13.2461 4.92279 13.4021 4.7311 13.4021C4.53941 13.4021 4.38347 13.2461 4.38347 13.0545C4.38347 12.9264 4.3326 12.8036 4.24204 12.713C4.15149 12.6225 4.02867 12.5716 3.9006 12.5716C3.77253 12.5716 3.64971 12.6225 3.55916 12.713C3.4686 12.8036 3.41772 12.9264 3.41772 13.0545C3.41772 13.7787 4.00697 14.3679 4.73116 14.3679C5.45535 14.3679 6.04447 13.7787 6.04447 13.0545Z" fill="#58249A"/>
<path d="M27.9966 6.7063L28.2237 7.65192C28.2866 7.49615 28.3188 7.32971 28.3186 7.16174C28.3186 7.06183 28.2877 6.96439 28.23 6.88282C28.1723 6.80125 28.0907 6.73958 27.9966 6.7063ZM29.0858 13.0544C29.0858 12.9423 29.0468 12.8338 28.9755 12.7473C28.9042 12.6608 28.8051 12.6018 28.6951 12.5804C28.4084 13.2749 27.9172 13.8659 27.2869 14.2749C27.4413 14.3365 27.6061 14.368 27.7724 14.3679C28.4966 14.3679 29.0858 13.7787 29.0858 13.0544Z" fill="#6F28CA"/>
</svg>
