<svg width="24" height="24" viewBox="0 0 24 24" fill="none" xmlns="http://www.w3.org/2000/svg">
<g clipPath="url(#clip0_911_10974)">
<path d="M2.06128 18.8999V19.947C2.06128 20.2929 2.34159 20.5732 2.68739 20.5732H5.03508C5.38083 20.5732 5.66119 20.2929 5.66119 19.947V18.8999H2.06128ZM18.3387 18.8999V19.947C18.3387 20.2929 18.619 20.5732 18.9648 20.5732H21.3126C21.6583 20.5732 21.9387 20.2929 21.9387 19.947V18.8999H18.3387Z" fill="#430F86"/>
<path opacity="0.15" d="M2.89608 19.9468V18.8997H2.06128V19.9468C2.06128 20.2926 2.34159 20.5729 2.68739 20.5729H3.52214C3.17639 20.5729 2.89608 20.2926 2.89608 19.9468ZM19.1735 19.9468V18.8997H18.3387V19.9468C18.3387 20.2926 18.619 20.5729 18.9648 20.5729H19.7996C19.4538 20.5729 19.1735 20.2926 19.1735 19.9468Z" fill="#020202"/>
<path d="M22.2019 3.427H1.79803C0.804983 3.427 0 4.23194 0 5.22498V17.154C0 18.1469 0.804983 18.9521 1.79803 18.9521H22.202C23.195 18.9521 24 18.147 24 17.154V5.22498C24 4.23194 23.195 3.427 22.2019 3.427Z" fill="#6F28CA"/>
<path opacity="0.15" d="M0.834797 17.154V5.22499C0.834797 4.23194 1.63978 3.427 2.63283 3.427H1.79803C0.804985 3.427 0 4.23194 0 5.22499V17.1541C0 18.147 0.804985 18.9521 1.79803 18.9521H2.63283C1.63978 18.9521 0.834797 18.147 0.834797 17.154Z" fill="#020202"/>
<path d="M21.1069 7.69278C21.7641 7.69278 22.2969 7.15999 22.2969 6.50276C22.2969 5.84553 21.7641 5.31274 21.1069 5.31274C20.4497 5.31274 19.9169 5.84553 19.9169 6.50276C19.9169 7.15999 20.4497 7.69278 21.1069 7.69278Z" fill="#F4B042"/>
<path d="M21.1069 11.5092C21.7641 11.5092 22.2969 10.9764 22.2969 10.3192C22.2969 9.66194 21.7641 9.12915 21.1069 9.12915C20.4497 9.12915 19.9169 9.66194 19.9169 10.3192C19.9169 10.9764 20.4497 11.5092 21.1069 11.5092Z" fill="#C395FF"/>
<path d="M17.6084 5.31274H2.58314C2.23739 5.31274 1.95703 5.59306 1.95703 5.93885V16.4252C1.95703 16.7709 2.23734 17.0513 2.58314 17.0513H17.6084C17.9542 17.0513 18.2345 16.771 18.2345 16.4252V5.93881C18.2345 5.59306 17.9542 5.31274 17.6084 5.31274Z" fill="#C395FF"/>
<path opacity="0.15" d="M20.7519 6.50281C20.7519 5.99243 21.0733 5.55738 21.5246 5.38826C21.3911 5.33827 21.2497 5.31272 21.1072 5.31284C20.45 5.31284 19.9172 5.84557 19.9172 6.50285C19.9172 7.16004 20.4501 7.69287 21.1072 7.69287C21.2541 7.69287 21.3947 7.66606 21.5246 7.61745C21.0733 7.44823 20.7519 7.01309 20.7519 6.50281ZM20.7519 10.3193C20.7519 9.80895 21.0733 9.3739 21.5246 9.20477C21.3911 9.15478 21.2497 9.12923 21.1072 9.12935C20.45 9.12935 19.9172 9.66209 19.9172 10.3194C19.9172 10.9766 20.4501 11.5094 21.1072 11.5094C21.2541 11.5094 21.3947 11.4826 21.5246 11.434C21.0733 11.2648 20.7519 10.8296 20.7519 10.3193ZM2.79183 16.4253V5.93885C2.79183 5.5931 3.07214 5.31274 3.41794 5.31274H2.58314C2.23739 5.31274 1.95703 5.59306 1.95703 5.93885V16.4252C1.95703 16.7709 2.23734 17.0513 2.58314 17.0513H3.41794C3.07214 17.0513 2.79183 16.771 2.79183 16.4253Z" fill="#020202"/>
<g opacity="0.55">
<path d="M7.65223 11.3262C7.57485 11.3262 7.49921 11.3032 7.43487 11.2602C7.37054 11.2172 7.3204 11.1561 7.29079 11.0846C7.26118 11.0131 7.25343 10.9345 7.26852 10.8586C7.28361 10.7827 7.32087 10.713 7.37557 10.6582L9.39303 8.64078C9.46641 8.56739 9.56595 8.52617 9.66973 8.52617C9.77351 8.52617 9.87305 8.56739 9.94643 8.64078C10.0198 8.71417 10.061 8.8137 10.061 8.91748C10.061 9.02127 10.0198 9.1208 9.94643 9.19419L7.92898 11.2116C7.89266 11.248 7.84952 11.2769 7.80203 11.2965C7.75453 11.3162 7.70363 11.3263 7.65223 11.3262ZM8.44095 13.1808C8.36357 13.1808 8.28793 13.1578 8.22359 13.1148C8.15926 13.0718 8.10912 13.0107 8.0795 12.9392C8.04989 12.8677 8.04215 12.7891 8.05724 12.7132C8.07233 12.6373 8.10958 12.5676 8.16429 12.5128L12.3556 8.32161C12.429 8.24824 12.5285 8.20703 12.6323 8.20703C12.7361 8.20703 12.8356 8.24824 12.909 8.32161C12.9824 8.39501 13.0236 8.49454 13.0236 8.59832C13.0236 8.7021 12.9824 8.80162 12.909 8.87501L8.71765 13.0662C8.68135 13.1026 8.63822 13.1315 8.59073 13.1511C8.54325 13.1708 8.49234 13.1809 8.44095 13.1808ZM7.43562 14.1862C7.35824 14.1862 7.28261 14.1632 7.21828 14.1202C7.15396 14.0772 7.10382 14.0161 7.07422 13.9446C7.04461 13.8731 7.03686 13.7944 7.05194 13.7185C7.06703 13.6426 7.10427 13.5729 7.15896 13.5182L7.29823 13.379C7.37182 13.3065 7.47106 13.2661 7.57432 13.2665C7.67757 13.267 7.77648 13.3082 7.84948 13.3812C7.92247 13.4542 7.96365 13.5532 7.96403 13.6564C7.96441 13.7597 7.92396 13.8589 7.8515 13.9325L7.71223 14.0717C7.67594 14.108 7.63282 14.1369 7.58536 14.1565C7.53789 14.1762 7.487 14.1863 7.43562 14.1862ZM10.2007 14.0645C10.1233 14.0645 10.0477 14.0416 9.98337 13.9986C9.91904 13.9556 9.8689 13.8945 9.83929 13.823C9.80968 13.7515 9.80193 13.6728 9.81702 13.5969C9.83211 13.521 9.86936 13.4513 9.92407 13.3966L12.6024 10.7183C12.6761 10.6467 12.7751 10.6069 12.8779 10.6077C12.9807 10.6084 13.0791 10.6496 13.1517 10.7223C13.2244 10.795 13.2656 10.8934 13.2664 10.9962C13.2671 11.099 13.2274 11.1979 13.1558 11.2717L10.4775 13.95C10.4412 13.9863 10.398 14.0152 10.3505 14.0348C10.303 14.0545 10.2521 14.0646 10.2007 14.0645Z" fill="#F5F5F5"/>
</g>
<path d="M22.4114 16.8686H19.8027C19.6989 16.8686 19.5994 16.8274 19.526 16.754C19.4526 16.6806 19.4114 16.5811 19.4114 16.4773C19.4114 16.3735 19.4526 16.274 19.526 16.2006C19.5994 16.1272 19.6989 16.086 19.8027 16.086H22.4114C22.4628 16.086 22.5137 16.0961 22.5611 16.1157C22.6086 16.1354 22.6518 16.1642 22.6881 16.2006C22.7244 16.2369 22.7533 16.28 22.7729 16.3275C22.7926 16.375 22.8027 16.4259 22.8027 16.4773C22.8027 16.5287 22.7926 16.5796 22.7729 16.627C22.7533 16.6745 22.7244 16.7177 22.6881 16.754C22.6518 16.7903 22.6086 16.8192 22.5611 16.8388C22.5137 16.8585 22.4628 16.8686 22.4114 16.8686ZM22.4114 15.2676H19.8027C19.5866 15.2676 19.4114 15.0925 19.4114 14.8763C19.4114 14.6601 19.5866 14.485 19.8027 14.485H22.4114C22.6275 14.485 22.8027 14.6601 22.8027 14.8763C22.8027 15.0925 22.6276 15.2676 22.4114 15.2676ZM22.4114 13.6667H19.8027C19.7 13.6651 19.602 13.6231 19.5299 13.5499C19.4578 13.4767 19.4174 13.3781 19.4174 13.2753C19.4174 13.1726 19.4578 13.074 19.5299 13.0008C19.602 12.9276 19.7 12.8856 19.8027 12.884H22.4114C22.4628 12.884 22.5137 12.8941 22.5611 12.9138C22.6086 12.9335 22.6518 12.9623 22.6881 12.9986C22.7244 13.035 22.7533 13.0781 22.7729 13.1256C22.7926 13.1731 22.8027 13.224 22.8027 13.2753C22.8027 13.3267 22.7926 13.3776 22.7729 13.4251C22.7533 13.4726 22.7244 13.5157 22.6881 13.5521C22.6518 13.5884 22.6086 13.6172 22.5611 13.6369C22.5137 13.6565 22.4628 13.6667 22.4114 13.6667Z" fill="#C395FF"/>
</g>
<defs>
<clipPath id="clip0_911_10974">
<rect width="24" height="24" fill="white"/>
</clipPath>
</defs>
</svg>
