<svg width="96" height="87" viewBox="0 0 96 87" fill="none" xmlns="http://www.w3.org/2000/svg">
<path d="M62.5503 4.9375H167.895V71.3292H148.646C148.667 70.9792 148.681 70.6467 148.681 70.3038C148.681 66.0307 146.984 61.9327 143.962 58.9113C140.941 55.8898 136.843 54.1923 132.57 54.1923C128.297 54.1923 124.198 55.8898 121.177 58.9113C118.156 61.9327 116.458 66.0307 116.458 70.3038C116.458 70.6537 116.458 71.0037 116.493 71.3292H62.5503V4.9375Z" fill="#9506E6"/>
<path d="M9.82874 44.6533H67.9434V71.3255H9.82874V44.6533Z" fill="#1D1B21"/>
<path d="M44.075 71.3271C43.8158 67.6618 42.2902 64.2006 39.7595 61.5366C37.2287 58.8726 33.8504 57.1715 30.2031 56.7247C26.5559 56.278 22.8669 57.1134 19.768 59.0878C16.669 61.0623 14.3531 64.0529 13.217 67.5473H2.21703V46.4678C2.34653 40.9241 7.46677 39.1182 7.46677 39.1182L20.0662 36.4268L30.8561 4.98438H70.6597V71.3271H44.075Z" fill="#9506E6"/>
<path d="M28.1815 32.9479L35.5311 11.501H56.0996V32.9479H28.1815Z" fill="#A8E0FB"/>
<path d="M42.5056 41.8712C42.5146 41.6867 42.56 41.5057 42.6392 41.3388C42.7184 41.1719 42.8298 41.0223 42.9671 40.8987C43.1044 40.775 43.2648 40.6798 43.4391 40.6185C43.6134 40.5571 43.7981 40.5309 43.9825 40.5413H49.3688C49.5532 40.5309 49.7379 40.5571 49.9122 40.6185C50.0865 40.6798 50.2469 40.775 50.3842 40.8987C50.5215 41.0223 50.633 41.1719 50.7122 41.3388C50.7914 41.5057 50.8368 41.6867 50.8457 41.8712C50.8368 42.0557 50.7914 42.2367 50.7122 42.4036C50.633 42.5705 50.5215 42.7201 50.3842 42.8437C50.2469 42.9673 50.0865 43.0626 49.9122 43.1239C49.7379 43.1853 49.5532 43.2115 49.3688 43.2011H43.9825C43.7981 43.2115 43.6134 43.1853 43.4391 43.1239C43.2648 43.0626 43.1044 42.9673 42.9671 42.8437C42.8298 42.7201 42.7184 42.5705 42.6392 42.4036C42.56 42.2367 42.5146 42.0557 42.5056 41.8712Z" fill="white"/>
<path d="M30.786 5.02241H167.885V0.0351562H37.7332C37.7332 0.0351562 32.8754 0.96961 30.786 5.02241Z" fill="#59038A"/>
<path d="M28.2472 86.3621C20.5369 86.3621 14.2864 80.1116 14.2864 72.4012C14.2864 64.6909 20.5369 58.4404 28.2472 58.4404C35.9575 58.4404 42.208 64.6909 42.208 72.4012C42.208 80.1116 35.9575 86.3621 28.2472 86.3621Z" fill="#312E37"/>
<path d="M28.2529 52.9639C33.4082 52.9639 38.3523 55.0118 41.9976 58.6571C45.643 62.3025 47.6909 67.2466 47.6909 72.4019C47.6909 72.7519 47.6909 73.1019 47.6629 73.4308H44.0826C44.1071 73.0809 44.1211 72.7484 44.1211 72.4019C44.121 68.6308 42.7755 64.9834 40.3266 62.1157C37.8777 59.2479 34.4859 57.348 30.7614 56.7574C27.0368 56.1669 23.2237 56.9245 20.0078 58.8941C16.7919 60.8637 14.3842 63.916 13.2176 67.5021H9.43781C10.5246 63.3393 12.9609 59.6542 16.3654 57.0236C19.7699 54.3929 23.9505 52.9652 28.2529 52.9639Z" fill="#59038A"/>
<path d="M28.2482 81.7467C23.0874 81.7467 18.9037 77.563 18.9037 72.4022C18.9037 67.2413 23.0874 63.0576 28.2482 63.0576C33.4091 63.0576 37.5928 67.2413 37.5928 72.4022C37.5928 77.563 33.4091 81.7467 28.2482 81.7467Z" fill="#5C5963"/>
<path d="M28.2469 80.6145C23.7123 80.6145 20.0363 76.9385 20.0363 72.404C20.0363 67.8694 23.7123 64.1934 28.2469 64.1934C32.7815 64.1934 36.4575 67.8694 36.4575 72.404C36.4575 76.9385 32.7815 80.6145 28.2469 80.6145Z" fill="#E9E8ED"/>
<path d="M28.249 77.4766C25.4463 77.4766 23.1742 75.2046 23.1742 72.4019C23.1742 69.5992 25.4463 67.3271 28.249 67.3271C31.0517 67.3271 33.3237 69.5992 33.3237 72.4019C33.3237 75.2046 31.0517 77.4766 28.249 77.4766Z" fill="#312E37"/>
<path d="M28.2493 66.7601C27.8531 66.7601 27.5319 66.4389 27.5319 66.0427C27.5319 65.6464 27.8531 65.3252 28.2493 65.3252C28.6456 65.3252 28.9668 65.6464 28.9668 66.0427C28.9668 66.4389 28.6456 66.7601 28.2493 66.7601Z" fill="#5C5963"/>
<path d="M28.2493 79.4808C27.8531 79.4808 27.5319 79.1596 27.5319 78.7634C27.5319 78.3671 27.8531 78.0459 28.2493 78.0459C28.6456 78.0459 28.9668 78.3671 28.9668 78.7634C28.9668 79.1596 28.6456 79.4808 28.2493 79.4808Z" fill="#5C5963"/>
<path d="M30.8096 66.5365C30.8806 66.4136 30.9864 66.3145 31.1136 66.2517C31.2409 66.189 31.3839 66.1653 31.5246 66.1839C31.6653 66.2024 31.7974 66.2622 31.9041 66.3558C32.0107 66.4494 32.0873 66.5725 32.124 66.7096C32.1607 66.8467 32.156 66.9915 32.1103 67.1259C32.0647 67.2603 31.9802 67.3781 31.8676 67.4645C31.7551 67.5509 31.6194 67.6019 31.4778 67.6111C31.3361 67.6204 31.195 67.5874 31.0721 67.5165C30.9888 67.4711 30.9155 67.4093 30.8568 67.3347C30.7981 67.2602 30.7552 67.1745 30.7306 67.0828C30.7061 66.9911 30.7004 66.8954 30.714 66.8015C30.7276 66.7076 30.7601 66.6175 30.8096 66.5365Z" fill="#5C5963"/>
<path d="M24.4483 77.5531C24.5192 77.4302 24.625 77.3311 24.7523 77.2683C24.8796 77.2056 25.0226 77.182 25.1633 77.2005C25.304 77.219 25.436 77.2788 25.5427 77.3724C25.6494 77.466 25.726 77.5891 25.7627 77.7262C25.7994 77.8632 25.7946 78.0081 25.749 78.1425C25.7034 78.2769 25.6189 78.3947 25.5063 78.4811C25.3937 78.5674 25.258 78.6185 25.1164 78.6277C24.9748 78.637 24.8336 78.604 24.7108 78.5331C24.6274 78.4877 24.5542 78.4258 24.4955 78.3513C24.4368 78.2767 24.3939 78.191 24.3693 78.0994C24.3448 78.0077 24.3391 77.912 24.3527 77.8181C24.3663 77.7242 24.3988 77.6341 24.4483 77.5531Z" fill="#5C5963"/>
<path d="M33.4007 68.6001C33.5236 68.5291 33.6648 68.4962 33.8064 68.5054C33.948 68.5147 34.0837 68.5657 34.1963 68.6521C34.3089 68.7385 34.3933 68.8563 34.4389 68.9907C34.4846 69.125 34.4893 69.2699 34.4526 69.407C34.4159 69.5441 34.3394 69.6672 34.2327 69.7607C34.126 69.8543 33.9939 69.9142 33.8532 69.9327C33.7125 69.9512 33.5695 69.9276 33.4422 69.8648C33.315 69.8021 33.2092 69.703 33.1382 69.5801C33.044 69.4151 33.0188 69.2196 33.0679 69.0361C33.1171 68.8526 33.2367 68.6959 33.4007 68.6001Z" fill="#5C5963"/>
<path d="M22.3827 74.9596C22.5056 74.889 22.6466 74.8564 22.788 74.8659C22.9294 74.8753 23.0648 74.9265 23.1772 75.0128C23.2895 75.0991 23.3738 75.2168 23.4194 75.351C23.465 75.4852 23.4698 75.6298 23.4333 75.7668C23.3967 75.9037 23.3204 76.0267 23.2141 76.1203C23.1077 76.2139 22.976 76.274 22.8355 76.2928C22.6951 76.3117 22.5522 76.2885 22.4249 76.2263C22.2976 76.164 22.1916 76.0655 22.1202 75.943C22.0259 75.7775 22.0005 75.5815 22.0496 75.3975C22.0988 75.2134 22.2184 75.0561 22.3827 74.9596Z" fill="#5C5963"/>
<path d="M34.3179 73.0396C33.9521 72.8871 33.7792 72.467 33.9317 72.1013C34.0842 71.7356 34.5043 71.5627 34.87 71.7151C35.2357 71.8676 35.4086 72.2877 35.2562 72.6534C35.1037 73.0192 34.6836 73.1921 34.3179 73.0396Z" fill="#5C5963"/>
<path d="M21.8895 73.1195C21.4932 73.1195 21.172 72.7983 21.172 72.402C21.172 72.0058 21.4932 71.6846 21.8895 71.6846C22.2857 71.6846 22.6069 72.0058 22.6069 72.402C22.6069 72.7983 22.2857 73.1195 21.8895 73.1195Z" fill="#5C5963"/>
<path d="M34.1225 74.9567C34.2461 75.0279 34.3458 75.1343 34.409 75.2623C34.4721 75.3902 34.4959 75.534 34.4772 75.6755C34.4586 75.817 34.3984 75.9497 34.3042 76.057C34.2101 76.1642 34.0862 76.2411 33.9484 76.2779C33.8105 76.3147 33.6648 76.3098 33.5297 76.2637C33.3947 76.2176 33.2763 76.1325 33.1897 76.0192C33.103 75.9058 33.0519 75.7693 33.0429 75.6269C33.0339 75.4844 33.0673 75.3426 33.139 75.2192C33.2349 75.0542 33.3922 74.9339 33.5765 74.8847C33.7609 74.8355 33.9572 74.8614 34.1225 74.9567Z" fill="#5C5963"/>
<path d="M23.1003 68.5999C23.2171 68.6713 23.3104 68.7755 23.3686 68.8994C23.4269 69.0234 23.4474 69.1616 23.4279 69.2972C23.4083 69.4327 23.3493 69.5595 23.2584 69.6619C23.1675 69.7643 23.0485 69.8377 22.9162 69.8732C22.7839 69.9086 22.6442 69.9045 22.5142 69.8612C22.3843 69.818 22.2699 69.7376 22.1851 69.6301C22.1004 69.5225 22.0491 69.3924 22.0376 69.2559C22.0261 69.1195 22.0548 68.9826 22.1203 68.8624C22.1657 68.779 22.2275 68.7058 22.3021 68.6471C22.3766 68.5884 22.4623 68.5455 22.554 68.5209C22.6456 68.4964 22.7413 68.4907 22.8352 68.5043C22.9292 68.5178 23.0193 68.5504 23.1003 68.5999Z" fill="#5C5963"/>
<path d="M32.0565 77.5544C32.1271 77.6773 32.1597 77.8183 32.1503 77.9597C32.1408 78.1011 32.0897 78.2365 32.0033 78.3489C31.917 78.4612 31.7993 78.5455 31.6651 78.5911C31.5309 78.6367 31.3863 78.6415 31.2494 78.605C31.1125 78.5684 30.9894 78.4921 30.8958 78.3858C30.8022 78.2794 30.7422 78.1477 30.7233 78.0072C30.7044 77.8668 30.7276 77.7239 30.7899 77.5966C30.8521 77.4693 30.9506 77.3633 31.0731 77.2919C31.1542 77.2418 31.2446 77.2089 31.3389 77.195C31.4332 77.1811 31.5293 77.1866 31.6214 77.2112C31.7135 77.2358 31.7995 77.2789 31.8744 77.3379C31.9492 77.3969 32.0112 77.4706 32.0565 77.5544Z" fill="#5C5963"/>
<path d="M25.6933 66.5355C25.7633 66.6587 25.7953 66.7998 25.7853 66.9411C25.7753 67.0824 25.7237 67.2175 25.6369 67.3295C25.5502 67.4415 25.4323 67.5254 25.298 67.5704C25.1637 67.6155 25.0191 67.6199 24.8823 67.5829C24.7456 67.5459 24.6229 67.4693 24.5296 67.3626C24.4364 67.256 24.3767 67.1242 24.3583 66.9837C24.3398 66.8433 24.3634 66.7005 24.4259 66.5734C24.4885 66.4463 24.5873 66.3406 24.7098 66.2696C24.7911 66.2196 24.8818 66.1868 24.9762 66.1732C25.0706 66.1596 25.1669 66.1654 25.259 66.1903C25.3511 66.2152 25.4371 66.2587 25.5118 66.318C25.5865 66.3774 25.6482 66.4514 25.6933 66.5355Z" fill="#5C5963"/>
<path d="M65.0454 71.3646V3.60449" stroke="#59038A" stroke-width="2.83" stroke-miterlimit="10"/>
<path d="M167.878 49.9326H64.8536" stroke="#59038A" stroke-width="2.83" stroke-miterlimit="10"/>
<path d="M35.5311 11.501L56.0996 32.9479H28.1815L35.5311 11.501Z" fill="#A8E0FB"/>
<path d="M56.0996 11.501V32.9479L35.5311 11.501H56.0996Z" fill="#89D7F9"/>
<path d="M45.6786 66.9814H111.871C113.698 66.9814 115.178 67.3804 115.178 67.8774V70.4078C115.178 70.9012 113.698 71.3037 111.871 71.3037H45.6786V66.9814Z" fill="#59038A"/>
<path d="M6.67572e-05 64.2388C6.67572e-05 63.4898 0.462027 62.8809 1.0325 62.8809H12.2005C12.7709 62.8809 13.2329 63.4898 13.2329 64.2388V67.0667C13.2329 67.8156 12.7709 68.4246 12.2005 68.4246H1.0325C0.462027 68.4246 6.67572e-05 67.8156 6.67572e-05 67.0667V64.2388Z" fill="#59038A"/>
</svg>
