<svg width="56" height="56" viewBox="0 0 56 56" fill="none" xmlns="http://www.w3.org/2000/svg">
<path d="M47.6657 20.4319H51.0734C51.8893 20.4319 52.5505 21.0932 52.5505 21.909V34.5169L50.1081 35.6539H46.2746V21.6257L47.6657 20.4319Z" fill="#914DE8"/>
<path d="M38.4656 20.4319H43.3371L45.1861 23.5586L47.6658 25.2242V34.5169L46.2746 35.654H37.2323V22.0764L38.4656 20.4319Z" fill="#B77FFD"/>
<path d="M47.6792 20.4319V25.233C47.6792 25.7458 47.2636 26.1614 46.7509 26.1614H44.2657C43.7531 26.1614 43.3374 25.7458 43.3374 25.233V20.4319H47.6792Z" fill="#5D14BA"/>
<path d="M24.3806 14.891V7.82416C24.3806 7.00833 25.042 6.34705 25.8577 6.34705H29.2522L30.4154 7.5412H32.1336L33.594 6.34705H36.9885C37.8043 6.34705 38.4656 7.00833 38.4656 7.82416V20.432L37.2886 21.6257H23.2414V17.4192L24.3806 14.891Z" fill="#B77FFD"/>
<path d="M33.594 6.34692V11.148C33.594 11.6608 33.1784 12.0764 32.6657 12.0764H30.1805C29.6679 12.0764 29.2522 11.6608 29.2522 11.148V6.34692H33.594ZM0.907711 32.3058L3.45189 30.0465C3.6142 29.9024 3.75573 29.7378 3.87856 29.5599L6.37756 28.6491L7.76727 25.1186L6.09231 23.5586L7.03829 20.8975C7.23205 20.5101 7.52987 20.1842 7.89838 19.9565C8.26689 19.7287 8.69153 19.6081 9.12473 19.6081H16.1359L17.4011 20.7806V40.7245L16.1359 42.5058H1.20007C0.537258 42.5058 -9.91821e-05 41.9684 -9.91821e-05 41.3056V34.326C-9.91821e-05 33.5538 0.330322 32.8186 0.907711 32.3058Z" fill="#A472E4"/>
<path d="M16.136 19.6082H20.3815L21.9646 21.1218V39.7668L20.3815 42.5059H16.136V19.6082Z" fill="#914DE8"/>
<path d="M9.4703 49.653C6.38397 49.653 3.882 47.1511 3.882 44.0647C3.882 40.9784 6.38397 38.4764 9.4703 38.4764C12.5566 38.4764 15.0586 40.9784 15.0586 44.0647C15.0586 47.1511 12.5566 49.653 9.4703 49.653Z" fill="#CCA4FF"/>
<path d="M9.47046 46.2755C8.24954 46.2755 7.25978 45.2857 7.25978 44.0648C7.25978 42.8439 8.24954 41.8541 9.47046 41.8541C10.6914 41.8541 11.6812 42.8439 11.6812 44.0648C11.6812 45.2857 10.6914 46.2755 9.47046 46.2755Z" fill="#5E20AD"/>
<path d="M16.136 24.2373V28.8813C16.136 29.0613 16.0645 29.2339 15.9372 29.3612C15.8099 29.4885 15.6373 29.56 15.4573 29.56H3.87866C3.95063 29.4559 4.01779 29.3484 4.07466 29.2346L6.09252 23.5586H15.4574C15.6374 23.5586 15.81 23.6301 15.9372 23.7574C16.0645 23.8847 16.136 24.0573 16.136 24.2373Z" fill="#5E20AD"/>
<path d="M11.7363 35.362C11.9605 35.362 12.1754 35.2729 12.3339 35.1145C12.4923 34.956 12.5814 34.7411 12.5814 34.5169V33.9352H15.3505C15.5746 33.9352 15.7896 33.8462 15.9481 33.6877C16.1065 33.5292 16.1956 33.3143 16.1956 33.0901C16.1956 32.866 16.1065 32.6511 15.9481 32.4926C15.7896 32.3341 15.5746 32.2451 15.3505 32.2451H11.7363C11.5122 32.2451 11.2973 32.3341 11.1388 32.4926C10.9803 32.6511 10.8913 32.866 10.8913 33.0901V34.5171C10.8913 34.7412 10.9804 34.9561 11.1388 35.1145C11.2973 35.273 11.5122 35.362 11.7363 35.362Z" fill="#5E20AD"/>
<path d="M24.3806 20.4319H29.1613L29.902 21.6538H32.4654L33.5031 20.4319H38.4656V34.5169L37.0351 35.654H23.2416V21.8643L24.3806 20.4319Z" fill="#5D14BA"/>
<path d="M33.594 20.4319V25.233C33.594 25.7458 33.1784 26.1614 32.6657 26.1614H30.1805C29.6679 26.1614 29.2522 25.7458 29.2522 25.233V20.4319H33.594Z" fill="#A472E4"/>
<path d="M21.9938 13.2786H22.7683C23.6587 13.2786 24.3806 14.0004 24.3806 14.891V34.5169L23.3167 35.654H22.1054L20.3814 34.5169V14.891C20.3814 14.0005 21.1033 13.2786 21.9938 13.2786Z" fill="#CCA4FF"/>
<path d="M47.6389 42.5057H54.4065C55.2865 42.5057 56 41.7924 56 40.9123V36.1293C56 35.2388 55.2781 34.5168 54.3876 34.5168H47.62L45.9648 35.654V41.2315L47.6389 42.5057Z" fill="#5E20AD"/>
<path d="M47.62 34.5168C48.5104 34.5168 49.2324 35.2387 49.2324 36.1293V40.9123C49.2324 41.7924 48.519 42.5058 47.6389 42.5058H20.3815V34.517H47.62V34.5168Z" fill="#A472E4"/>
<path d="M45.1861 49.653C42.0998 49.653 39.5978 47.1511 39.5978 44.0647C39.5978 40.9784 42.0998 38.4764 45.1861 38.4764C48.2724 38.4764 50.7744 40.9784 50.7744 44.0647C50.7744 47.1511 48.2724 49.653 45.1861 49.653Z" fill="#7B6C79"/>
<path d="M45.1861 49.653C42.0998 49.653 39.5978 47.1511 39.5978 44.0647C39.5978 40.9784 42.0998 38.4764 45.1861 38.4764C48.2724 38.4764 50.7744 40.9784 50.7744 44.0647C50.7744 47.1511 48.2724 49.653 45.1861 49.653Z" fill="#CCA4FF"/>
<path d="M45.1863 46.2755C43.9654 46.2755 42.9756 45.2857 42.9756 44.0648C42.9756 42.8439 43.9654 41.8541 45.1863 41.8541C46.4072 41.8541 47.397 42.8439 47.397 44.0648C47.397 45.2857 46.4072 46.2755 45.1863 46.2755Z" fill="#5E20AD"/>
</svg>
