<svg width="33" height="32" viewBox="0 0 33 32" fill="none" xmlns="http://www.w3.org/2000/svg">
<g clipPath="url(#clip0_734_9556)">
<path d="M20.1881 20.8111C20.1195 20.8481 20.0428 20.8674 19.9649 20.8672C19.8437 20.8672 19.7237 20.8203 19.6337 20.7304L16.3874 17.4842C16.2995 17.3961 16.25 17.2767 16.2499 17.1522C16.2499 17.2767 16.2004 17.3961 16.1124 17.4842L12.8662 20.7304C12.8227 20.7738 12.771 20.8083 12.7142 20.8317C12.6573 20.8552 12.5964 20.8673 12.5349 20.8672C12.457 20.8674 12.3803 20.8481 12.3118 20.8111L4.21875 16.4246V25.2799C4.21869 25.2962 4.2195 25.3123 4.22113 25.3282C4.22182 25.3351 4.22313 25.3417 4.22407 25.3484C4.22525 25.3566 4.22619 25.3647 4.22782 25.3728C4.22982 25.3831 4.23257 25.3929 4.23519 25.4028C4.23644 25.4074 4.23738 25.4121 4.23875 25.4166C4.24182 25.4267 4.2455 25.4365 4.24919 25.4463C4.25082 25.4507 4.25219 25.4551 4.254 25.4595C4.25763 25.4683 4.26182 25.4768 4.26594 25.4854C4.2685 25.4906 4.27082 25.4959 4.27357 25.5011C4.27732 25.5081 4.28144 25.5148 4.2855 25.5215C4.28938 25.5279 4.29307 25.5344 4.29719 25.5408C4.30063 25.5461 4.3045 25.5509 4.30819 25.5559C4.3135 25.5634 4.31875 25.5707 4.3245 25.5778C4.32769 25.5817 4.33125 25.5854 4.33457 25.5892C4.34119 25.5969 4.34782 25.6044 4.35494 25.6116C4.35869 25.6154 4.36269 25.6188 4.36657 25.6224C4.37369 25.6291 4.38069 25.6358 4.38825 25.6421C4.39557 25.6482 4.40332 25.6536 4.41094 25.6592C4.41544 25.6626 4.41963 25.6661 4.42425 25.6692C4.43769 25.6783 4.45163 25.6867 4.466 25.6945L16.027 31.9436C16.0955 31.9807 16.1721 32.0001 16.2499 32.0001C16.3277 32.0001 16.4044 31.9807 16.4728 31.9436L28.0338 25.6945C28.0482 25.6867 28.0621 25.6782 28.0756 25.6692C28.0802 25.6661 28.0844 25.6626 28.0889 25.6592C28.0966 25.6536 28.1043 25.6481 28.1116 25.6421C28.1191 25.6358 28.1261 25.6291 28.1333 25.6224C28.1371 25.6188 28.1411 25.6154 28.1448 25.6116C28.1519 25.6044 28.1586 25.5969 28.1652 25.5892C28.1685 25.5854 28.1721 25.5817 28.1753 25.5778C28.181 25.5707 28.1863 25.5634 28.1916 25.5559C28.1953 25.5509 28.1991 25.5461 28.2026 25.5408C28.2067 25.5344 28.2104 25.528 28.2143 25.5215C28.2183 25.5147 28.2225 25.5081 28.2262 25.5011C28.2289 25.4959 28.2313 25.4906 28.2338 25.4854C28.2379 25.4768 28.2421 25.4683 28.2458 25.4595C28.2476 25.4551 28.2489 25.4507 28.2506 25.4463C28.2544 25.4365 28.2579 25.4266 28.261 25.4166C28.2624 25.4121 28.2633 25.4074 28.2646 25.4028C28.2672 25.3929 28.2699 25.3831 28.2719 25.3728C28.2736 25.3647 28.2745 25.3566 28.2757 25.3484C28.2766 25.3417 28.278 25.3351 28.2786 25.3282C28.2803 25.3122 28.2811 25.2961 28.281 25.2799V16.4246L20.1881 20.8111Z" fill="#7F37DB"/>
<path d="M16.0042 4.1277C16.0785 4.0876 16.1406 4.02814 16.1838 3.95563C16.227 3.88312 16.2499 3.80025 16.2498 3.71582C16.25 3.80012 16.2729 3.88281 16.3161 3.95518C16.3594 4.02755 16.4213 4.08693 16.4954 4.12707L28.0579 10.3771C28.1286 10.4153 28.2048 10.4333 28.2811 10.4333C28.2048 10.4333 28.1286 10.4521 28.0579 10.4902L16.4954 16.7402C16.4211 16.7803 16.3591 16.8398 16.3159 16.9123C16.2726 16.9848 16.2498 17.0676 16.2498 17.1521C16.2498 17.0676 16.227 16.9848 16.1838 16.9123C16.1405 16.8398 16.0785 16.7803 16.0042 16.7402L4.44169 10.4902C4.38163 10.4578 4.31537 10.4387 4.24731 10.4339C4.31538 10.4293 4.38166 10.4101 4.44169 10.3777L16.0042 4.1277Z" fill="#4D2A79"/>
<path d="M31.96 6.65041C31.9706 6.72249 31.9643 6.79605 31.9415 6.86526C31.9187 6.93446 31.8801 6.99741 31.8288 7.0491L28.6138 10.2948C28.5703 10.3388 28.5185 10.3738 28.4614 10.3976C28.4043 10.4214 28.3431 10.4336 28.2812 10.4335C28.205 10.4335 28.1287 10.4155 28.0581 10.3773L16.4956 4.12728C16.4215 4.08715 16.3596 4.02777 16.3163 3.95539C16.2731 3.88302 16.2502 3.80033 16.25 3.71603V3.71478C16.25 3.59172 16.2988 3.4716 16.3875 3.3836L19.6338 0.137284C19.7051 0.0658366 19.7976 0.0193841 19.8975 0.00486405C19.9975 -0.00965605 20.0994 0.00853532 20.1881 0.0567213L31.7194 6.30672C31.7835 6.34134 31.8386 6.39043 31.8804 6.45009C31.9221 6.50976 31.9494 6.57835 31.96 6.65041Z" fill="#BF8EFD"/>
<path d="M31.8288 13.8186C31.8801 13.8703 31.9187 13.9333 31.9415 14.0025C31.9643 14.0717 31.9706 14.1453 31.96 14.2174C31.9492 14.2894 31.9219 14.3579 31.8801 14.4176C31.8383 14.4772 31.7833 14.5264 31.7194 14.5612L20.1881 20.8112C20.1196 20.8482 20.0429 20.8675 19.965 20.8673C19.8438 20.8673 19.7238 20.8204 19.6338 20.7305L16.3875 17.4843C16.2995 17.3962 16.2501 17.2768 16.25 17.1523C16.25 17.0679 16.2728 16.9851 16.316 16.9125C16.3593 16.84 16.4213 16.7806 16.4956 16.7405L28.0581 10.4905C28.1266 10.4533 28.2033 10.4337 28.2812 10.4336C28.4031 10.4336 28.5238 10.4817 28.6138 10.5724L31.8288 13.8186Z" fill="#BF8EFD"/>
<path d="M31.8286 13.8183L28.6136 10.5721C28.5701 10.5281 28.5183 10.4933 28.4613 10.4694C28.4042 10.4456 28.343 10.4333 28.2811 10.4333C28.2049 10.4333 28.1286 10.4521 28.058 10.4901L26.8373 11.1504C26.9058 11.1132 26.9825 11.0936 27.0604 11.0935C27.1823 11.0935 27.3029 11.1416 27.3929 11.2323L30.6079 14.4785C30.6593 14.5302 30.6979 14.5932 30.7206 14.6624C30.7434 14.7316 30.7498 14.8052 30.7391 14.8773C30.7283 14.9493 30.701 15.0178 30.6592 15.0775C30.6175 15.1371 30.5625 15.1863 30.4985 15.2211L31.7193 14.5608C31.7832 14.526 31.8382 14.4769 31.88 14.4172C31.9218 14.3576 31.9491 14.2891 31.9599 14.2171C31.9705 14.145 31.9642 14.0714 31.9414 14.0022C31.9186 13.9329 31.88 13.87 31.8286 13.8183ZM16.2499 3.7145V3.71575C16.2499 3.80018 16.2271 3.88305 16.1839 3.95556C16.1406 4.02808 16.0786 4.08754 16.0043 4.12763L4.44178 10.3776C4.3799 10.4108 4.31365 10.4295 4.2474 10.4339C4.23407 10.4333 4.22073 10.4333 4.2074 10.4339C4.08645 10.4313 3.97124 10.3818 3.88615 10.2958L0.67115 7.04944C0.619805 6.99775 0.58121 6.93481 0.558428 6.8656C0.535646 6.7964 0.529302 6.72284 0.5399 6.65075C0.55068 6.57875 0.578023 6.51022 0.619777 6.45057C0.66153 6.39093 0.716556 6.34178 0.780525 6.307L12.3118 0.0570042C12.4005 0.00895844 12.5024 -0.00915368 12.6023 0.00536142C12.7022 0.0198765 12.7947 0.0662435 12.8661 0.137567L16.1124 3.38388C16.2 3.47169 16.2494 3.59049 16.2499 3.7145Z" fill="#C197F5"/>
<path d="M16.2449 17.0847C16.248 17.1073 16.2499 17.1298 16.2499 17.1522C16.2498 17.2767 16.2004 17.3961 16.1124 17.4841L12.8661 20.7303C12.8226 20.7738 12.771 20.8082 12.7141 20.8317C12.6573 20.8552 12.5964 20.8672 12.5349 20.8671C12.457 20.8674 12.3803 20.8481 12.3118 20.811L0.780525 14.561C0.716569 14.5262 0.661553 14.4771 0.619801 14.4174C0.578049 14.3578 0.550699 14.2893 0.5399 14.2173C0.529302 14.1452 0.535645 14.0716 0.558427 14.0024C0.581209 13.9331 0.619803 13.8702 0.67115 13.8185L3.88615 10.5723C3.97126 10.4863 4.08645 10.4367 4.2074 10.4341C4.21115 10.4347 4.2149 10.4347 4.21865 10.4347C4.22803 10.4347 4.2374 10.4347 4.2474 10.4341C4.31365 10.4385 4.3799 10.4573 4.44178 10.4903L16.0043 16.7403C16.0684 16.775 16.1236 16.8242 16.1654 16.884C16.2072 16.9438 16.2344 17.0125 16.2449 17.0847Z" fill="#BF8EFD"/>
<path d="M4.24752 10.4341C4.23752 10.4347 4.22814 10.4347 4.21877 10.4347C4.21502 10.4347 4.21127 10.4347 4.20752 10.4341C4.22064 10.4334 4.23439 10.4334 4.24752 10.4341Z" fill="#E2AE83"/>
<path d="M28.1458 16.4979C28.1397 16.5097 28.1334 16.5141 28.127 16.5082H28.1269L26.406 17.4409V26.2956C26.406 26.3119 26.4053 26.328 26.4037 26.3439C26.403 26.3507 26.4017 26.3574 26.4007 26.3641C26.3995 26.3722 26.3986 26.3804 26.397 26.3885C26.395 26.3987 26.3922 26.4086 26.3896 26.4185C26.3883 26.4231 26.3874 26.4277 26.386 26.4323C26.383 26.4424 26.3793 26.4522 26.3756 26.462C26.374 26.4664 26.3726 26.4708 26.3708 26.4752C26.3672 26.484 26.363 26.4925 26.3588 26.5011C26.3563 26.5063 26.354 26.5116 26.3512 26.5168C26.3475 26.5237 26.3433 26.5305 26.3393 26.5372C26.3355 26.5437 26.3317 26.5501 26.3276 26.5565C26.3242 26.5617 26.3203 26.5666 26.3166 26.5716C26.3114 26.5791 26.3059 26.5864 26.3003 26.5935C26.2971 26.5974 26.2935 26.6011 26.2902 26.6049C26.2835 26.6126 26.277 26.6201 26.2698 26.6273C26.2661 26.6311 26.2621 26.6345 26.2583 26.6381C26.2512 26.6447 26.2442 26.6515 26.2366 26.6577C26.2293 26.6638 26.2215 26.6693 26.2139 26.6749C26.2094 26.6782 26.2052 26.6817 26.2006 26.6849C26.1975 26.6869 26.1942 26.6886 26.1912 26.6906L28.034 25.6944C28.0484 25.6866 28.0623 25.6782 28.0758 25.6692C28.0804 25.666 28.0847 25.6625 28.0891 25.6592C28.0968 25.6536 28.1045 25.6481 28.1118 25.642C28.1193 25.6357 28.1263 25.6291 28.1335 25.6223C28.1373 25.6187 28.1413 25.6154 28.145 25.6116C28.1522 25.6044 28.1588 25.5968 28.1654 25.5891C28.1687 25.5853 28.1723 25.5817 28.1755 25.5777C28.1812 25.5707 28.1865 25.5634 28.1918 25.5559C28.1955 25.5509 28.1993 25.546 28.2028 25.5407C28.2069 25.5344 28.2106 25.5279 28.2145 25.5214C28.2185 25.5147 28.2227 25.508 28.2264 25.5011C28.2292 25.4958 28.2315 25.4906 28.234 25.4853C28.2382 25.4767 28.2423 25.4682 28.246 25.4594C28.2478 25.4551 28.2492 25.4506 28.2508 25.4462C28.2546 25.4365 28.2581 25.4266 28.2612 25.4166C28.2626 25.4121 28.2635 25.4074 28.2648 25.4027C28.2674 25.3929 28.2702 25.383 28.2722 25.3727C28.2738 25.3647 28.2747 25.3565 28.2759 25.3483C28.2768 25.3416 28.2782 25.335 28.2788 25.3282C28.2805 25.3122 28.2813 25.2961 28.2812 25.2799V16.4246L28.1458 16.4979Z" fill="#B07FEF"/>
<path d="M16.1124 17.4842L12.8662 20.7304C12.8227 20.7738 12.771 20.8083 12.7142 20.8317C12.6573 20.8552 12.5964 20.8673 12.5349 20.8672C12.457 20.8674 12.3803 20.8481 12.3118 20.8111L4.21875 16.4246V25.2799C4.21869 25.2962 4.2195 25.3123 4.22113 25.3282C4.22182 25.3351 4.22313 25.3417 4.22407 25.3484C4.22525 25.3566 4.22619 25.3647 4.22782 25.3728C4.22982 25.3831 4.23257 25.3929 4.23519 25.4028C4.23644 25.4074 4.23738 25.4121 4.23875 25.4166C4.24182 25.4267 4.2455 25.4365 4.24919 25.4463C4.25082 25.4507 4.25219 25.4551 4.254 25.4595C4.25763 25.4683 4.26182 25.4768 4.26594 25.4854C4.2685 25.4906 4.27082 25.4959 4.27357 25.5011C4.27732 25.5081 4.28144 25.5148 4.2855 25.5215C4.28938 25.5279 4.29307 25.5344 4.29719 25.5408C4.30063 25.5461 4.3045 25.5509 4.30819 25.5559C4.3135 25.5634 4.31875 25.5707 4.3245 25.5778C4.32769 25.5817 4.33125 25.5854 4.33457 25.5892C4.34119 25.5969 4.34782 25.6044 4.35494 25.6116C4.35869 25.6154 4.36269 25.6188 4.36657 25.6224C4.37369 25.6291 4.38069 25.6358 4.38825 25.6421C4.39557 25.6482 4.40332 25.6536 4.41094 25.6592C4.41544 25.6626 4.41963 25.6661 4.42425 25.6692C4.43769 25.6783 4.45163 25.6867 4.466 25.6945L16.027 31.9436C16.0955 31.9806 16.1721 32 16.2499 32V17.1522C16.2499 17.2767 16.2004 17.3961 16.1124 17.4842Z" fill="#B080EF"/>
</g>
<defs>
<clipPath id="clip0_734_9556">
<rect width="32" height="32" fill="white" transform="translate(0.25)"/>
</clipPath>
</defs>
</svg>
