<svg width="40" height="40" viewBox="0 0 40 40" fill="none" xmlns="http://www.w3.org/2000/svg">
<g clipPath="url(#clip0_682_12046)">
<path d="M24.9226 26.0139C24.8369 26.0602 24.741 26.0843 24.6437 26.084C24.4921 26.084 24.3421 26.0255 24.2296 25.913L20.1718 21.8553C20.0618 21.7452 20 21.596 19.9999 21.4404C19.9998 21.596 19.938 21.7452 19.8281 21.8553L15.7702 25.913C15.7158 25.9673 15.6513 26.0104 15.5802 26.0397C15.5092 26.0691 15.433 26.0841 15.3562 26.084C15.2588 26.0843 15.1629 26.0602 15.0773 26.0139L4.96094 20.5308V31.6C4.96086 31.6203 4.96188 31.6405 4.96391 31.6604C4.96477 31.6689 4.96641 31.6772 4.96758 31.6855C4.96907 31.6958 4.97024 31.706 4.97227 31.7161C4.97477 31.7289 4.97821 31.7412 4.98149 31.7536C4.98305 31.7594 4.98422 31.7651 4.98594 31.7708C4.98977 31.7835 4.99438 31.7957 4.99899 31.808C5.00102 31.8134 5.00274 31.819 5.005 31.8244C5.00954 31.8355 5.01477 31.8461 5.01993 31.8568C5.02313 31.8633 5.02602 31.8699 5.02946 31.8765C5.03414 31.8851 5.0393 31.8936 5.04438 31.9019C5.04922 31.91 5.05383 31.9181 5.05899 31.9261C5.06329 31.9326 5.06813 31.9387 5.07274 31.945C5.07938 31.9543 5.08594 31.9634 5.09313 31.9723C5.09711 31.9772 5.10157 31.9818 5.10571 31.9865C5.11399 31.9962 5.12227 32.0056 5.13118 32.0146C5.13586 32.0194 5.14086 32.0236 5.14571 32.028C5.15461 32.0365 5.16336 32.0448 5.17282 32.0526C5.18196 32.0603 5.19164 32.0671 5.20118 32.0741C5.2068 32.0783 5.21204 32.0826 5.21782 32.0866C5.23461 32.098 5.25204 32.1084 5.27 32.1182L19.7213 39.9296C19.8068 39.9759 19.9026 40.0001 19.9999 40.0001C20.0972 40.0001 20.1929 39.9759 20.2785 39.9296L34.7298 32.1182C34.7477 32.1084 34.7652 32.0979 34.782 32.0866C34.7877 32.0826 34.7931 32.0783 34.7986 32.0741C34.8082 32.0671 34.8179 32.0602 34.827 32.0526C34.8364 32.0448 34.8452 32.0365 34.8541 32.028C34.8588 32.0236 34.8639 32.0194 34.8685 32.0146C34.8774 32.0056 34.8857 31.9962 34.894 31.9865C34.8981 31.9818 34.9026 31.9772 34.9066 31.9723C34.9138 31.9635 34.9203 31.9544 34.927 31.945C34.9316 31.9387 34.9364 31.9326 34.9407 31.9261C34.9459 31.9181 34.9505 31.9101 34.9553 31.9019C34.9604 31.8935 34.9656 31.8851 34.9702 31.8765C34.9737 31.8699 34.9766 31.8633 34.9798 31.8568C34.9849 31.8461 34.9902 31.8355 34.9947 31.8244C34.997 31.819 34.9987 31.8134 35.0007 31.808C35.0055 31.7957 35.0098 31.7834 35.0138 31.7708C35.0155 31.7652 35.0166 31.7594 35.0182 31.7536C35.0215 31.7412 35.0249 31.7289 35.0274 31.7161C35.0295 31.706 35.0306 31.6958 35.0321 31.6855C35.0333 31.6772 35.035 31.6689 35.0358 31.6604C35.0378 31.6404 35.0388 31.6202 35.0388 31.6V20.5308L24.9226 26.0139Z" fill="#7F37DB"/>
<path d="M19.6929 5.15962C19.7858 5.1095 19.8634 5.03518 19.9174 4.94454C19.9715 4.8539 20 4.75031 19.9999 4.64478C20.0002 4.75015 20.0288 4.85351 20.0829 4.94397C20.1369 5.03444 20.2143 5.10867 20.307 5.15884L34.7601 12.9713C34.8484 13.0191 34.9437 13.0417 35.039 13.0417C34.9437 13.0417 34.8484 13.0652 34.7601 13.1127L20.307 20.9252C20.2141 20.9754 20.1366 21.0497 20.0825 21.1403C20.0284 21.231 19.9999 21.3346 19.9999 21.4401C20 21.3346 19.9715 21.231 19.9174 21.1403C19.8633 21.0497 19.7858 20.9754 19.6929 20.9252L5.23979 13.1127C5.16473 13.0723 5.08189 13.0483 4.99683 13.0424C5.08191 13.0366 5.16476 13.0126 5.23979 12.9721L19.6929 5.15962Z" fill="#4D2A79"/>
<path d="M39.6375 8.31301C39.6507 8.40311 39.6428 8.49507 39.6143 8.58157C39.5859 8.66808 39.5376 8.74676 39.4734 8.81137L35.4547 12.8686C35.4004 12.9236 35.3356 12.9672 35.2643 12.997C35.1929 13.0267 35.1164 13.042 35.0391 13.0419C34.9438 13.0419 34.8484 13.0193 34.7602 12.9716L20.307 5.15911C20.2144 5.10893 20.1369 5.03471 20.0829 4.94424C20.0289 4.85378 20.0002 4.75042 20 4.64504V4.64348C20 4.48965 20.0609 4.3395 20.1719 4.2295L24.2297 0.171605C24.3189 0.0822957 24.4345 0.0242302 24.5594 0.00608006C24.6843 -0.0120701 24.8117 0.0106692 24.9227 0.0709017L39.3367 7.8834C39.4168 7.92667 39.4857 7.98804 39.5379 8.06262C39.5902 8.1372 39.6242 8.22294 39.6375 8.31301Z" fill="#BF8EFD"/>
<path d="M39.4734 17.273C39.5376 17.3376 39.5859 17.4163 39.6143 17.5029C39.6428 17.5894 39.6507 17.6814 39.6375 17.7715C39.624 17.8615 39.5898 17.9472 39.5376 18.0217C39.4854 18.0963 39.4167 18.1577 39.3367 18.2012L24.9227 26.0137C24.837 26.06 24.7411 26.0841 24.6438 26.0839C24.4922 26.0839 24.3422 26.0253 24.2297 25.9128L20.1719 21.8551C20.0619 21.745 20.0001 21.5958 20 21.4402C20 21.3347 20.0285 21.2311 20.0826 21.1404C20.1366 21.0498 20.2142 20.9755 20.307 20.9253L34.7602 13.1128C34.8458 13.0663 34.9416 13.0419 35.0391 13.0417C35.1914 13.0417 35.3422 13.1019 35.4547 13.2153L39.4734 17.273Z" fill="#BF8EFD"/>
<path d="M39.4734 17.2727L35.4546 13.215C35.4002 13.1601 35.3355 13.1165 35.2641 13.0867C35.1928 13.0569 35.1163 13.0415 35.039 13.0414C34.9437 13.0414 34.8484 13.065 34.7601 13.1125L33.2342 13.9379C33.3198 13.8913 33.4156 13.8669 33.5131 13.8668C33.6654 13.8668 33.8162 13.9269 33.9287 14.0403L37.9474 18.098C38.0116 18.1626 38.0599 18.2413 38.0884 18.3279C38.1168 18.4144 38.1248 18.5064 38.1115 18.5965C38.098 18.6865 38.0638 18.7722 38.0116 18.8467C37.9594 18.9213 37.8907 18.9827 37.8107 19.0262L39.3367 18.2009C39.4166 18.1574 39.4854 18.096 39.5376 18.0214C39.5897 17.9469 39.6239 17.8612 39.6374 17.7712C39.6507 17.6811 39.6428 17.5891 39.6143 17.5026C39.5858 17.416 39.5376 17.3373 39.4734 17.2727ZM19.9999 4.64301V4.64457C20 4.75011 19.9715 4.85369 19.9174 4.94433C19.8634 5.03498 19.7858 5.1093 19.6929 5.15941L5.23978 12.9719C5.16244 13.0134 5.07962 13.0368 4.99681 13.0422C4.98015 13.0414 4.96347 13.0414 4.94681 13.0422C4.79562 13.039 4.65161 12.9772 4.54525 12.8696L0.526498 8.81168C0.462317 8.74707 0.414074 8.66839 0.385596 8.58188C0.357118 8.49538 0.349188 8.40343 0.362436 8.31332C0.375911 8.22331 0.410089 8.13766 0.462282 8.0631C0.514474 7.98854 0.583257 7.9271 0.663217 7.88363L15.0773 0.0711331C15.1882 0.011076 15.3156 -0.0115642 15.4405 0.0065797C15.5653 0.0247236 15.681 0.0826823 15.7702 0.171836L19.8281 4.22973C19.9375 4.33949 19.9993 4.48799 19.9999 4.64301Z" fill="#C197F5"/>
<path d="M19.9937 21.356C19.9976 21.3842 19.9999 21.4123 19.9999 21.4404C19.9999 21.596 19.938 21.7452 19.8281 21.8553L15.7702 25.913C15.7158 25.9673 15.6513 26.0104 15.5802 26.0397C15.5092 26.0691 15.4331 26.0841 15.3562 26.0841C15.2588 26.0843 15.1629 26.0602 15.0773 26.0139L0.663218 18.2014C0.583272 18.1579 0.514502 18.0965 0.462312 18.0219C0.410122 17.9474 0.375935 17.8617 0.362437 17.7717C0.349188 17.6816 0.357117 17.5896 0.385595 17.5031C0.414072 17.4165 0.462315 17.3378 0.526499 17.2732L4.54525 13.2155C4.65163 13.108 4.79562 13.046 4.94681 13.0427C4.9515 13.0435 4.95619 13.0435 4.96087 13.0435C4.97259 13.0435 4.98431 13.0435 4.99681 13.0427C5.07962 13.0482 5.16244 13.0717 5.23978 13.113L19.6929 20.9255C19.7731 20.9689 19.8421 21.0304 19.8943 21.1051C19.9465 21.1799 19.9806 21.2658 19.9937 21.356Z" fill="#BF8EFD"/>
<path d="M4.99678 13.0426C4.98428 13.0434 4.97256 13.0434 4.96084 13.0434C4.95615 13.0434 4.95146 13.0434 4.94678 13.0426C4.96318 13.0418 4.98037 13.0418 4.99678 13.0426Z" fill="#E2AE83"/>
<path d="M34.8699 20.6225C34.8622 20.6372 34.8543 20.6426 34.8463 20.6353H34.8462L32.6951 21.8012V32.8696C32.6951 32.8899 32.6942 32.9101 32.6921 32.93C32.6913 32.9385 32.6896 32.9468 32.6885 32.9551C32.687 32.9654 32.6858 32.9756 32.6838 32.9857C32.6813 32.9985 32.6778 33.0108 32.6746 33.0232C32.673 33.029 32.6718 33.0347 32.6701 33.0404C32.6663 33.0531 32.6617 33.0653 32.6571 33.0776C32.655 33.083 32.6533 33.0886 32.651 33.094C32.6465 33.1051 32.6413 33.1157 32.6361 33.1264C32.633 33.1329 32.63 33.1395 32.6266 33.1461C32.6219 33.1547 32.6167 33.1632 32.6117 33.1715C32.6069 33.1797 32.6022 33.1877 32.5971 33.1957C32.5928 33.2022 32.5879 33.2083 32.5833 33.2146C32.5768 33.2239 32.57 33.233 32.5629 33.2419C32.5589 33.2469 32.5545 33.2514 32.5503 33.2562C32.542 33.2658 32.5338 33.2752 32.5249 33.2842C32.5202 33.289 32.5152 33.2932 32.5104 33.2976C32.5015 33.306 32.4928 33.3144 32.4833 33.3222C32.4742 33.3298 32.4645 33.3367 32.4549 33.3437C32.4493 33.3478 32.4441 33.3522 32.4383 33.3562C32.4345 33.3587 32.4303 33.3608 32.4265 33.3633L34.7301 32.1181C34.7481 32.1083 34.7655 32.0978 34.7823 32.0865C34.7881 32.0826 34.7934 32.0782 34.7989 32.074C34.8085 32.067 34.8182 32.0601 34.8273 32.0526C34.8367 32.0447 34.8455 32.0364 34.8544 32.0279C34.8592 32.0235 34.8642 32.0193 34.8689 32.0145C34.8778 32.0055 34.886 31.9961 34.8943 31.9865C34.8985 31.9817 34.9029 31.9772 34.9069 31.9722C34.9141 31.9634 34.9207 31.9543 34.9273 31.9449C34.9319 31.9387 34.9367 31.9326 34.941 31.926C34.9462 31.918 34.9508 31.91 34.9557 31.9019C34.9607 31.8934 34.966 31.8851 34.9706 31.8764C34.974 31.8698 34.9769 31.8633 34.9801 31.8567C34.9853 31.846 34.9905 31.8354 34.995 31.8244C34.9973 31.8189 34.999 31.8133 35.001 31.8079C35.0058 31.7957 35.0102 31.7833 35.0141 31.7708C35.0158 31.7651 35.017 31.7593 35.0185 31.7535C35.0218 31.7412 35.0253 31.7288 35.0278 31.716C35.0298 31.7059 35.031 31.6957 35.0325 31.6854C35.0336 31.6771 35.0353 31.6688 35.0361 31.6603C35.0382 31.6403 35.0392 31.6201 35.0391 31.5999V20.5308L34.8699 20.6225Z" fill="#B07FEF"/>
<path d="M19.8281 21.8553L15.7702 25.913C15.7158 25.9673 15.6513 26.0104 15.5802 26.0397C15.5092 26.0691 15.433 26.0841 15.3562 26.084C15.2588 26.0843 15.1629 26.0602 15.0773 26.0139L4.96094 20.5308V31.6C4.96086 31.6203 4.96188 31.6404 4.96391 31.6604C4.96477 31.6689 4.96641 31.6772 4.96758 31.6855C4.96907 31.6958 4.97024 31.706 4.97227 31.7161C4.97477 31.7289 4.97821 31.7412 4.98149 31.7536C4.98305 31.7594 4.98422 31.7651 4.98594 31.7708C4.98977 31.7835 4.99438 31.7957 4.99899 31.808C5.00102 31.8134 5.00274 31.819 5.005 31.8244C5.00954 31.8355 5.01477 31.8461 5.01993 31.8568C5.02313 31.8633 5.02602 31.8699 5.02946 31.8765C5.03414 31.8851 5.0393 31.8936 5.04438 31.9019C5.04922 31.91 5.05383 31.9181 5.05899 31.9261C5.06329 31.9326 5.06813 31.9387 5.07274 31.945C5.07938 31.9543 5.08594 31.9634 5.09313 31.9723C5.09711 31.9772 5.10157 31.9818 5.10571 31.9865C5.11399 31.9962 5.12227 32.0056 5.13118 32.0146C5.13586 32.0194 5.14086 32.0236 5.14571 32.028C5.15461 32.0365 5.16336 32.0448 5.17282 32.0526C5.18196 32.0603 5.19164 32.0671 5.20118 32.0741C5.2068 32.0783 5.21204 32.0826 5.21782 32.0866C5.23461 32.0979 5.25204 32.1084 5.27 32.1182L19.7213 39.9296C19.8068 39.9759 19.9026 40.0001 19.9999 40.0001V21.4404C19.9998 21.596 19.938 21.7452 19.8281 21.8553Z" fill="#B080EF"/>
</g>
<defs>
<clipPath id="clip0_682_12046">
<rect width="40" height="40" fill="white"/>
</clipPath>
</defs>
</svg>
