<svg width="56" height="56" viewBox="0 0 56 56" fill="none" xmlns="http://www.w3.org/2000/svg">
<path d="M50.794 25.4054C50.6209 25.2328 50.3864 25.136 50.1419 25.1361H50.1397L49.0691 25.1394C47.4883 25.1394 46.049 24.3307 45.2186 22.9763L44.825 22.334C44.7425 22.1992 44.6267 22.0878 44.4888 22.0105C44.3509 21.9332 44.1955 21.8926 44.0374 21.8926C43.8793 21.8926 43.7238 21.9332 43.5859 22.0105C43.448 22.0878 43.3323 22.1992 43.2498 22.334L42.8559 22.9763C42.0258 24.3307 40.5862 25.1394 39.0055 25.1394H38.446C36.8654 25.1394 35.4258 24.3308 34.5957 22.9765L34.202 22.3342C34.1195 22.1995 34.0037 22.0881 33.8658 22.0109C33.728 21.9336 33.5725 21.8931 33.4145 21.8931C33.2564 21.8931 33.101 21.9336 32.9631 22.0109C32.8253 22.0881 32.7095 22.1995 32.6269 22.3342L32.2332 22.9765C31.4029 24.3308 29.9637 25.1394 28.3826 25.1394H27.8237C26.2432 25.1394 24.8039 24.3307 23.9733 22.9765L23.5798 22.3338C23.4971 22.1991 23.3813 22.0878 23.2435 22.0107C23.1056 21.9335 22.9502 21.893 22.7922 21.893C22.6341 21.893 22.4788 21.9335 22.3409 22.0107C22.203 22.0878 22.0872 22.1991 22.0046 22.3338L21.6109 22.9765C20.7804 24.3307 19.3409 25.1394 17.7603 25.1394H17.201C15.6203 25.1394 14.1808 24.3307 13.3506 22.9763L12.9569 22.334C12.8744 22.1992 12.7587 22.0878 12.6208 22.0105C12.4829 21.9332 12.3274 21.8926 12.1693 21.8926C12.0112 21.8926 11.8558 21.9332 11.7179 22.0105C11.58 22.0878 11.4642 22.1992 11.3817 22.334L10.988 22.9763C10.1578 24.3307 8.71855 25.1394 7.14147 25.1394L6.06785 25.1361C5.81946 25.1318 5.5866 25.232 5.41269 25.4054C5.32662 25.4912 5.25832 25.5932 5.21172 25.7055C5.16512 25.8178 5.14113 25.9382 5.14111 26.0598V53.0945C5.14117 53.3395 5.23852 53.5744 5.41175 53.7476C5.58499 53.9209 5.81992 54.0182 6.06489 54.0182H33.011C33.2559 54.0182 33.4908 53.9208 33.664 53.7476C33.8372 53.5744 33.9345 53.3395 33.9345 53.0945V33.3006H45.1856V53.0945C45.1856 53.3395 45.283 53.5745 45.4562 53.7477C45.6294 53.9209 45.8644 54.0182 46.1094 54.0182H50.1421C50.2634 54.0182 50.3835 53.9943 50.4956 53.9479C50.6077 53.9015 50.7095 53.8334 50.7952 53.7477C50.881 53.6619 50.949 53.5601 50.9954 53.448C51.0418 53.3359 51.0657 53.2158 51.0657 53.0945V26.0597C51.0656 25.9381 51.0416 25.8178 50.9949 25.7055C50.9483 25.5932 50.8801 25.4912 50.794 25.4054ZM28.2445 33.3007V43.1976H11.3547V33.3007H28.2445Z" fill="#B77FFD"/>
<path opacity="0.15" d="M7.35453 53.0946V26.0598C7.35453 25.8142 7.45253 25.5788 7.62611 25.4054C7.80013 25.232 8.03299 25.1318 8.28127 25.1361L8.52069 25.1368C8.5278 25.1368 8.53469 25.136 8.54191 25.1361L9.37797 25.1386C10.946 25.1308 12.3753 21.3994 13.2015 20.0517L13.2761 19.9301L12.9569 19.4092C12.8744 19.2744 12.7587 19.163 12.6208 19.0857C12.4829 19.0084 12.3274 18.9678 12.1693 18.9678C12.0112 18.9678 11.8558 19.0084 11.7179 19.0857C11.58 19.163 11.4642 19.2744 11.3817 19.4092L10.988 20.0515C10.1578 21.4058 8.71855 25.139 7.14147 25.139L6.06785 25.1358C5.81946 25.1315 5.5866 25.2317 5.41269 25.405C5.32662 25.4909 5.25832 25.5929 5.21172 25.7052C5.16512 25.8175 5.14113 25.9379 5.14111 26.0594V53.0942C5.14117 53.3392 5.23852 53.5741 5.41175 53.7473C5.58499 53.9205 5.81992 54.0178 6.06489 54.0179H8.27854C8.15723 54.018 8.03709 53.9942 7.92499 53.9478C7.81289 53.9015 7.71103 53.8335 7.62522 53.7477C7.5394 53.662 7.47133 53.5602 7.42489 53.4481C7.37844 53.3361 7.35453 53.2159 7.35453 53.0946Z" fill="#30302F"/>
<path d="M45.0736 20.7562L44.3081 14.6659C44.2863 14.4915 44.2281 14.3236 44.1374 14.1731C44.0467 14.0225 43.9254 13.8927 43.7815 13.7919C43.783 13.7678 43.785 13.744 43.785 13.7195C43.7854 13.4453 43.6961 13.1784 43.5306 12.9597L40.1803 7.86174C40.0654 7.68715 39.909 7.54381 39.7251 7.44462C39.5411 7.34542 39.3354 7.29347 39.1265 7.29343H32.5049C32.318 7.29346 32.1335 7.33502 31.9647 7.41509C31.7959 7.49516 31.6469 7.61174 31.5287 7.75641C31.4104 7.90109 31.3258 8.07023 31.2809 8.25161C31.236 8.433 31.232 8.62209 31.2692 8.80521L32.3173 13.9707C32.3488 14.1255 32.4093 14.2729 32.4956 14.4052C32.4405 14.561 32.4166 14.7261 32.4252 14.8911L32.7487 20.8987C32.7593 24.1322 35.3929 26.7592 38.6289 26.7592H39.2032C42.3908 26.7592 45.0284 24.1666 45.0828 20.9756L45.0835 20.9311C45.0842 20.8726 45.0809 20.8142 45.0736 20.7562ZM23.4945 7.29321H16.8732C16.4489 7.29321 16.0528 7.50704 15.8197 7.86153L12.4253 13.027C12.2776 13.2529 12.2064 13.5202 12.2222 13.7897C12.0773 13.8903 11.9552 14.0203 11.8638 14.1712C11.7724 14.3221 11.7138 14.4906 11.6918 14.6656L10.9294 20.7316L10.9266 20.7536C10.9191 20.8122 10.9157 20.8711 10.9167 20.9304L10.9171 20.9802C10.9715 24.1666 13.609 26.7588 16.7965 26.7588H17.3708C20.6014 26.7588 23.232 24.1406 23.2511 20.9144L23.5745 14.8904C23.5831 14.7254 23.5593 14.5604 23.5043 14.4046C23.5903 14.2722 23.6508 14.1249 23.6826 13.9702L24.7306 8.80478C24.7677 8.62163 24.7637 8.43253 24.7188 8.25114C24.6738 8.06975 24.5892 7.90061 24.4709 7.75596C24.3526 7.6113 24.2036 7.49475 24.0347 7.41472C23.8659 7.33469 23.6813 7.29319 23.4945 7.29321Z" fill="#914DE8"/>
<path d="M16.663 7.95576C16.555 7.75549 16.3948 7.58818 16.1995 7.47155C16.0041 7.35492 15.7808 7.29332 15.5533 7.29327H9.10082C8.79009 7.29327 8.49051 7.40834 8.25918 7.61538L2.90276 12.416L2.90254 12.4162L2.62637 12.6634H2.62626L2.49589 12.7804C2.48375 12.791 2.47303 12.8031 2.46154 12.8143C2.40496 12.867 2.34903 12.9204 2.29376 12.9744C1.57317 13.7605 1.0909 14.7351 0.903167 15.7848L0.0295889 20.6488L0.0187607 20.7114C0.0044862 20.7934 -0.00166855 20.8767 0.000385735 20.9599L0.00180761 21.0232C0.0784795 24.186 2.71551 26.7587 5.87995 26.7587H6.4546C9.6816 26.7587 12.3101 24.1457 12.3348 20.9244L13.0108 15.5479L13.162 14.4799C13.1799 14.458 13.1967 14.4353 13.2126 14.4119L18.5912 6.32148C18.8455 5.93451 16.8831 8.36362 16.663 7.95576ZM39.3367 7.95576C39.4447 7.75549 39.6049 7.58817 39.8003 7.47154C39.9956 7.35491 40.2189 7.29331 40.4465 7.29327H46.8987C47.2094 7.29339 47.5091 7.40808 47.7405 7.61538L53.0969 12.4161L53.0971 12.4163L53.3734 12.6635L53.5038 12.7805C53.5159 12.7911 53.5266 12.8033 53.5381 12.8144C53.5964 12.8688 53.6524 12.9223 53.7058 12.9745C54.4265 13.7605 54.9088 14.7352 55.0965 15.7849L55.9701 20.6489L55.9809 20.7115C55.9951 20.7934 56.0013 20.8764 55.9993 20.96L55.9979 21.0233C55.9212 24.1861 53.2842 26.7589 50.1196 26.7589H49.5451C46.3179 26.7589 43.6896 24.1458 43.6647 20.9245L42.9889 15.548L42.8377 14.48C42.8198 14.4581 42.8029 14.4355 42.7871 14.4121L37.4087 6.3218C37.1544 5.93451 39.1169 8.36362 39.3367 7.95576ZM34.1672 20.9225C34.1672 20.9101 34.1672 20.8983 34.1668 20.8862L34.166 20.8572C34.166 20.8436 34.1652 20.8297 34.1646 20.8164L33.895 15.8036L33.8947 15.7951L33.8388 14.7552C33.8381 14.7443 33.8357 14.7343 33.8347 14.7234L33.8068 14.2237L33.6813 13.5747C33.6748 13.5194 33.6648 13.4646 33.6511 13.4106L33.6133 13.2236L33.6131 13.2223L32.6149 8.30357C32.557 8.01847 32.4024 7.76213 32.1772 7.57799C31.952 7.39385 31.67 7.29323 31.3791 7.29316H24.6206C24.3297 7.29329 24.0478 7.39395 23.8226 7.57808C23.5974 7.76221 23.4428 8.0185 23.3849 8.30357L22.3867 13.2223L22.3865 13.2236L22.3484 13.4106C22.335 13.4641 22.3248 13.5188 22.3186 13.5747L22.1928 14.2237L22.1649 14.7234C22.1641 14.7343 22.1617 14.7443 22.1611 14.7552L22.1049 15.7951L22.1046 15.8036L21.8351 20.8164C21.8342 20.83 21.8337 20.8436 21.8336 20.8572L21.8328 20.8862C21.8326 20.8983 21.8326 20.9101 21.8326 20.9225C21.8548 23.9398 24.1742 26.4295 27.1164 26.7288C27.3145 26.7488 27.5135 26.7588 27.7126 26.7587H28.2869C28.4882 26.7587 28.6872 26.7487 28.8832 26.7288C31.8254 26.4296 34.145 23.9398 34.1672 20.9225Z" fill="#5D14BA"/>
<g opacity="0.15">
<path d="M18.5909 6.32183C18.7304 6.10931 18.2029 6.74401 17.6619 7.29341H17.9447L18.5909 6.32183ZM20.2074 8.11241C20.4054 7.98986 20.6335 7.92456 20.8663 7.92373H19.5462C19.7842 7.92384 20.0119 7.99166 20.2074 8.11241ZM18.6599 7.48186C18.8558 7.36187 19.0824 7.29319 19.3187 7.29319H17.9988C18.2368 7.29319 18.4645 7.36122 18.6599 7.48186ZM2.44721 21.0234L2.44579 20.96C2.44374 20.8768 2.4499 20.7936 2.46417 20.7115L2.47499 20.649L3.34857 15.785C3.5363 14.7353 4.01858 13.7606 4.73917 12.9746C4.79265 12.9222 4.84854 12.8688 4.90695 12.8144C4.91854 12.8032 4.92926 12.7911 4.94129 12.7805L5.07167 12.6635L5.34795 12.4163L5.34817 12.4161L10.7047 7.6153C10.9361 7.40807 11.2357 7.2934 11.5463 7.29319H9.10071C8.78998 7.29319 8.4904 7.40825 8.25907 7.6153L2.90276 12.416L2.90254 12.4162L2.62637 12.6634H2.62626L2.49589 12.7804C2.48374 12.791 2.47303 12.8032 2.46154 12.8143C2.40496 12.867 2.34903 12.9204 2.29376 12.9745C1.57317 13.7605 1.0909 14.7352 0.903167 15.7848L0.0295889 20.6489L0.0187607 20.7114C0.0044862 20.7935 -0.00166855 20.8767 0.000385735 20.9599L0.00180761 21.0233C0.0784795 24.186 2.71551 26.7588 5.87995 26.7588H6.4546C6.69282 26.7588 6.92732 26.7419 7.15821 26.7141C7.08227 26.6737 7.00719 26.6317 6.93301 26.5881C4.42209 25.9663 2.51218 23.7078 2.44721 21.0234Z" fill="#30302F"/>
</g>
<path d="M48.2413 8.09422V2.95064C48.2413 2.82341 48.2163 2.69742 48.1676 2.57987C48.119 2.46232 48.0476 2.35551 47.9576 2.26553C47.8677 2.17556 47.7609 2.10418 47.6434 2.05548C47.5258 2.00678 47.3998 1.9817 47.2726 1.98169H8.81482C8.68759 1.98169 8.5616 2.00675 8.44406 2.05545C8.32652 2.10415 8.21973 2.17553 8.12978 2.26551C8.03983 2.35549 7.96849 2.46231 7.91983 2.57987C7.87117 2.69742 7.84615 2.82341 7.84619 2.95064V8.09433L48.2413 8.09422Z" fill="#B77FFD"/>
<path d="M45.0833 6.01928H11.1234C10.8937 6.01928 10.6734 5.92804 10.511 5.76563C10.3486 5.60321 10.2573 5.38294 10.2573 5.15325C10.2573 4.92356 10.3486 4.70329 10.511 4.54087C10.6734 4.37846 10.8937 4.28722 11.1234 4.28722H45.0833C45.1982 4.28539 45.3123 4.30644 45.419 4.34915C45.5256 4.39185 45.6228 4.45535 45.7046 4.53595C45.7865 4.61655 45.8516 4.71264 45.896 4.81862C45.9403 4.9246 45.9632 5.03835 45.9632 5.15325C45.9632 5.26815 45.9403 5.3819 45.896 5.48788C45.8516 5.59386 45.7865 5.68995 45.7046 5.77055C45.6228 5.85115 45.5256 5.91465 45.419 5.95735C45.3123 6.00006 45.1982 6.02111 45.0833 6.01928Z" fill="#5D14BA"/>
<path d="M32.8953 32.2617V54.0183H46.2249V32.2617H32.8953Z" fill="#5D14BA"/>
<path d="M32.8953 32.2617V54.0183H35.089V34.454H46.2249V32.2617H32.8953Z" fill="#914DE8"/>
<path d="M10.3162 32.262H29.2839V44.2378H10.3162V32.262Z" fill="#5D14BA"/>
<path opacity="0.15" d="M12.523 44.2369V34.4405H29.2837V32.2617H10.3157V44.2369H10.4223H12.523Z" fill="#914DE8"/>
<path d="M32.8958 36.7644H46.2253V38.7287H32.8958V36.7644Z" fill="#914DE8"/>
</svg>
