<svg width="56" height="56" viewBox="0 0 56 56" fill="none" xmlns="http://www.w3.org/2000/svg">
<g clipPath="url(#clip0_470_11624)">
<path d="M10.6641 9.78479L4.64674 13.1613C3.8787 13.5924 3.40259 14.4082 3.40259 15.2933V54.7696H10.6641L13.4054 53.9493V14.0905L10.6641 9.78479Z" fill="#5D14BA"/>
<path d="M51.3535 13.1613L29.1811 0.719206C28.8205 0.516662 28.4138 0.410278 28.0002 0.410278C27.5865 0.410278 27.1799 0.516662 26.8192 0.719206L10.6641 9.78473V54.7697H52.5979V15.2933C52.5978 14.4082 52.1216 13.5923 51.3535 13.1613Z" fill="#B77FFD"/>
<path d="M15.046 24.275L10.6641 27.2037V54.7696H45.3363V27.2037L41.9525 24.275H15.046Z" fill="#914DE8"/>
<path d="M43.9363 19.3176H12.0641C11.2909 19.3176 10.6641 19.9445 10.6641 20.7176V27.2036H24.5918L26.8313 25.3442H29.4563L31.4085 27.2036H45.3363V20.7176C45.3363 19.9445 44.7094 19.3176 43.9363 19.3176Z" fill="#5D14BA"/>
<path d="M32.8892 31.3914H29.9071L29.1826 32.3779H27.1318L26.0928 31.3914H23.1107C22.3941 31.3914 21.813 31.9724 21.813 32.689V43.0805L22.8479 44.0538H32.8467L34.1868 43.0805V32.689C34.1868 31.9724 33.6058 31.3914 32.8892 31.3914Z" fill="#B77FFD"/>
<path d="M34.9272 14.9718H30.4064C30.1888 14.9718 29.9802 14.8854 29.8263 14.7315C29.6725 14.5777 29.5861 14.369 29.5861 14.1515V9.59925C29.5861 9.14611 29.9534 8.77893 30.4064 8.77893C30.8594 8.77893 31.2267 9.14611 31.2267 9.59925V13.3311H34.9272C35.1448 13.3311 35.3535 13.4175 35.5073 13.5713C35.6612 13.7252 35.7476 13.9339 35.7476 14.1514C35.7476 14.369 35.6612 14.5777 35.5073 14.7315C35.3535 14.8854 35.1448 14.9718 34.9272 14.9718ZM25.5938 14.9718H21.073C20.62 14.9718 20.2527 14.6046 20.2527 14.1515C20.2527 13.6983 20.62 13.3312 21.073 13.3312H24.7735V9.59925C24.7735 9.14611 25.1408 8.77893 25.5938 8.77893C26.0469 8.77893 26.4142 9.14611 26.4142 9.59925V14.1514C26.4142 14.2591 26.393 14.3658 26.3518 14.4653C26.3105 14.5649 26.2501 14.6553 26.1739 14.7315C26.0978 14.8077 26.0073 14.8681 25.9078 14.9093C25.8083 14.9506 25.7016 14.9718 25.5938 14.9718Z" fill="#5D14BA"/>
<path d="M30.3532 23.4849H25.647C25.0643 23.4849 24.5918 23.9573 24.5918 24.5401V27.2036H31.4084V24.5401C31.4084 23.9574 30.936 23.4849 30.3532 23.4849Z" fill="#B77FFD"/>
<path d="M26.0928 31.3914V35.6092C26.0928 35.8255 26.1787 36.0329 26.3316 36.1858C26.4846 36.3388 26.692 36.4247 26.9083 36.4247H29.0915C29.3078 36.4247 29.5152 36.3388 29.6682 36.1858C29.8211 36.0329 29.907 35.8255 29.907 35.6092V31.3914H26.0928Z" fill="#CA9FFF"/>
<path d="M39.076 43.0804H36.094L35.2257 44.0173H33.1475L32.2796 43.0804H28L26.9951 44.2096V54.2256L28 54.7695H40.3738V44.378C40.3737 43.6615 39.7927 43.0804 39.076 43.0804Z" fill="#AD6BFF"/>
<path d="M32.2798 43.0804V47.2983C32.2798 47.5146 32.3657 47.722 32.5186 47.8749C32.6716 48.0279 32.879 48.1138 33.0953 48.1138H35.2785C35.4948 48.1138 35.7022 48.0279 35.8552 47.8749C36.0081 47.722 36.094 47.5146 36.094 47.2983V43.0804H32.2798Z" fill="#CA9FFF"/>
<path d="M23.7203 43.0804L22.848 44.0538H20.6969L19.9059 43.0804H16.9239C16.2072 43.0804 15.6262 43.6615 15.6262 44.3781V54.7696H28V43.0804H23.7203Z" fill="#5D14BA"/>
<path d="M19.906 43.0804V47.2983C19.906 47.5146 19.9919 47.722 20.1449 47.8749C20.2978 48.0279 20.5052 48.1138 20.7215 48.1138H22.9047C23.121 48.1138 23.3285 48.0279 23.4814 47.8749C23.6343 47.722 23.7202 47.5146 23.7202 47.2983V43.0804H19.906Z" fill="#CA9FFF"/>
<path d="M55.1797 55.5899H0.820321C0.367285 55.5899 0 55.2227 0 54.7695C0 54.3164 0.367285 53.9492 0.820321 53.9492H55.1797C55.6327 53.9492 56 54.3164 56 54.7695C56 55.2227 55.6327 55.5899 55.1797 55.5899Z" fill="#DBEDFF"/>
</g>
<defs>
<clipPath id="clip0_470_11624">
<rect width="56" height="56" fill="white"/>
</clipPath>
</defs>
</svg>
