<svg width="32" height="32" viewBox="0 0 32 32" fill="none" xmlns="http://www.w3.org/2000/svg">
<path d="M4.46997 11.942V25.6763C4.46997 26.2261 4.91566 26.6718 5.46547 26.6718C5.99116 26.6718 6.42628 26.263 6.45903 25.7383L7.32035 11.9419H4.46997V11.942ZM24.6795 11.942L25.5408 25.7383C25.5736 26.263 26.0087 26.6718 26.5344 26.6718C27.0842 26.6718 27.5299 26.2261 27.5299 25.6763V11.942H24.6795Z" fill="#8652CA"/>
<path d="M1.77051 8.26758V10.783C1.77051 11.423 2.28938 11.9419 2.92945 11.9419H29.0703C29.7104 11.9419 30.2293 11.423 30.2293 10.783V8.26758H1.77051Z" fill="#60309E"/>
<path d="M31.2274 5.32837H0.772625C0.345938 5.32837 0 5.67431 0 6.10099V7.49493C0 7.92162 0.345938 8.26756 0.772625 8.26756H31.2274C31.6541 8.26756 32 7.92162 32 7.49493V6.10099C32 5.67431 31.6541 5.32837 31.2274 5.32837Z" fill="#8652CA"/>
<path d="M31.2273 5.32837H28.6721C29.0988 5.32837 29.4447 5.67431 29.4447 6.10099V7.49493C29.4447 7.92162 29.0988 8.26756 28.6721 8.26756H31.2273C31.654 8.26756 31.9999 7.92162 31.9999 7.49493V6.10099C31.9999 5.67431 31.654 5.32837 31.2273 5.32837Z" fill="#9E72D7"/>
<path d="M27.6741 8.26758V10.783C27.6741 11.423 27.1552 11.9419 26.5151 11.9419H29.0703C29.7104 11.9419 30.2293 11.423 30.2293 10.783V8.26758H27.6741Z" fill="#804BC6"/>
<path d="M4.46997 13.767H7.20635L7.32028 11.9419H4.46997V13.767ZM24.7935 13.767H27.5298V11.9419H24.6795L24.7935 13.767Z" fill="#5E28A5"/>
</svg>
