<svg width="32" height="32" viewBox="0 0 32 32" fill="none" xmlns="http://www.w3.org/2000/svg">
<g clipPath="url(#clip0_734_9742)">
<path d="M2.06445 19.613H29.9354V26.3227H2.06445V19.613Z" fill="#430F86"/>
<path d="M16.0001 25.8065H4.12915V23.2259C4.12915 22.3707 4.8224 21.6775 5.67753 21.6775H16.0001V25.8065ZM29.9356 25.8065H18.0646V23.2259C18.0646 22.3707 18.7578 21.6775 19.613 21.6775H29.9355L29.9356 25.8065Z" fill="#6F28CA"/>
<path d="M17.0322 25.2903L16.1613 21.2415L14.9677 21.6775V22.7097L12.9032 25.2903H9.29025L7.22575 24.2581L5.16125 25.2903H2.58057V26.6577H28.3649L27.8709 25.2903H26.8386L24.7741 24.2581L19.0967 25.2903H17.0322Z" fill="#A669F4"/>
<path d="M26.8175 4.12917L26.3227 3.09692H5.67751C5.10739 3.09692 4.64526 3.55911 4.64526 4.12917V15.484L6.10058 16.5162L5.68458 19.0122C5.6377 19.2929 5.8277 19.559 6.10895 19.6059C6.1377 19.611 6.16589 19.613 6.19414 19.613C6.44214 19.613 6.66089 19.434 6.7027 19.1815L7.14695 16.5162L7.98951 15.9745H24.1705L24.8533 16.5162L25.2976 19.1815C25.3394 19.434 25.5581 19.613 25.8061 19.613C25.8344 19.613 25.8626 19.611 25.8913 19.6059C26.1726 19.559 26.3626 19.2929 26.3157 19.0122L25.8997 16.5162L26.8176 15.484L26.8175 4.12917Z" fill="#6F28CA"/>
<path d="M7.22583 24.2581L8.7742 24.8659V23.2258C8.7742 23.1581 8.76085 23.0909 8.73492 23.0283C8.70898 22.9657 8.67096 22.9088 8.62304 22.8609C8.57511 22.813 8.51821 22.7749 8.45559 22.749C8.39297 22.7231 8.32586 22.7097 8.25808 22.7097H7.74196C7.60507 22.7097 7.47379 22.7641 7.377 22.8609C7.28021 22.9577 7.22583 23.089 7.22583 23.2258V24.2581Z" fill="#A669F4"/>
<path d="M12.9033 24.2581L14.4517 24.8659V23.2258C14.4517 23.089 14.3973 22.9577 14.3005 22.8609C14.2037 22.7641 14.0725 22.7097 13.9356 22.7097H13.4194C13.2826 22.7097 13.1513 22.7641 13.0545 22.8609C12.9577 22.9577 12.9033 23.089 12.9033 23.2258V24.2581Z" fill="#A669F4"/>
<path d="M5.67751 16.5162H26.3227C26.8928 16.5162 27.355 16.054 27.355 15.484V4.12917C27.355 3.55905 26.8928 3.09692 26.3227 3.09692V4.6453L25.718 5.19636V13.4226L26.3227 13.9357C26.3227 14.7908 25.6295 15.484 24.7743 15.484H4.64526C4.64526 16.054 5.10739 16.5162 5.67751 16.5162Z" fill="#5311A8"/>
<path d="M31.4839 19.0969C31.4839 18.9601 31.4295 18.8288 31.3327 18.732C31.2359 18.6352 31.1046 18.5808 30.9678 18.5808H0.516125C0.37924 18.5808 0.247962 18.6352 0.15117 18.732C0.0543773 18.8288 0 18.9601 0 19.0969L0 19.6131L1.03225 20.1149V27.8711C1.03225 28.008 1.08663 28.1393 1.18342 28.2361C1.28021 28.3329 1.41149 28.3872 1.54838 28.3872H2.5595V20.1559H28.9032V27.8712C28.9032 28.0081 28.9576 28.1393 29.0544 28.2361C29.1512 28.3329 29.2824 28.3873 29.4193 28.3873H30.4146V20.1559L31.4839 19.0969Z" fill="#A669F4"/>
<path d="M31.4839 18.5808H30.9678C30.9678 19.1509 30.5056 19.6131 29.9355 19.6131H0V20.1292C0 20.2661 0.0543773 20.3973 0.15117 20.4941C0.247962 20.5909 0.37924 20.6453 0.516125 20.6453H2.0645V26.8389C2.0645 27.409 1.60231 27.8711 1.03225 27.8711V28.3872C1.03225 28.5241 1.08663 28.6554 1.18342 28.7522C1.28021 28.849 1.41149 28.9034 1.54838 28.9034H2.58063C2.71751 28.9034 2.84879 28.849 2.94558 28.7522C3.04237 28.6554 3.09675 28.5241 3.09675 28.3872V20.6454H29.9354V26.8389C29.9354 27.4091 29.4732 27.8712 28.9032 27.8712V28.3873C28.9032 28.5242 28.9576 28.6555 29.0544 28.7523C29.1511 28.8491 29.2824 28.9034 29.4193 28.9034H30.4516C30.5884 28.9034 30.7197 28.8491 30.8165 28.7523C30.9133 28.6555 30.9677 28.5242 30.9677 28.3873V20.6454H31.4838C31.6207 20.6454 31.752 20.591 31.8488 20.4942C31.9456 20.3974 31.9999 20.2661 31.9999 20.1292V19.097C32 19.0292 31.9866 18.9621 31.9607 18.8995C31.9348 18.8368 31.8968 18.7799 31.8488 18.732C31.8009 18.6841 31.744 18.646 31.6814 18.6201C31.6188 18.5942 31.5517 18.5808 31.4839 18.5808Z" fill="#A669F4"/>
<path d="M27.8709 25.2905C27.8709 25.8606 27.4087 26.3227 26.8386 26.3227H3.09668V27.355H28.9031V25.2905H27.8709ZM14.9677 20.6453V21.6776C15.5378 21.6776 15.9999 22.1398 15.9999 22.7098V25.2905H17.0322V20.6453H14.9677V20.6453Z" fill="#914DE8"/>
<path d="M8.7742 22.7097H8.25808V23.742C8.25808 23.8789 8.2037 24.0101 8.10691 24.1069C8.01012 24.2037 7.87884 24.2581 7.74196 24.2581H7.22583V25.2903H9.29033V23.2258C9.29033 23.089 9.23595 22.9577 9.13916 22.8609C9.04237 22.7641 8.91109 22.7097 8.7742 22.7097Z" fill="#914DE8"/>
<path d="M5.16138 24.2581L6.70975 24.8659V23.2258C6.70975 23.089 6.65537 22.9577 6.55858 22.8609C6.46179 22.7641 6.33051 22.7097 6.19363 22.7097H5.6775C5.54062 22.7097 5.40934 22.7641 5.31255 22.8609C5.21575 22.9577 5.16138 23.089 5.16138 23.2258V24.2581Z" fill="#A669F4"/>
<path d="M6.70975 22.7097H6.19363V23.742C6.19363 23.8789 6.13925 24.0101 6.04246 24.1069C5.94567 24.2037 5.81439 24.2581 5.6775 24.2581H5.16138V25.2903H7.22588V23.2258C7.22588 23.089 7.1715 22.9577 7.07471 22.8609C6.97792 22.7641 6.84664 22.7097 6.70975 22.7097Z" fill="#914DE8"/>
<path d="M13.9356 22.7097V23.742C13.9356 23.8789 13.8812 24.0101 13.7844 24.1069C13.6876 24.2037 13.5563 24.2581 13.4194 24.2581H12.9033V25.2903H14.9678V22.7097H13.9356Z" fill="#914DE8"/>
<path d="M25.1884 24.7641H26.3225V23.2258C26.3225 23.089 26.2682 22.9577 26.1714 22.8609C26.0746 22.7641 25.9433 22.7097 25.8064 22.7097H25.2903C25.1534 22.7097 25.0221 22.7641 24.9253 22.8609C24.8285 22.9577 24.7742 23.089 24.7742 23.2258V24.2581L25.1884 24.7641Z" fill="#A669F4"/>
<path d="M26.3225 22.7097H25.8064V23.742C25.8064 23.8789 25.752 24.0101 25.6553 24.1069C25.5585 24.2037 25.4272 24.2581 25.2903 24.2581H24.7742V25.2903H26.8387V23.2258C26.8387 23.089 26.7843 22.9577 26.6875 22.8609C26.5907 22.7641 26.4594 22.7097 26.3225 22.7097Z" fill="#914DE8"/>
<path d="M19.6128 23.2258C19.4759 23.2258 19.3446 23.2802 19.2478 23.377C19.1511 23.4738 19.0967 23.6051 19.0967 23.742V24.2581L19.6092 24.7437H24.2579V23.742C24.2579 23.6051 24.2036 23.4738 24.1068 23.377C24.01 23.2802 23.8787 23.2258 23.7418 23.2258H19.6128Z" fill="#430F86"/>
<path d="M24.2582 23.2258H23.742C23.742 23.796 23.2799 24.2581 22.7098 24.2581H19.0969V25.2903H24.7744V23.742C24.7743 23.6051 24.7199 23.4738 24.6231 23.377C24.5263 23.2802 24.3951 23.2258 24.2582 23.2258Z" fill="#914DE8"/>
<path d="M25.8065 14.4517H6.19362C6.05673 14.4517 5.92545 14.3973 5.82866 14.3005C5.73187 14.2038 5.67749 14.0725 5.67749 13.9356V4.64528C5.67749 4.50839 5.73187 4.37711 5.82866 4.28032C5.92545 4.18353 6.05673 4.12915 6.19362 4.12915H25.8065C25.9434 4.12915 26.0747 4.18353 26.1714 4.28032C26.2682 4.37711 26.3226 4.50839 26.3226 4.64528V13.9356C26.3226 14.0725 26.2682 14.2038 26.1714 14.3005C26.0747 14.3973 25.9434 14.4517 25.8065 14.4517Z" fill="#914DE8"/>
<path d="M23.742 13.4194H8.25809C7.40297 13.4194 6.70972 12.7262 6.70972 11.8711V6.70975C6.70972 5.85463 7.40297 5.16138 8.25809 5.16138H23.742C24.5971 5.16138 25.2903 5.85463 25.2903 6.70975V11.8711C25.2903 12.7262 24.5971 13.4194 23.742 13.4194Z" fill="#A669F4"/>
</g>
<defs>
<clipPath id="clip0_734_9742">
<rect width="32" height="32" fill="white"/>
</clipPath>
</defs>
</svg>
